<mxfile host="Electron" agent="Mozilla/5.0 (Windows NT 10.0; Win64; x64) AppleWebKit/537.36 (KHTML, like Gecko) draw.io/27.0.9 Chrome/134.0.6998.205 Electron/35.4.0 Safari/537.36" version="27.0.9">
  <diagram name="V1.2" id="EA3c2jWTxe6ltbpcAxC0">
    <mxGraphModel dx="1678" dy="1039" grid="1" gridSize="10" guides="1" tooltips="1" connect="1" arrows="1" fold="1" page="1" pageScale="1" pageWidth="1169" pageHeight="827" math="0" shadow="0">
      <root>
        <mxCell id="_jrqCxRGhFaNpr7jHIZG-0" />
        <mxCell id="_jrqCxRGhFaNpr7jHIZG-1" parent="_jrqCxRGhFaNpr7jHIZG-0" />
        <mxCell id="_jrqCxRGhFaNpr7jHIZG-2" value="" style="rounded=0;whiteSpace=wrap;html=1;fillColor=#dae8fc;strokeColor=#6c8ebf;fontSize=9;" parent="_jrqCxRGhFaNpr7jHIZG-1" vertex="1">
          <mxGeometry x="406" y="103" width="480" height="624" as="geometry" />
        </mxCell>
        <mxCell id="_jrqCxRGhFaNpr7jHIZG-7" value="" style="rounded=0;whiteSpace=wrap;html=1;dashed=1;fillColor=none;strokeColor=#FFA53E;strokeWidth=1.3;fontSize=9;" parent="_jrqCxRGhFaNpr7jHIZG-1" vertex="1">
          <mxGeometry x="603.82" y="111" width="270.18" height="583" as="geometry" />
        </mxCell>
        <mxCell id="8pNeZ0TAll2XmvHGHXgd-187" value="" style="rounded=0;whiteSpace=wrap;html=1;dashed=1;fillColor=none;strokeColor=#41D2FF;strokeWidth=1.3;opacity=80;fontSize=9;" parent="_jrqCxRGhFaNpr7jHIZG-1" vertex="1">
          <mxGeometry x="611.64" y="130" width="256.36" height="555" as="geometry" />
        </mxCell>
        <mxCell id="_jrqCxRGhFaNpr7jHIZG-3" value="" style="rounded=0;whiteSpace=wrap;html=1;fillColor=#DAECD9;strokeColor=#82b366;fontSize=9;" parent="_jrqCxRGhFaNpr7jHIZG-1" vertex="1">
          <mxGeometry x="136" y="100" width="170" height="627" as="geometry" />
        </mxCell>
        <mxCell id="_jrqCxRGhFaNpr7jHIZG-39" value="&lt;font&gt;Azure Cloud Corporativo&lt;/font&gt;" style="text;strokeColor=none;align=left;fillColor=none;html=1;verticalAlign=middle;whiteSpace=wrap;rounded=0;fontSize=11;" parent="_jrqCxRGhFaNpr7jHIZG-1" vertex="1">
          <mxGeometry x="448" y="696" width="164" height="30" as="geometry" />
        </mxCell>
        <mxCell id="_jrqCxRGhFaNpr7jHIZG-43" value="" style="image;aspect=fixed;html=1;points=[];align=center;fontSize=9;image=img/lib/azure2/other/Azure_A.svg;" parent="_jrqCxRGhFaNpr7jHIZG-1" vertex="1">
          <mxGeometry x="406" y="686" width="42.42" height="40" as="geometry" />
        </mxCell>
        <mxCell id="_jrqCxRGhFaNpr7jHIZG-50" value="" style="rounded=0;whiteSpace=wrap;html=1;dashed=1;fillColor=none;strokeColor=#FFA53E;strokeWidth=1.3;fontSize=9;" parent="_jrqCxRGhFaNpr7jHIZG-1" vertex="1">
          <mxGeometry x="413" y="394" width="152" height="194" as="geometry" />
        </mxCell>
        <mxCell id="_jrqCxRGhFaNpr7jHIZG-51" value="" style="rounded=0;whiteSpace=wrap;html=1;dashed=1;fillColor=none;strokeColor=#41D2FF;strokeWidth=1.3;opacity=80;fontSize=9;" parent="_jrqCxRGhFaNpr7jHIZG-1" vertex="1">
          <mxGeometry x="429.82" y="424" width="129.18" height="155" as="geometry" />
        </mxCell>
        <mxCell id="_jrqCxRGhFaNpr7jHIZG-52" value="" style="rounded=0;whiteSpace=wrap;html=1;dashed=1;fillColor=none;strokeColor=#00994D;strokeWidth=1.3;opacity=80;fontSize=9;" parent="_jrqCxRGhFaNpr7jHIZG-1" vertex="1">
          <mxGeometry x="447.82" y="450" width="106.18" height="120" as="geometry" />
        </mxCell>
        <mxCell id="_jrqCxRGhFaNpr7jHIZG-53" value="" style="image;aspect=fixed;html=1;points=[];align=center;fontSize=9;image=img/lib/azure2/networking/Virtual_Networks.svg;" parent="_jrqCxRGhFaNpr7jHIZG-1" vertex="1">
          <mxGeometry x="440.54999999999995" y="445" width="34.89" height="20.83" as="geometry" />
        </mxCell>
        <mxCell id="_jrqCxRGhFaNpr7jHIZG-54" value="&lt;font&gt;Virtual&amp;nbsp;Network&lt;br&gt;&lt;/font&gt;" style="text;strokeColor=none;align=center;fillColor=none;html=1;verticalAlign=middle;whiteSpace=wrap;rounded=0;fontSize=9;" parent="_jrqCxRGhFaNpr7jHIZG-1" vertex="1">
          <mxGeometry x="468.9999999999999" y="450" width="74" height="18" as="geometry" />
        </mxCell>
        <mxCell id="_jrqCxRGhFaNpr7jHIZG-55" value="" style="group;fontSize=9;" parent="_jrqCxRGhFaNpr7jHIZG-1" vertex="1" connectable="0">
          <mxGeometry x="405" y="380" width="115" height="34" as="geometry" />
        </mxCell>
        <mxCell id="_jrqCxRGhFaNpr7jHIZG-56" value="" style="image;aspect=fixed;html=1;points=[];align=center;fontSize=9;image=img/lib/azure2/general/Subscriptions.svg;" parent="_jrqCxRGhFaNpr7jHIZG-55" vertex="1">
          <mxGeometry x="7.82" y="12.49" width="14.66" height="23.65" as="geometry" />
        </mxCell>
        <mxCell id="_jrqCxRGhFaNpr7jHIZG-57" value="&lt;font&gt;Subscription HUB&lt;/font&gt;" style="text;strokeColor=none;align=center;fillColor=none;html=1;verticalAlign=middle;whiteSpace=wrap;rounded=0;fontSize=9;" parent="_jrqCxRGhFaNpr7jHIZG-55" vertex="1">
          <mxGeometry x="13.816666666666665" y="12.48499999999999" width="95.83333333333333" height="18.7" as="geometry" />
        </mxCell>
        <mxCell id="_jrqCxRGhFaNpr7jHIZG-58" value="" style="group;fontSize=9;" parent="_jrqCxRGhFaNpr7jHIZG-1" vertex="1" connectable="0">
          <mxGeometry x="431.7399999999999" y="417" width="105.26" height="22" as="geometry" />
        </mxCell>
        <mxCell id="_jrqCxRGhFaNpr7jHIZG-59" value="" style="image;aspect=fixed;html=1;points=[];align=center;fontSize=9;image=img/lib/azure2/general/Resource_Groups.svg;" parent="_jrqCxRGhFaNpr7jHIZG-58" vertex="1">
          <mxGeometry width="22.672064777327922" height="21.336032388663956" as="geometry" />
        </mxCell>
        <mxCell id="_jrqCxRGhFaNpr7jHIZG-60" value="&lt;span&gt;Resource Group&lt;/span&gt;" style="text;strokeColor=none;align=center;fillColor=none;html=1;verticalAlign=middle;whiteSpace=wrap;rounded=0;fontSize=9;" parent="_jrqCxRGhFaNpr7jHIZG-58" vertex="1">
          <mxGeometry x="20.67607142857143" y="3.3765182186234926" width="84.58392857142857" height="18.62348178137651" as="geometry" />
        </mxCell>
        <mxCell id="_jrqCxRGhFaNpr7jHIZG-61" value="" style="group;fontSize=9;" parent="_jrqCxRGhFaNpr7jHIZG-1" vertex="1" connectable="0">
          <mxGeometry x="475.4399999999999" y="487" width="42" height="68" as="geometry" />
        </mxCell>
        <mxCell id="_jrqCxRGhFaNpr7jHIZG-62" value="&lt;font&gt;VPN&amp;nbsp;&lt;/font&gt;&lt;div&gt;&lt;font&gt;Gateway&lt;/font&gt;&lt;/div&gt;" style="text;strokeColor=none;align=center;fillColor=none;html=1;verticalAlign=middle;whiteSpace=wrap;rounded=0;movable=1;resizable=1;rotatable=1;deletable=1;editable=1;locked=0;connectable=1;fontSize=9;" parent="_jrqCxRGhFaNpr7jHIZG-61" vertex="1">
          <mxGeometry y="38" width="42" height="30" as="geometry" />
        </mxCell>
        <mxCell id="_jrqCxRGhFaNpr7jHIZG-63" value="" style="image;aspect=fixed;html=1;points=[];align=center;fontSize=9;image=img/lib/azure2/networking/Virtual_Network_Gateways.svg;movable=1;resizable=1;rotatable=1;deletable=1;editable=1;locked=0;connectable=1;" parent="_jrqCxRGhFaNpr7jHIZG-61" vertex="1">
          <mxGeometry x="6.680000000000007" width="28.64" height="38" as="geometry" />
        </mxCell>
        <mxCell id="_jrqCxRGhFaNpr7jHIZG-64" style="edgeStyle=orthogonalEdgeStyle;rounded=0;orthogonalLoop=1;jettySize=auto;html=1;exitX=0.5;exitY=1;exitDx=0;exitDy=0;fontSize=9;" parent="_jrqCxRGhFaNpr7jHIZG-1" source="_jrqCxRGhFaNpr7jHIZG-50" target="_jrqCxRGhFaNpr7jHIZG-50" edge="1">
          <mxGeometry relative="1" as="geometry" />
        </mxCell>
        <mxCell id="_jrqCxRGhFaNpr7jHIZG-120" style="edgeStyle=orthogonalEdgeStyle;rounded=0;orthogonalLoop=1;jettySize=auto;html=1;entryX=-0.027;entryY=0.709;entryDx=0;entryDy=0;entryPerimeter=0;endArrow=classic;endFill=1;strokeColor=#314354;startArrow=classic;startFill=1;fontSize=9;fillColor=#647687;dashed=1;" parent="_jrqCxRGhFaNpr7jHIZG-1" target="_jrqCxRGhFaNpr7jHIZG-63" edge="1">
          <mxGeometry relative="1" as="geometry">
            <mxPoint x="375.21989637294564" y="512.4000000000001" as="sourcePoint" />
          </mxGeometry>
        </mxCell>
        <mxCell id="_jrqCxRGhFaNpr7jHIZG-121" value="" style="group;fontSize=9;" parent="_jrqCxRGhFaNpr7jHIZG-1" vertex="1" connectable="0">
          <mxGeometry x="213.00500000000005" y="496" width="76.875" height="70" as="geometry" />
        </mxCell>
        <mxCell id="_jrqCxRGhFaNpr7jHIZG-122" value="&lt;font&gt;&lt;b&gt;Firewall&lt;/b&gt;&lt;/font&gt;" style="text;strokeColor=none;align=center;fillColor=none;html=1;verticalAlign=middle;whiteSpace=wrap;rounded=0;fontSize=9;" parent="_jrqCxRGhFaNpr7jHIZG-121" vertex="1">
          <mxGeometry y="40" width="76.875" height="30" as="geometry" />
        </mxCell>
        <mxCell id="_jrqCxRGhFaNpr7jHIZG-123" value="" style="sketch=0;outlineConnect=0;fontColor=#232F3E;gradientColor=none;fillColor=#232F3D;strokeColor=none;dashed=0;verticalLabelPosition=bottom;verticalAlign=top;align=center;html=1;fontSize=9;fontStyle=0;aspect=fixed;pointerEvents=1;shape=mxgraph.aws4.generic_firewall;" parent="_jrqCxRGhFaNpr7jHIZG-121" vertex="1">
          <mxGeometry x="17.004999999999967" width="48.93" height="41.4" as="geometry" />
        </mxCell>
        <mxCell id="_jrqCxRGhFaNpr7jHIZG-137" value="" style="group;fontSize=9;" parent="_jrqCxRGhFaNpr7jHIZG-1" connectable="0" vertex="1">
          <mxGeometry x="166.72" y="582" width="42" height="45" as="geometry" />
        </mxCell>
        <mxCell id="_jrqCxRGhFaNpr7jHIZG-138" value="" style="verticalLabelPosition=bottom;html=1;verticalAlign=top;align=center;strokeColor=none;fillColor=#00BEF2;shape=mxgraph.azure.computer;pointerEvents=1;strokeWidth=1.9685;fontSize=9;" parent="_jrqCxRGhFaNpr7jHIZG-137" vertex="1">
          <mxGeometry x="3.4999999999999996" width="34.99999999999999" height="28.928571428571427" as="geometry" />
        </mxCell>
        <mxCell id="_jrqCxRGhFaNpr7jHIZG-139" value="&lt;font&gt;&lt;b&gt;Clientes&lt;/b&gt;&lt;/font&gt;" style="text;strokeColor=none;align=center;fillColor=none;html=1;verticalAlign=middle;whiteSpace=wrap;rounded=0;strokeWidth=1.9685;fontSize=9;" parent="_jrqCxRGhFaNpr7jHIZG-137" vertex="1">
          <mxGeometry y="25.71428571428572" width="41.99999999999999" height="19.285714285714285" as="geometry" />
        </mxCell>
        <mxCell id="_jrqCxRGhFaNpr7jHIZG-140" style="edgeStyle=orthogonalEdgeStyle;rounded=0;orthogonalLoop=1;jettySize=auto;html=1;entryX=0;entryY=0.75;entryDx=0;entryDy=0;exitX=0.987;exitY=0.451;exitDx=0;exitDy=0;exitPerimeter=0;fontSize=9;fillColor=#647687;strokeColor=#314354;dashed=1;" parent="_jrqCxRGhFaNpr7jHIZG-1" source="_jrqCxRGhFaNpr7jHIZG-5" target="8pNeZ0TAll2XmvHGHXgd-133" edge="1">
          <mxGeometry relative="1" as="geometry">
            <mxPoint x="398" y="267.1500000000001" as="targetPoint" />
          </mxGeometry>
        </mxCell>
        <mxCell id="_jrqCxRGhFaNpr7jHIZG-142" style="edgeStyle=orthogonalEdgeStyle;rounded=0;orthogonalLoop=1;jettySize=auto;html=1;exitX=1;exitY=0.5;exitDx=0;exitDy=0;exitPerimeter=0;fontSize=9;fillColor=#647687;strokeColor=#314354;dashed=1;" parent="_jrqCxRGhFaNpr7jHIZG-1" source="8pNeZ0TAll2XmvHGHXgd-6" edge="1">
          <mxGeometry relative="1" as="geometry">
            <mxPoint x="214.64999999999986" y="100.5" as="sourcePoint" />
            <mxPoint x="322" y="293" as="targetPoint" />
            <Array as="points">
              <mxPoint x="263" y="274" />
              <mxPoint x="263" y="293" />
            </Array>
          </mxGeometry>
        </mxCell>
        <mxCell id="_jrqCxRGhFaNpr7jHIZG-144" value="&lt;b&gt;&lt;font&gt;On Premise&lt;/font&gt;&lt;/b&gt;" style="text;strokeColor=none;align=center;fillColor=none;html=1;verticalAlign=middle;whiteSpace=wrap;rounded=0;fontSize=9;" parent="_jrqCxRGhFaNpr7jHIZG-1" vertex="1">
          <mxGeometry x="162.68" y="692" width="100" height="30" as="geometry" />
        </mxCell>
        <mxCell id="_jrqCxRGhFaNpr7jHIZG-145" value="" style="shape=image;verticalLabelPosition=bottom;labelBackgroundColor=default;verticalAlign=top;aspect=fixed;imageAspect=0;image=data:image/png,iVBORw0KGgoAAAANSUhEUgAAAPUAAAAyCAYAAACEXJ1pAAAdXklEQVR4Xu2dC5hkRXXH7+15dO/yfpiHgAwIQUWywM6ys8siQyIhksQgGgTcmImPvEzAhBCJxGxjQHRFFlAUlJgxGmPQfCEPNj7QXWCDs8uASxKjEZUNj4hAeMtOz870zf83U2e25s693bcf070z9vnmfLdvVd26VXXrX+ecqlM1YbDnUxhs3NgbnHlmac8vaqeEnRZofwuEFGHpli0vfmHNmv9tf3GSS1C4997Dg/Hy5rGB/iPaWcbCtntPjaLyrVEQfGF8Zf9Qk8vyq8rvFsevq5B31nRJWfyGAocd/2aTy9/M7NYps6L4neJrq2S8waXLkrbWMv6VHjhVfIH4X2p9uF3pZ0Bd7i48ItBM3becRkf3K0wET/NeAebp0kD/AX4ZHKh3KGxHu4ANoINyebMr43O6fk7l/K0mtlVWsGZN1wF14x9n4YOaNmg5sD1AZwA1SVoO7J6t9y7risrb/T6iwedHktqfH191UrMkXlawZk3XeJdeGDl0JHXsO82S1BbXMmDHAJ0R1C0FdhKgrZ2iKBoLw+CWsYEV5zWh/2cFa9Z0TSjSgsiiA+osoJ6S2N3B/kF//zPz9llHR18ilft/4vlXUb93J4+CB8cm935lsOZlqMLNpyjKdW+9Z3V3ENxZMfMoeCoKo0+VDtr/kuDooxuZzMsK1ng6s5M/pXL+tvgt4o+6Mn9W17eLd4rVtIFvU39Z9zeJ/0H8Nj55rJ4X6v4ax3+oa6/4bPGfi1/m0t6o65+6Z+157GH4/WKExiUubdGF8ey7xG904fe58H/U1dovblPz7rz4A+Lfdc+9V9frxeRLmG9TF3R/qJg057r05PlJ8WPiXS6MyxIx7XC+F/Z7Luzjui5sm9qr1NTPeQN2CqB5Z2ZQTyeeH2BnBfTuBnusHAQ3jO+z5Irg2GPH4+2Y8b5RUDORMyL+Y+99gOFL4neIfyCOT5Rx/zHxVWLAagQYAcmV4qvFRfEfuSsDBHVUlYN9xYDiIy5+QlcDNYMIIDWgAnLAxiBAGOWBftKFM4DwHuLioAa0DA4v8vLjWd4N2CEDNXWmzAxu5EWZqM8+YuKGxAyA9jyAPksc/26048+JV4kX7kSZq+isS9OBvUUSunuuhLaX1gRqHmo2sGsHtCt6+EgURBtKDy75cHBOXcBuFNR0SjooADZKAvGwImHmAiweQCGNjV6iH4AIUABmAAMoUXVN8pIW4DAgfE+MVPxnsQHyKf0uiq/z8iXucPFlYl9Ls4GA9OTjgxptAJAOubLc4OX3PhcGsA3USFw0AaTyh8UMPhBSHY2EyU0DNRNh5AtbmGVvcQ8oYHGBmho2Ddi3bzss35v7juxQRuxEqhnU5NIsYNcN6JmqPBSVo/Wlh5d+vA5gNwrqYZUiPmlXDdTMBTAQfFp8kfhHriao3h8SA/YPigEJ6iyA/n7sw8XVdANkUekAr0/E/YwYNXqHGJWdwYj8yZuBgzgf1H26B7AMOpQnTkk2NW35pNhMp6X63SPGLMHsAMDc/6X49WLA/rexjG0QeEThiw/UVLZhYN+1/ZB81+T2MIoOTvgwM0F1gZqnGwV244C2OkwDuze8UXMSvu1WqdrEtQPUvDcurVFRkc6/Lr5CjMoLmFDTUZ3jhGqMmm7S3qQugI6DGvAWxQzq/ycGxJ9wGQLwJJu6T+GAOm0dOgnU5G9qOSo6EvtMsaZIZiQ1A9qfideL41La6oi0Xlw29ZzP15vrGzvxxDmTWwkfendQFIW9X7/nmDAXfjUMohdXTKvIukE9lXH08Fi5ZyBYfTyja3YaHe3J74peHYbhxuwPVUgZRQ9GQXhlaey54eC00+ITUGkPvkYRnxP/mxgVcmrdPoHSJsqGlbZWSU32SComhHB8wY58s9ifIDNJ/KzCkX5phLr7F+JKoOZZ8gOgRtjl+4tR04tiJmeTJHVWUOPjwGDEpB72vxEA/kXxbWJAjORn8GJgQVuJT3LmFEadXiVenJJ6pmlqATaA3vqNl4dBWYAOfspr4NSfjYGabGsEdrMB7WqmenxX69iXjj+01y0ZVfGf1qN0eGw+OtmfJDQSUmet2ECI51lcxfYfq6Z+W1oDLiongzYAwFYGpNjNqOAGemxln5iAOlAM6IlLA/V+igO8DFb+qgoDUVGMHc8V6e6DmnYBgNjPmATPx94fl9R2j1bAb9OWjnPP/42ugPqlYrzVDhKT9o5Yvhb/CoUvclBT8yzAFqADSejeMLg7FwZ7xxos9bZxUJN1RmDPE6CtcpLW/6V5mneWVvZ/LQjDyQxtgBRmiekrYtRfll+MfEC/oMDPiFnCagaoWfYCxPeKkcYPim3irEu/kZLEM9hcLDYtAkAj3S2+kqRm4CiKh93VB3bcDvdBzUQVM/NHuXdRBiOkMuVi4DFJnqSOA1zMh18Tv1WMWq2uNnUdcvkyAWdzCqRnAGE5DPfpHwNQ06SVgA2g77rnyN6u8LZcEPV5H6Hqz+aAmtcI2N3hSbJrbelk9rvnGdD2MtXnvq4oeMsLq/oBTDV6tRIgRbBjN4t/R2yDwS/oNxLaBzT5NQPUmEVIKzovEtektJUXaUoYtio2MMCBABMaBffvdmGV1G+AR/yw2J/0InxIXBQjPX1Qc/8eMYMHS2dMblmb/L5+o9mgwhuose9NrUZ9hpDyLE8hXLCvkdY73PtoY8LJ/wsuPXWlHY4R0zY/JqBWTVM8z8Jg27ZDeyZzn+0KgzWukTJfmgVqeXtNSDp+Wf7ZvzTn5S0CtPfekbEgf1YwcNwPMzTESqXBzusTY9cxcQWZbc7sLRLaCJuYTkiHRIr6FI+rlBbgIhHNNo4X1eIJp0ys/WKH3iMGoFvcA0hkGDDGN2Mw4wz4cO5g0or6sY7MshN5WHqzu1neQppCAJtBhHcjZVGriWdWnnBLi938B+JjxWgZ5A0D2gHxG1x+3P+9GNOCMMpDevL10/M9iuKvuef2+Euim2iWUmtNdntpYMUJs9JKQucloYOu8GpNir02Sz7xNM0AtfJgmeS2REA/8ECh99EnX5sLo7+rp3wNPMMus9NqfB719uViJBPg2VOIZam9xN9ooECH6FkkLJOaSMWsBFjRVlDLKxHlM1s/i2ckEhm1+2FxfN4ga9n2iHR1gToN0IU7tvWVe3suz4Vl3+Wupoo2CmoH6E0CNCP2bGofoClHPaCuqe06iTstQAvUDOpEQCsjtkeWdwWX5aIyNl7d1AioHaBvL+187mwtJc2eJW0voDugrrtHdB6stQVqAnUaoIOtWw/qjbrXa1IM26YhqhfUM4A+aL83aGPFbHWu/YDugLqhXtF5uJYWyAzqVEBvHNm394Ced8lGtdnPWt4/J209oJ5RuYOJc4KBgT0O0CofEzuYBD/fUON0Hu60QIYWyArqZHtwy5Z9luQK74hyU26CTaFaQa30Y0EU3VrqCc+b45Z53317FcbGzw2i0F/bbEo5a8skerIc5m4aX7mcZaM0YpLmlV7kE/r9zYTElo4ZWpbrvltbWaqmZgKLNWFm23FEebTqE61PgGMIs94Q9Y97EFaLZ6nKnKG+rd84xfj3WVYpWl/rjG/MAupkQI+M7JuPcm8Kw5zt3c34ysrJagF1FE0tqXyltLTn3GDZMnMcmH7B/ffnC08+vbbdgKY+EtTDWinwd0ElNYK5f1ocHlxJZ5VZOkDHDibf5bIZ38C8y9h5xfqurfU2I++seRyuhCx1pbn7moMJ+SW5j1aLN6cTVklwRkGDGnKF45rmC561/G1NVw3UKRL62/vke59fG5ZnNuM3rRJZQT1jQ0+W3h6cfPJsf3QBuveJZ8+SSYAvdduoBkBTxjioWffFMSIurRc7qM1dlMMT0g4dZB0arQetIg5q9mezSQMfdoi1d9bxfT9wAzX7z8mHzR74ikPc49W3YKkSqFNV7nxXYa22TzZVQlsLZgG1A/SW0mR0YXDyiv+c1foLE9BJoCYsCdiLHdSXqt5FMc4haaDGiYU91niU4WWGs45JdTtQgcEB2iTG623U3bPujyQ/QzwkRiovF1t6/AFwk12wNAVqZq8LURc2nFEyoDduzBcOfJGWrLStcJ5IgH2mNDF2WLBmze5jinSwQr4r+KYGkr2nAR2NlMKuC4KVJzKa76aFC2jqEJfUVi/zAzc7rxKosQuxF33CJv5vLwBJZscREYcft93jePHLYry7TP3m5BRsbCN8oYmzwwcs3Gxx/907dONrUajVfS6BhRPm05BuYMBqbptJdnOaim3hPGPHGpGfqdQmpXmnhcdtbGtr9mFT91mn2+oeQcLWUSMcYthSTDjfIL69OJ6e55aJseV94jvh729t66fZrvA+7xn2ise/wVRe06AW5UdGZ1QOzdLOteXkWlmYjN483zaqQCs1KbpYNig7hqbpzjsPyHcvfU8QRkfIq/yZaNfkR3atWWkj73Sau+5aUgjza5UG/+h2EoPjDfIew62xFvJBzQQY0gIXRUDEtkQOD4CSQI031PFic5H034t7IyolnQI7FT+CYZeAODocvs0QYN7hrgAXrzsGAexOo3/Vj6IYbzLbAXWkfrP64acjPeYPdjmTUaRd554l7vMuQzZZVKNa7GZ/Q0efMja/8jioGcA4JeafxElAx1vyZDHLtLM9J6f3j/NNbBIR7JwlZssnPua4o85gS7/j6U9SGD7s/sQobYBf+lfF7BjDqw0tY9A1Djvn2GBiz+Axh2fdHPJfnBQ/HbZpU3ehsNcbgzDHzqBWUG3HAC98QNOmPqiZJLOOALC3igHeNi+dP1HGIX5stMCtlMHANo+gUp4oZlTnZJG7xD6oea+lZ8aYDrVDDLgZWPiNE49NQpKGLYzsSWbQwib1Ac1A8B9kKkL6w5ydVhSj1vqgJg1gh01TsN/ckw/5QQAgfpg+YGMgoUwGejo8g8ivuLA+d8W/G7BTJwMwdWQnFuBOArWFaafdlEuqDWB8D7aD+kA1UDNo3i02SW9pqQOg53BFAM2AQBzmlWnIDCBIeHbJUf6vi31Qk4elZ08FGk6doJ465GDbeblcFztbWkU/nAjD8ydWLq/uRL84AE27xkGNtsSHZksgndWATYcC9AZqOib2J6AHoEwKMeJD+JpzD7DtZFEk47CL99Ojdv+EmIHBdlAxiGOP2k43NpLwPqQEaZjRT5stZ6ApigEo18vEPqgBMOFoA6SF+G1pkqSzSzZzMakM6AEzE2g8x4AA4AddGfFdoOz3i2kPpOmQOE0l/3cvHcc8YW7awIZJwLdhM4oB1UCN+syuMdubbeEUOJ42Pl9C+zAfwA49tt2y2YRDO6gD5Kdni+vl4sTTaytL6qlDDkbPzgWh2TYu//m9SAXXX/C9Ur5rRXDCCdh8ybR4AE39kkCNTccHBti0CWCmI/qgRg0edg3Eld1UPplkxlxhJhjgVkpvIE3agskgUxSzRRTzCKbTo3Zz6CDg8gl1EQZ8dFoAx/MQV8LiVA+oyYO8+9zVBgTaDnAzsAyJB92V9NyngdpPh1T1hQsDKCeMsqMrDlR2yeETYX2WPdyUgUGQtGhKnxYzSYc6PXuSdxqoDODMo/AdmIymLBDX293vipdUUPeO3E0n6241oL3SPiVdBhtl68RAv23r2x29uABNvZJATbivriGt6WB21jYSJCuoyWtYvNld7T4+CBio6XB0svhuNov/a8Ux45x0blm80zEIAWDqWHSRXOcb1LzKpPmQfg+KubJMyJ5rtrFCcfXb0sXrEb+Pg9ruLR2DHe2DiUAc0h0py8RaNaIMRVdm0nKfHdSFraOM5rMpmhnNq718XuIllsqSTT+YDIPrJ7qDjxYmpxplhuR4crBGJFSpNlL0aDkKrxlf1W+TWI2UJQ3U5MlEjamN9g5Tv7OCGtsNtZxZ52GXCdc0UGNrUi9moY2YNEMdBxBI5W+JkTj7i7E9sfl94rQWiHPXsCd5V9GFcW0U1HZ4IEcOYV5gk+JIgllgJoiBGgmKxMYeZWBiQtX2qFcCNQIl7rXHkhrbYTFBaH9Ts6uBmrVy2vR48RfFcW892hE1H/udZTo0tEHXXlxrAPXIqF8pl0f7LlOAVoUno/DaiVXL1wcjI4fmg+6bBGLUlj2Emgpo6lQJ1MSj8iIdsakhAzWzyHQAOisdkAkxQAQhIbh/mxiVDjCyJjvs4rmmgZokAINnmACC6LRMEAEOOjTlQaUnHKkHwJkoMjpVP5aJ6YwsP/o2dVH3lUCNWg8gMTsqkYHW0qDiMolnKjNzDax9Y3YYDemHqd6ExUHNWjb2Lfu9qR9mhh26yDwFS2AAjzo/JM4KagY2S8s3ow19l1QkOwMGaQj3J8oGdZ8d1NSqsIcA29nTj+t6zfhA/7RP+c03dwWHHvmKfC64VsCmUdtMTQc09akGamY7sdnssH5/9hvvKTom6h3ANl93gA6gWRaj8yPt/dnvYd2ngRrJi538fbFNyHCkEnvlmThD4uAcQn7MLjPBQydHYkKYdoCdmVzAy8kktYD6ZqVnjRyJiAaAVpBEcVDHJ9gY2NA2/P31Q7qvBGrqTN9jDoGVBMwHc0hhkGDikUED+7oWSQ2o0RIYKFmZANhMGBoxADNgDooBcGOgJtd2A3sK0FGwM8qF67X5YfYormW1nsI+y3WI4fvVW6h0m2heAE1dqoGaNL4a7oN6teI4IghbDdXOJ1RHbG/WjFGps4IaKcIAQec+2suQPFgJYeAgb96JiyWz59j/PmFzAwqW2/z/3kGaoriSpPbzqTQTDjBQt+3Yp6S0viSOazO8Jy6pATxSE1PjKDGDpU8+oAmvRVIzwcbAjK1tm0gsb6S/aVTMpDcOanJuF7CdhN5ZLgef2LW6nw8zlwD2kiX9uajrSp3RPZiYZl4D5w3QlBrAmhMIQDCbMF4jS0cH2Cw2ybi3fqOiMzj4RCf2Z6WRPkhvKB5H2OlipDFSl3VrwHqKlyHLPSy3mOSyKKQ4Nq5PLC0hnWy9mbLZ3AjSj7g4+WksjjrS2ZOIY7OQwma/J6UFoHZeHoORmSeWX1r8kKt7HNTMiCOhjVhKQ3rHw1+lMM7IQ/WPx+EQZOvzlg8aEUuGLL1BfhoGL98zMKU5Znu9zCTKj9y9IQzCZGClZlV/xBSgw/CFaDK6enx1PzZMOgHs7n2X5XqCK3QOWgtt7OhhebN9oLRyhT9xVH+lO092WmCeWiB1SatVwHYSekzXq2RDVwa0NcKNoz3dx5VXdOVyl7fExo6Cx3U66XtLq6dcV6tN3MzTp+pk22mBbC2QCmoen29gTwM6Kml56kPjq1Ywc5qdbr65t/vQo07JhZMfzIVh3Dc3ez7VUgLoMFgvf/g2L59VK2gnvtMC0y1QEdTzCewZCR2FG8ZXLWfJoXba9ECha8lTZ3VH5XXawRW3T2rPL/5EB9CNt2Enh5a3QFVQzwewZwAdhldrlrs2CR1votHRpT27gvM1k3FRU4EdBo+Xg/AqlY8N9x3qtMCCaYFMoKY2ha33rNNZYMVGaza9bBVhQxelcjcHMHIZ7c3lX69/xHeJJviyuOBVq8ZjKt/60srlGzSBl7hntVoGnfhOC7SwBfjnCjitQN/KDOpmAVtg2alJp+YB2lpOwO4Je8/ROvalqpS/rlpb2yKhy9E1488+eW1wxhmzzz2rLafFlpqtgiwdsd0Sp5A4EY+bY1JcM9uCFQ/2KxvhbomDCktWbFfEPz6JWCrbIZ59sMbclKRjrZ8lN9LG7+NPsMNsuzjTclOGhsCPoE88LB4Ubxbj2ptG7KWnzhzEyDLjmTWBmlwbkdgCsyR0KEA3xVd6biVRxSeitbkofLdUcTywaiPZ0HI4v2a8J7xeJ5Nm+VctteVfOTWuh+xoMsKDCq+qZhNum33ipDXiSu+yjRw4pSQdopgF1LbeW6/2A6CLYnZBMbgwyOBUw/ou3lh4l9kRSHn95j22DxoHk81i8yTDWYV4c4G1upsjypBLG78nHQ4kPMtKSDNAzQktHIJInj6oh119K7mH4gCE1xzEoLqjZlDzZD3AnndA2yfRscA9L+x6q0C9Tj2I/6WUkcLHytHE1ePPP3tDcPrprQY0ZUQi4GBAJwXgfGj+cRsTgPgiMxpzIAG+zd1i24zAsz8rZhDDawtiYwP7omEL59lBMXuJ6ei+eyieYHQINhjwDM4Z5Gm/AWxRjHML0pDdc0hkk97kR4fEIYNy8R6jze4HYQYwc/7w05HM0lJ3QMmqBpLYpC8eXrjKso0U8OJwg+/1qS4cZxni2OqIYw2+27jIkh/7rb8jxkOO9kTC4bCCow/528GElUBN3fgetD/1xdEFqY6k5spgQ/u8xgvzJ3D5tqSzMA5+wBefAYpvgIPNoLhPzHFJnMHGN2W7JtoJbW7x1If2NFDj1otT0ZfqArUerAnYLQM0BYN0HnlvV+FCze1fLGDzYavRE/pC143vfG7DnH/XU+3J5sUDaiYNkYR8YHyD+S+VdAA25dOh2CzBx8YtlNNHqBuqGfd0Dry9bhWzmwqQAm68mvjgbDckXRqokYJIPAAXBzVSGi2CTgiQ8RCzAxIIp+NR5gfEqK2DjpFoRTEeaYQBUK6ADOL3ZjHncvGb/cPcE097sKnCd/tEyyCvN4npuwCXDS1JoOa0Fw6EwLca0BmoaQvCeScnhyCp8d4DjFAlUOMNx3cgT+qNdjAkHhbznWgDfOJxASWMuCPEj4sZJDlAgTD2yXMSzGYx5SI/2vST7rlBXVlCxW/eQM2OLfItine4vAD1Z8T0E/LFW2573aDWw5xrdqEyoBMmkrl+qvkv0j9ep1Cto02b9u5duu8FYRRdrDLSwZNpyoYuXzc+Ubo+OOWUp1pXwDlvohPTSZDWSEgkB8BFayCOj8ZHhZFguBLSQZFYgBetBHdEOgFgQgpR70PESFikKHGod4NiX1JTGE4GYSBBGjCIoPIBUAhQ8xxhvJtDIVmGPE3cJzaA228GCPLD1ZQtjnZeG77e6xyTL/2vKLajjhg0kFoQ9WcTCH7VplIDKlR4gAhYKCfxvvptgxyDG5oOkoznTf0e1O9zxGgblI/5F0BvG0aSQE3daS/ePyy23Vb8HnJhaAjcU24kNgMFBzQw8NBuaAcMlriB0q5IeTQKpDqbYdh9hwZA2fgOg+KiY57fJGZgpm2RyL5Kjm89Azl0bkOgJoc0YDMhFuaC901OBk/sWtViQLva6TDCA3uCntflcsExmhWP/+9mLKJHJnPBpbuiiS/q3/X4W+Ash1ZeDbh0VIjZTKQve4WRzkNiRmI6ClJohZgBgMk8Tsug86Jq0ykhpLKFAz4kE/mg1iK9DdTkA/DpVHQmOizbHvHbBlSk5QoBICak8B/niF4kRZ/YBzXSuChmIwQAxa0W1RH7l0ML+W39jjDSIiUBux1awLuYpMLDEBvYQM09AxSTUpydhoQmnoGPdkHVRnvB1GAgoe2QggZqVO47xJzzzSBHetqDk33sbDV83y8XA0wGTXzaAT1hSNVhcRKoLQzgo13wHSgbAyzlZTAijEMSLI9+/QbUAJxvSz0I43sMioti9sEz2KO2Y34wOOBPTh9IpIZBTa4Ae07uUTBe6lGl+vsTD0dLK9C8hI+OHpyfmFLZZpE8xR4fX9lvGyLm5dU1ZEpHpBP6B+xZGJ2LOLvSIZFUSAE+MjOfD7urbXyIhxN/mJidU3RuPx2SguOLAATbHHkW4j10JsDDbwCBGgnQUfXtGcJJx/NITX922iQvYWZT2//aJox4tnLyGykL0S8BG3kikQAVhJZAp6fu5MUeZ+KRjqi+NofCgEi+qPGAgucBK23IwEF7MQAiGZH6SEHbdMJ7SDsoBpC8Aw0HSc7mFr4BWzPtt30XC2PSyraskoZ7JtSoE+F+etqZetMeLMUyMDOfcpCYgYY4yspvvhvl5DugmjMgJVJTQJ2WeSd8QbYAwKSz26EAzayEraUauOvN+wA9CBgxA5IIm5WJLH8yMZ6OSTbKYXvF4/GYLoCagavR8oIzgJ1GtLnZ92lp2K6JxF4r9lXvOek7oK63Wy3e5wA0/aLRjrx4W6g9NcP2ZyBiLgXTI5X+Hz6Jx6T6n0g4AAAAAElFTkSuQmCC;clipPath=inset(0% 61.43% 0% 0%);fontSize=9;" parent="_jrqCxRGhFaNpr7jHIZG-1" vertex="1">
          <mxGeometry x="179.83" y="660" width="65.7" height="34.76" as="geometry" />
        </mxCell>
        <mxCell id="8pNeZ0TAll2XmvHGHXgd-5" value="" style="group;fontSize=9;" parent="_jrqCxRGhFaNpr7jHIZG-1" connectable="0" vertex="1">
          <mxGeometry x="168" y="259" width="42" height="45" as="geometry" />
        </mxCell>
        <mxCell id="8pNeZ0TAll2XmvHGHXgd-6" value="" style="verticalLabelPosition=bottom;html=1;verticalAlign=top;align=center;strokeColor=none;fillColor=#00BEF2;shape=mxgraph.azure.computer;pointerEvents=1;strokeWidth=1.9685;fontSize=9;" parent="8pNeZ0TAll2XmvHGHXgd-5" vertex="1">
          <mxGeometry x="3.4999999999999996" width="34.99999999999999" height="28.928571428571427" as="geometry" />
        </mxCell>
        <mxCell id="8pNeZ0TAll2XmvHGHXgd-7" value="&lt;font&gt;&lt;b&gt;Clientes&lt;/b&gt;&lt;/font&gt;" style="text;strokeColor=none;align=center;fillColor=none;html=1;verticalAlign=middle;whiteSpace=wrap;rounded=0;strokeWidth=1.9685;fontSize=9;" parent="8pNeZ0TAll2XmvHGHXgd-5" vertex="1">
          <mxGeometry y="25.71428571428572" width="41.99999999999999" height="19.285714285714285" as="geometry" />
        </mxCell>
        <mxCell id="8pNeZ0TAll2XmvHGHXgd-46" style="edgeStyle=orthogonalEdgeStyle;rounded=0;orthogonalLoop=1;jettySize=auto;html=1;entryX=0.972;entryY=0.764;entryDx=0;entryDy=0;entryPerimeter=0;startArrow=classic;startFill=1;fontSize=9;fillColor=#fa6800;strokeColor=#C73500;dashed=1;dashPattern=1 2;exitX=0;exitY=0.5;exitDx=0;exitDy=0;" parent="_jrqCxRGhFaNpr7jHIZG-1" source="8pNeZ0TAll2XmvHGHXgd-48" target="_jrqCxRGhFaNpr7jHIZG-63" edge="1">
          <mxGeometry relative="1" as="geometry">
            <mxPoint x="562.8199999999999" y="389.25" as="targetPoint" />
            <mxPoint x="559" y="591.3157894736844" as="sourcePoint" />
          </mxGeometry>
        </mxCell>
        <mxCell id="8pNeZ0TAll2XmvHGHXgd-48" value="&lt;span&gt;vnet&amp;nbsp;&lt;/span&gt;&lt;div&gt;&lt;span&gt;peering&lt;/span&gt;&lt;/div&gt;" style="text;strokeColor=none;align=center;fillColor=none;html=1;verticalAlign=middle;whiteSpace=wrap;rounded=0;fontSize=9;" parent="_jrqCxRGhFaNpr7jHIZG-1" vertex="1">
          <mxGeometry x="566.8199999999999" y="501.73" width="37" height="27.25" as="geometry" />
        </mxCell>
        <mxCell id="8pNeZ0TAll2XmvHGHXgd-50" value="" style="group;fontSize=9;" parent="_jrqCxRGhFaNpr7jHIZG-1" connectable="0" vertex="1">
          <mxGeometry x="913" y="189" width="47" height="55" as="geometry" />
        </mxCell>
        <mxCell id="8pNeZ0TAll2XmvHGHXgd-51" value="" style="verticalLabelPosition=bottom;html=1;verticalAlign=top;align=center;strokeColor=none;fillColor=#00BEF2;shape=mxgraph.azure.computer;pointerEvents=1;strokeWidth=1.9685;fontSize=9;" parent="8pNeZ0TAll2XmvHGHXgd-50" vertex="1">
          <mxGeometry x="3.9166666666666665" width="39.166666666666664" height="35.357142857142854" as="geometry" />
        </mxCell>
        <mxCell id="8pNeZ0TAll2XmvHGHXgd-52" value="&lt;font&gt;&lt;b&gt;SUNEDU&lt;/b&gt;&lt;/font&gt;" style="text;strokeColor=none;align=center;fillColor=none;html=1;verticalAlign=middle;whiteSpace=wrap;rounded=0;strokeWidth=1.9685;fontSize=9;" parent="8pNeZ0TAll2XmvHGHXgd-50" vertex="1">
          <mxGeometry y="31.42857142857143" width="46.99999999999999" height="23.57142857142857" as="geometry" />
        </mxCell>
        <mxCell id="8pNeZ0TAll2XmvHGHXgd-56" value="" style="group;fontSize=9;" parent="_jrqCxRGhFaNpr7jHIZG-1" connectable="0" vertex="1">
          <mxGeometry x="931.9788780487802" y="366.75" width="83.01552106430154" height="93.5" as="geometry" />
        </mxCell>
        <mxCell id="8pNeZ0TAll2XmvHGHXgd-57" value="" style="aspect=fixed;sketch=0;html=1;dashed=0;whitespace=wrap;verticalLabelPosition=bottom;verticalAlign=top;fillColor=#2875E2;strokeColor=#ffffff;points=[[0.005,0.63,0],[0.1,0.2,0],[0.9,0.2,0],[0.5,0,0],[0.995,0.63,0],[0.72,0.99,0],[0.5,1,0],[0.28,0.99,0]];shape=mxgraph.kubernetes.icon2;kubernetesLabel=1;prIcon=api;fontSize=9;" parent="8pNeZ0TAll2XmvHGHXgd-56" vertex="1">
          <mxGeometry x="15.2" y="15" width="52.61" height="50.5" as="geometry" />
        </mxCell>
        <mxCell id="8pNeZ0TAll2XmvHGHXgd-58" value="&lt;b&gt;&lt;font&gt;APIS&amp;nbsp;&lt;/font&gt;&lt;/b&gt;&lt;div&gt;&lt;b&gt;&lt;font&gt;Servicio&lt;/font&gt;&lt;/b&gt;&lt;/div&gt;" style="text;strokeColor=none;align=center;fillColor=none;html=1;verticalAlign=middle;whiteSpace=wrap;rounded=0;fontSize=9;" parent="8pNeZ0TAll2XmvHGHXgd-56" vertex="1">
          <mxGeometry y="65.5" width="83.01552106430155" height="30" as="geometry" />
        </mxCell>
        <mxCell id="8pNeZ0TAll2XmvHGHXgd-59" value="" style="group;fontSize=9;" parent="_jrqCxRGhFaNpr7jHIZG-1" connectable="0" vertex="1">
          <mxGeometry x="987" y="189" width="47" height="55" as="geometry" />
        </mxCell>
        <mxCell id="8pNeZ0TAll2XmvHGHXgd-60" value="" style="verticalLabelPosition=bottom;html=1;verticalAlign=top;align=center;strokeColor=none;fillColor=#00BEF2;shape=mxgraph.azure.computer;pointerEvents=1;strokeWidth=1.9685;fontSize=9;" parent="8pNeZ0TAll2XmvHGHXgd-59" vertex="1">
          <mxGeometry x="3.9166666666666665" width="39.166666666666664" height="35.357142857142854" as="geometry" />
        </mxCell>
        <mxCell id="8pNeZ0TAll2XmvHGHXgd-61" value="&lt;font&gt;&lt;b&gt;Estudiantes&lt;/b&gt;&lt;/font&gt;" style="text;strokeColor=none;align=center;fillColor=none;html=1;verticalAlign=middle;whiteSpace=wrap;rounded=0;strokeWidth=1.9685;fontSize=9;" parent="8pNeZ0TAll2XmvHGHXgd-59" vertex="1">
          <mxGeometry y="31.42857142857143" width="46.99999999999999" height="23.57142857142857" as="geometry" />
        </mxCell>
        <mxCell id="8pNeZ0TAll2XmvHGHXgd-68" style="edgeStyle=orthogonalEdgeStyle;rounded=0;orthogonalLoop=1;jettySize=auto;html=1;entryX=0;entryY=0;entryDx=0;entryDy=0;fontSize=9;fillColor=#647687;strokeColor=#314354;dashed=1;exitX=0.5;exitY=1;exitDx=0;exitDy=0;" parent="_jrqCxRGhFaNpr7jHIZG-1" source="8pNeZ0TAll2XmvHGHXgd-52" edge="1">
          <mxGeometry relative="1" as="geometry">
            <mxPoint x="948.2222843365978" y="285.53800729729005" as="targetPoint" />
          </mxGeometry>
        </mxCell>
        <mxCell id="8pNeZ0TAll2XmvHGHXgd-69" style="edgeStyle=orthogonalEdgeStyle;rounded=0;orthogonalLoop=1;jettySize=auto;html=1;entryX=1;entryY=0;entryDx=0;entryDy=0;fontSize=9;fillColor=#647687;strokeColor=#314354;dashed=1;exitX=0.5;exitY=1;exitDx=0;exitDy=0;" parent="_jrqCxRGhFaNpr7jHIZG-1" source="8pNeZ0TAll2XmvHGHXgd-61" edge="1">
          <mxGeometry relative="1" as="geometry">
            <mxPoint x="998.787715663402" y="285.5380072972905" as="targetPoint" />
          </mxGeometry>
        </mxCell>
        <mxCell id="8pNeZ0TAll2XmvHGHXgd-74" style="edgeStyle=orthogonalEdgeStyle;rounded=0;orthogonalLoop=1;jettySize=auto;html=1;exitX=0.5;exitY=0;exitDx=0;exitDy=0;exitPerimeter=0;fontSize=9;fillColor=#647687;strokeColor=#314354;dashed=1;entryX=0.5;entryY=1;entryDx=0;entryDy=0;startArrow=classicThin;startFill=1;" parent="_jrqCxRGhFaNpr7jHIZG-1" source="8pNeZ0TAll2XmvHGHXgd-57" target="I72n3WppPRln4_K4UJIP-1" edge="1">
          <mxGeometry relative="1" as="geometry">
            <mxPoint x="973.5049999999999" y="278.93000000000006" as="targetPoint" />
          </mxGeometry>
        </mxCell>
        <mxCell id="8pNeZ0TAll2XmvHGHXgd-77" style="edgeStyle=orthogonalEdgeStyle;rounded=0;orthogonalLoop=1;jettySize=auto;html=1;exitX=0.958;exitY=0.346;exitDx=0;exitDy=0;exitPerimeter=0;fontSize=9;" parent="_jrqCxRGhFaNpr7jHIZG-1" source="_jrqCxRGhFaNpr7jHIZG-138" target="_jrqCxRGhFaNpr7jHIZG-123" edge="1">
          <mxGeometry relative="1" as="geometry" />
        </mxCell>
        <mxCell id="8pNeZ0TAll2XmvHGHXgd-81" value="" style="edgeStyle=orthogonalEdgeStyle;rounded=0;orthogonalLoop=1;jettySize=auto;html=1;entryX=-0.027;entryY=0.709;entryDx=0;entryDy=0;entryPerimeter=0;endArrow=classic;endFill=1;strokeColor=default;startArrow=classic;startFill=1;fontSize=9;" parent="_jrqCxRGhFaNpr7jHIZG-1" source="_jrqCxRGhFaNpr7jHIZG-123" target="8pNeZ0TAll2XmvHGHXgd-80" edge="1">
          <mxGeometry relative="1" as="geometry">
            <mxPoint x="295" y="471" as="sourcePoint" />
            <mxPoint x="637" y="305" as="targetPoint" />
          </mxGeometry>
        </mxCell>
        <mxCell id="8pNeZ0TAll2XmvHGHXgd-80" value="&lt;font style=&quot;font-size: 9px;&quot;&gt;VPN Tunnel&lt;/font&gt;" style="image;aspect=fixed;perimeter=ellipsePerimeter;html=1;align=center;shadow=0;dashed=0;spacingTop=3;image=img/lib/active_directory/tunnel.svg;" parent="_jrqCxRGhFaNpr7jHIZG-1" vertex="1">
          <mxGeometry x="318.72" y="502.73" width="96.5" height="19.3" as="geometry" />
        </mxCell>
        <mxCell id="8pNeZ0TAll2XmvHGHXgd-133" value="Internet" style="image;aspect=fixed;perimeter=ellipsePerimeter;html=1;align=center;shadow=0;dashed=0;spacingTop=3;image=img/lib/active_directory/internet_cloud.svg;" parent="_jrqCxRGhFaNpr7jHIZG-1" vertex="1">
          <mxGeometry x="318.72" y="277.86" width="71.43" height="45" as="geometry" />
        </mxCell>
        <mxCell id="8pNeZ0TAll2XmvHGHXgd-142" value="" style="rounded=0;whiteSpace=wrap;html=1;dashed=1;fillColor=none;strokeColor=#00994D;strokeWidth=1.3;opacity=80;fontSize=9;" parent="_jrqCxRGhFaNpr7jHIZG-1" vertex="1">
          <mxGeometry x="629.82" y="375" width="226" height="286" as="geometry" />
        </mxCell>
        <mxCell id="8pNeZ0TAll2XmvHGHXgd-143" value="" style="group;fontSize=9;" parent="_jrqCxRGhFaNpr7jHIZG-1" connectable="0" vertex="1">
          <mxGeometry x="762.32" y="555" width="39" height="45" as="geometry" />
        </mxCell>
        <mxCell id="8pNeZ0TAll2XmvHGHXgd-144" value="" style="image;aspect=fixed;html=1;points=[];align=center;fontSize=9;image=img/lib/azure2/security/Key_Vaults.svg;" parent="8pNeZ0TAll2XmvHGHXgd-143" vertex="1">
          <mxGeometry x="6.782608695652174" width="25.434782608695652" height="25.434782608695652" as="geometry" />
        </mxCell>
        <mxCell id="8pNeZ0TAll2XmvHGHXgd-145" value="&lt;font&gt;Key Vault&lt;br&gt;&lt;/font&gt;" style="text;strokeColor=none;align=center;fillColor=none;html=1;verticalAlign=middle;whiteSpace=wrap;rounded=0;fontSize=9;" parent="8pNeZ0TAll2XmvHGHXgd-143" vertex="1">
          <mxGeometry y="27.22" width="39" height="17.78" as="geometry" />
        </mxCell>
        <mxCell id="8pNeZ0TAll2XmvHGHXgd-146" value="" style="group;fontSize=9;" parent="_jrqCxRGhFaNpr7jHIZG-1" connectable="0" vertex="1">
          <mxGeometry x="639.82" y="504.80999999999995" width="46" height="43.30000000000001" as="geometry" />
        </mxCell>
        <mxCell id="8pNeZ0TAll2XmvHGHXgd-147" value="" style="image;aspect=fixed;html=1;points=[];align=center;fontSize=9;image=img/lib/azure2/networking/Network_Interfaces.svg;" parent="8pNeZ0TAll2XmvHGHXgd-146" vertex="1">
          <mxGeometry x="6.100000000000023" width="29.8" height="26.3" as="geometry" />
        </mxCell>
        <mxCell id="8pNeZ0TAll2XmvHGHXgd-148" value="&lt;font&gt;Network&lt;br&gt;Interfaces&lt;/font&gt;" style="text;strokeColor=none;align=center;fillColor=none;html=1;verticalAlign=middle;whiteSpace=wrap;rounded=0;fontSize=9;" parent="8pNeZ0TAll2XmvHGHXgd-146" vertex="1">
          <mxGeometry y="33.30000000000001" width="46" height="10" as="geometry" />
        </mxCell>
        <mxCell id="8pNeZ0TAll2XmvHGHXgd-149" value="" style="group;fontSize=9;" parent="_jrqCxRGhFaNpr7jHIZG-1" connectable="0" vertex="1">
          <mxGeometry x="800" y="150.00000000000003" width="64" height="51" as="geometry" />
        </mxCell>
        <mxCell id="8pNeZ0TAll2XmvHGHXgd-150" value="" style="image;aspect=fixed;html=1;points=[];align=center;fontSize=9;image=img/lib/azure2/management_governance/Log_Analytics_Workspaces.svg;" parent="8pNeZ0TAll2XmvHGHXgd-149" vertex="1">
          <mxGeometry x="17.599999999999998" width="29.264367816091955" height="29.264367816091955" as="geometry" />
        </mxCell>
        <mxCell id="8pNeZ0TAll2XmvHGHXgd-151" value="&lt;span&gt;Logs&amp;nbsp;&lt;/span&gt;&lt;div&gt;&lt;span&gt;Analitics&lt;/span&gt;&lt;/div&gt;" style="text;strokeColor=none;align=center;fillColor=none;html=1;verticalAlign=middle;whiteSpace=wrap;rounded=0;fontSize=9;" parent="8pNeZ0TAll2XmvHGHXgd-149" vertex="1">
          <mxGeometry x="-4" y="27" width="64" height="21.74" as="geometry" />
        </mxCell>
        <mxCell id="8pNeZ0TAll2XmvHGHXgd-152" value="" style="group;fontSize=9;" parent="_jrqCxRGhFaNpr7jHIZG-1" connectable="0" vertex="1">
          <mxGeometry x="696.82" y="505.11" width="62.18" height="41.7" as="geometry" />
        </mxCell>
        <mxCell id="8pNeZ0TAll2XmvHGHXgd-153" value="" style="image;aspect=fixed;html=1;points=[];align=center;fontSize=9;image=img/lib/azure2/networking/Private_Link.svg;" parent="8pNeZ0TAll2XmvHGHXgd-152" vertex="1">
          <mxGeometry x="15.100857142857143" width="31.97828571428571" height="29.31342857142857" as="geometry" />
        </mxCell>
        <mxCell id="8pNeZ0TAll2XmvHGHXgd-154" value="&lt;span&gt;Private Link&lt;/span&gt;" style="text;strokeColor=none;align=center;fillColor=none;html=1;verticalAlign=middle;whiteSpace=wrap;rounded=0;fontSize=9;" parent="8pNeZ0TAll2XmvHGHXgd-152" vertex="1">
          <mxGeometry x="-0.8882857142857142" y="34.91162790697675" width="62.18" height="9.697674418604652" as="geometry" />
        </mxCell>
        <mxCell id="8pNeZ0TAll2XmvHGHXgd-155" value="" style="group;fontSize=9;" parent="_jrqCxRGhFaNpr7jHIZG-1" connectable="0" vertex="1">
          <mxGeometry x="683" y="190" width="90" height="47" as="geometry" />
        </mxCell>
        <mxCell id="8pNeZ0TAll2XmvHGHXgd-156" value="" style="image;aspect=fixed;html=1;points=[];align=center;fontSize=9;image=img/lib/azure2/app_services/API_Management_Services.svg;" parent="8pNeZ0TAll2XmvHGHXgd-155" vertex="1">
          <mxGeometry x="24" width="36.83" height="34" as="geometry" />
        </mxCell>
        <mxCell id="8pNeZ0TAll2XmvHGHXgd-157" value="&lt;font&gt;Api&amp;nbsp;&lt;/font&gt;&lt;div&gt;&lt;font&gt;Managment&lt;/font&gt;&lt;/div&gt;" style="text;strokeColor=none;align=center;fillColor=none;html=1;verticalAlign=middle;whiteSpace=wrap;rounded=0;fontSize=9;" parent="8pNeZ0TAll2XmvHGHXgd-155" vertex="1">
          <mxGeometry x="20" y="37" width="50" height="10" as="geometry" />
        </mxCell>
        <mxCell id="8pNeZ0TAll2XmvHGHXgd-158" style="edgeStyle=orthogonalEdgeStyle;rounded=0;orthogonalLoop=1;jettySize=auto;html=1;entryX=0.917;entryY=0.572;entryDx=0;entryDy=0;entryPerimeter=0;strokeColor=#B6B6B6;fontSize=9;" parent="_jrqCxRGhFaNpr7jHIZG-1" source="8pNeZ0TAll2XmvHGHXgd-153" target="8pNeZ0TAll2XmvHGHXgd-147" edge="1">
          <mxGeometry relative="1" as="geometry" />
        </mxCell>
        <mxCell id="8pNeZ0TAll2XmvHGHXgd-163" value="" style="group;fontSize=9;" parent="_jrqCxRGhFaNpr7jHIZG-1" vertex="1" connectable="0">
          <mxGeometry x="767.82" y="443" width="32.5" height="55.04" as="geometry" />
        </mxCell>
        <mxCell id="8pNeZ0TAll2XmvHGHXgd-164" value="&lt;span&gt;Microsoft&lt;br&gt;Fabric&lt;/span&gt;" style="text;strokeColor=none;align=center;fillColor=none;html=1;verticalAlign=middle;whiteSpace=wrap;rounded=0;fontSize=9;" parent="8pNeZ0TAll2XmvHGHXgd-163" vertex="1">
          <mxGeometry y="28.38" width="30.833333333333336" height="26.66" as="geometry" />
        </mxCell>
        <mxCell id="8pNeZ0TAll2XmvHGHXgd-165" value="" style="shape=image;verticalLabelPosition=bottom;labelBackgroundColor=default;verticalAlign=top;aspect=fixed;imageAspect=0;image=data:image/png,iVBORw0KGgoAAAANSUhEUgAAAZAAAAGQCAYAAACAvzbMAAAAAXNSR0IArs4c6QAAAARnQU1BAACxjwv8YQUAAAAJcEhZcwAADsMAAA7DAcdvqGQAAABmZVhJZklJKgAIAAAAAQBphwQAAQAAABoAAAAAAAAAAwAAkAcABAAAADAyMzABoAMAAQAAAAEAAAAFoAQAAQAAAEQAAAAAAAAAAgABAAIABAAAAFI5OAACAAcABAAAADAxMDAAAAAAIvvHMbnUA7gAAP8zSURBVHhe7J0FfBzH1cAn0NRN87Vpm7ZhbhxmxiZpU0qbNtCwE8eOGWSBJVuSxcyMlhlkklEWM8syoyyyBXcnMgRKSeZ7b2bnFm5PZIhh3/7+3ru93T3J0s1fb97OLDHCCCOMMMIII4wwwggjjDDCCCOMMMIII4wwwggjjDDCCCOMMMIII4wwwggjjDDCCCOMMMIII4wwwggjjDDCCCOMMMIII4wwwggjjDDCCCOMMMIII4wwwggjjDDCCCOMMMIII4wwwggjjDDCCCOMMMIII4wwwggjjDDCCCOMMMIII4wwwggjjDDCCCOMMMIII4wwwggjjDDCCCOMMMIII4wwwggjjDDCCCOMMMIII4wwwggjjDDCCCOMMMIII4wwwggjjDDCCCOMMMIII4wwwggjjDDCCCOMMMIII4wwwggjjDDCCCOMMOJ0xSXApRL42AgjjDDCiHM5RIst+B4D3/4HEmfqS0ExGXIywggjjBhiiL/sdRtOIQ49pBCNrmCQuFSxKM9nf5He7TLgSuAqaf2jYXIFAF8fngaxnlfEML4HI4wwwoiLLgqKi0hRUREpLuTg43zYll1WRLaWFllf14LbC4pKSFEhUkaKCwB4XFBcQPJLAHg9vxiel5SSwmJ9iiXKCstJZT6nFB6XFFeQ8pJKUlVSxagurbFSUVxJyovKgBKytbKELNxVROIOFJHow4UksimfEdWSx4hpLSCxLQUkobWQkdhWxGktIQktxWTxPvja4Rz1hcWkpqCEVBYUw9dSyr4n9v0BhjyMMMIII+yEEIJSINhw5pZw7AlEwI8rIaXQAJfml7E1NsC5JZyBBIKgQEqLSkEenIqCUnZMVm0ZWbmtjKyrLyfr68rJhvoKWJeS9TUlJKu6kKyvLSArtueRuIM5JKg1+w6/9i13eHdu+sync0Oyn2k9UhFg2lAR1LWhNdS04SgSZt7cAESFmbKjQru2/iquOYes3J5DNlTmkPUVuWRTWT77frkIJYEYYYQRRhihH0IcSkoLikh5Pgcf6+3DKYCMIY+UF+SRCti3KreC1GbXkYqcOpILWUR2KRdIcXGxLoUlxaSglK9LINsphwa7rqCAbKkuIP4t+dfMMudeM+9I7js+LTmOPi3ZkX7N2XlBLZvyQpo3NEW0bjgZdmTtyeD21d8FdmTSwK6VNKhrOQ3rXEzDOxbTiK4ljOiuxTQWtsWZlnJgv7jOVTS2Y/V3YUdW53i3rsqZ07R6lPuhdZdH7dkCIsknRQWF8L1xERphhBFGGGEn9MSA0kAhIEIkemSXlpH0hhqSsqOGZNaUkU3lZSS7pI5sKt1GMquryHLIIjLrismqukKJfJJZm6diVX0usJWsasgha7dlk5yqbLJ0xybi1LXxmk+PZV0zrXv9Ow6mNY5ApGPXqjxX0+q8uZaVTZ6WFSfnWZad9DEv+S6gaxENMi2mYV0LaWRHBo3qSKcxnfMZsaZ0kEY6jTdlAAtpPAglsXMpjT+65LuQjiU5LqaFOVPNi0dN7lxx+ZyWNSRp5yayqnIrfB/5pLCwUPpfMsIII4wwwibUXVEcfI41DFyjRKpzkQIbFtRtI3/v6yUvf9lLZh3dRkIOlpCQAxVADQk5VEsCD1eSgNYC4nckh+HbtuVKn9bNV3o3b3rNu2XDa34tG30gm9gQ3LZ+g2/7un1+7Wv6o1pW9Ue0rPrGryuTzjNnUk/TcuoFeJuXMUAYDD/LYupv5gQCQZYlNAS2h5oX0XDTIhoB2zgLaRSIIxr2F8TAdsxMIkA8ISAWP9OiY3NNSwJnm1be5NS5hgQc3kSW1WwiW4u3nvYaiHwZgBFGGGHE+RzQOKIosK8fsw4EpYEF9NU1RZBVFJENFfi8QJewfdvJE//58pLf0JOXfNhfc+PsjpwbnduLnnU+Wvb2nKPlb89pL57oYs5xceze7OLUs8UT1gGzujcEOFjWLZnVnbXE2bK2xMO05uBc86qDjn0ru517l//Lw7L0X36dSzE7oEhgJyAJAsHH/DlkHQy+Pbh7GSPUoibcspyGdy+1EmlBJLGYMSth2cm/QDzFrpYlgeOOr7rcoSvr8oz69WRr4WZDIEYYYYQRugHtGIogt7SAlBcUQLbBr6BaXVNA4vcUQBYBkjhYQMIP5pGIQ/k2uB6tJn/+ov2S1/7VfOmU3q1Pz+1a/fTsrq3Orh35Kzw7sld4dm5umGva2D3HsqnbvXvzfwHK2Ug9ejfQeZZ18Nf/GupjgmyjZyWwHDKK5TSoaykNEUDWEaRDcPcKRpBEcO9KGgLnUBLWjSy3opVJtGUhTTYl05SuZJrUkf4vyGaOTTqxapSjJWvUkm2bSGERZCCnOQyBGGGEEXLgX6jYHkh/qSrHFCgDn7Nt4sFp/stWhDi9QAR7jP+MAn4ss2RbAVleV0CyKjkr4HHS7jzi05xHZrfn3S0xEaQwX6IKaHftzG2faSr915i+Hf/7pL+WQjZBPbqWUdeuDXRO5xbq2bmeenWuY2tPE8piI/Xq3kS9ezZRn97N1KdvI/XtyaIB5tXU37SK+lhWAstpoAkFwtfssRkEoUOwJdMqEUSWhiwMqzQE1gyEEwNZCAokrTOZpran0/DOhdTp2LLNkBFtXrRjI8kuz5F/mKfp52UIxAgjjOABjUp2SSHZUlpIcosK2dU7lbmckvxCVoTNB3B7ubQN991QVkhyivlr+UX5HGlfPKawMBf++t3CKeTFXAGeiyHVLgSsdoFXD+Xlk5LcfFKck8fWhfn8qqLSvEKyqbyIRO4vIh6tRcS7pQAkIePflMfwA3F4tOUQEARxNOXeLTERmO/cxaia3ZXbjsDjf82w5P9vpmUrdTWtpZCB0LmdKBKQRtc6Og+2Cbwg2/DpzmLSsNK7lvp2r2Z4WbhE/MxKICMBOQRYZNQZiNxtFdaj7KKSiTYrkOofSJxpMSuqJ3el05TOdMxAWNE90JK6ObhzweaUQ1lk+a5cPuBwGCPdhSCGuxhhhBEXW8DnHoWgFAiKAsHHQgpiOwoEhbPJKpBiUlhQKoGPi9m+RSCQosKtnAIuAAGeA8HH+J5ry/PJiirO8so8xooKCdi2tAa21xSS1VWFJH1HEXE7WnTdpO6i66aZCz5w6CqI5uQVOphyWiS+RGaZt34HUE4uAyRCQRrU2bSVzu5CtrCMw9WURed0gUBQHp2rQR5rGEwekGEgXpY1IJC1wGpdUCBCIkpQIAK1QCR5dC9mhANY21AWy5XCUImDXYkFdIFAOjMYCQBerRVlSvguqiP1u/iWdT/POJDHR7njiHVDIEYYcSEEftjO5AdOnH8I7wMZCIrAmk0A2KgLxDZEZBDK50X55aQot4GTVwliKLYKoiSvFCiHzKGYZQ96rC/NJ1E788jc/Vuvcj2w9Sq3xty/zG7OC3RuAdryNzseya9ybi86MPto0THIOo7NOVL0LYiDTrYU0BmmAjqrK4+CPDimHIlshiwPjrMlh+FiRrJBGoB5M3UzbaRu5vV0rmkd9QBU8mCZxxqFPOwLRODbnalCKQ/kTAkEH+OlvtGWRHbpb9KRrNCFhwoNgRhhxIUVQ2jYTynE+Yf2PkpJIEIoQiBKcWD2sb6cZwNIZmU5ySzfQTLLdpHMilqSWVVKMqvzgVwJeIz7KVhZLZPYkEdcmnLJZ0e3XjW2HejK/ctYc17gp935gZ/2Fm4e01dYNeZY0YFP+4uOje8pOgaZx7eTugvoVJAISmNIArFsYThbshlMHiAODpeHEAiXyMgFwruzFPKwDCwQdqXVCARilcggAll8EASCtSKjC8sII76nwOLjKRUglY35QAw19I4diIFDmVUgoqtJyAOzCcwWcI3yiNtdSPwaOd6HS4lnYz1xP9wA1JO5LeVkbttW4ta+irh1pV8+u2vh5bOPbnpxdlvhHJcjjEyno4ydju2FPdM68nvGm/P/C8Kg47oLKTymk8yFdIqpkE4zFYEoiuj43gI6rq+Aju8vpBN7C+kMSyGdCfvMgn05vHuKI0vDsTubwcWxmbr0bGHM7t5C3Syb6BzGBivuliyGp3mtCiEQq0jMqwZE1D+YPACUBmK92goIhefWIrl0RVVkzxIaBcR0q4m1qIm3LGIkmhfRJBOyQAK3LYBjkmmcGaRydH3dkkNFfJLG0yiQy8jlDOU2XIwwwgi9uMAFgrLAzAIzgmW1PEvA7AKf4+O1lYVkXQVfz28oJO4thWRqV+H9wF+nmIqnT+qqXDihq3bhBFN1zefm8s7Pu3M7x/Wv+ve44+l03PGF9LO+TfSznkIGZBUMyCwY+Bi3T+gtplN6S+hkSxETh0NXEXXsKqazTMWsu2pCTwGTxxSQDApkFghmJsgD0ZOHWiCbrQIR8uACkeVxtgQi5HG6BMIlAvIwz2frRMt8OCZRCKTFKpDLgcF/FVgopaC3GAIxwojhxGkXCH6axSdayVBDe5wWcf7BWw18FTMLlEPAoUICGQITxLwmjjeAmQa+5n+YX/0EDTwZ31N0P/DXCd0l0yebyxZONVUAZTXTTCWd8HrnNHPBv6eZ8yjWK2aADLSgIAQoCcTRXKLCwVJCZ3aX0GkgDQSzDmSGJZ+hlocsECEOrUBQHmdCIOIqLIEQh1Yg4nLdsyEQqQurhXVh4VVYg/8qWEMpBb3FEIgRRgwntPLAz4rArliUO2lRNu5KBg55T/wQy2gX/HCTS4AfAj8G/g+O+gkcKPg/CSyu/piwLCNxZyGZ0VF4E2QFN31uKfxkkrkwfoqpMB6yjJLpnYVt8FobNPxfTTUXfQfi+G5cbxFF4DGdDI09iINlDrIwyqhDRxWns4TO6gRRAE4dMs7tEp3FHDiHVh4zu+FckHGIrAOxCsRiKw+ReYh6h5DHSAWirIFweQwsEKs0zBKSPM6cQCR5ACkmXKdJAkkFgaw9vPhQLs9AcCzIEP8IUv4u6S2GQIwwYhhRUV7FqCyrImUVVaSguork1VSRwppqUlJdTSorqkkVUFNZI1NRB9trGeWVnLKKGhW4je8jH19VxSmvrGbg+7H3L60g1SUVpKaonFFbWE625ZeT+rwyUl1QQSoKyhl4P4rqvHI2KWD4nmLi3Fx09fS2/KsnteW9NbE1NwyZeiR/68y2gkOObYWHnNsKT7i2FH4Lj7+d2FVIP4OGGteTOrEOUcyYCg26AGUxCRp3BjTuCHY7Ya0CC9sy+Fwcx8UiwKunEJFRyJmFHnK2wTOOfOrQXcBwtORxunMYSmG4KIQhs4mhFYhH93oF69jochzzIaTha1nLsUpCoM40mDgkWegNFJQFIo37MAMWLJ6rx39oi+ixIAslWoEkWtKYOFK75tPkrlTYJ5bGmhNpXMeKgozDW7hAsH0fYRatlMRIFiOMuKhDyEMIpLBqEIGAPEYqEAE+R8T7VoE86ooqSGkpv7fEyu3lZG09UFtGVtVXkBWwLRNYVVtO1tSUk7QdZcTtSBn5rLv06g/6Cq/+Z1/BW+/2F4a921sQ9n5PwdYPewoOfdxTeOiT7sITn1oKvwVxfDseGvHP4S98pUAmASgNXUAcavjltYMhJCO6prQIaWjlIXCEc3D0BYLyQIQohi4QpTyGLxClPBCRadgVCMjhtAnEksIEktKZSuPMsXBcIo3qWlGQ2rKJX4VlCMQII85u4K8+opSHiirIEACRLVRI2UNVZR1DCERQUV7DKatjyK9xCaE46uH1bWU1ZHtJNdlZXE0aiqpITSkHH2+qqyBzTBWjPv2yYtSEExWvTukv957eW+k9vbtiw0xLxT5HU8U+566KPuBLB3PF/2A7ndxdbmWSpYxOMBcPip44pnSXaoAMRQUvcg+GnjSUDC4QSRwKeSgFIoShFYh4LjhdAgmAbUhQdyaDZR6AViDi+ekXSAoTCHZh4aj0BFM8jTCl4Nc2I+pIjiEQI4z4vgI/AFqBiOfY6At5sCxCkofIQKrKa0lJVS3Zsq2WrNtRS9Zur2FkNdQx1sM2wcbt1WQzvJYN5DQA9dUkr66abK2rIusbqkjW9iqyub6KpO2vIONPVox6/buKUX//tuLVN/9T6f3Ovyu93/uyYsPHJyv2fXKC0ffZsYovZ/RU/s/JXElnWTggFMaMLl6zmNrFu6hEpqHlnBeIQh4DFcv1EPI4GwKxRe6+Ou0C6cygCV3JNKJrAfU3b5gR1VZgCMQII3jgL+PZB7OGSsgKrPe0ljIJFERNmUwtSINRvo1RU1ZPsuvrSVxzPfHtqic+nXVWfDvqSEBHPQlqryfB7bUk9GgtCWuvIyEddXcEd9Z9GthV92lAV918P1Ndnbepts7TVNOJzDXXfO3YW0Nn9nOm9lfRCcdr6ZS+aupiqqazu6opZCQMyEYoZCJMGpCdMGaYy4FSqegto6xzaJlmgf0VnHWBWHJVoDyczYA0slxbMFd2U1np3mAFpSEK5shIBIITKIpCeRCTh1ogobBdTxxCHhEMfr8PIQ6lQJQDB7XiiLcsYHB5zLcKhNVA2jNobMf87yLbl34XdiT7ysTGEj755AjlgaGUwUgWI4w4R8K2cT8bCIHUlPDaxcZtNWTNjhopc+AZRnY9AFkFZxtjy7Z6smRfPfE21d85/Xj9Z9OO1SEJQOb0/roCh2P1bY799W0ufbVfA9/N7q/7zuVYHXUCHE7U0RknOdNPgCCO19CJJ2voNFi7Wuqoh6mOgkyoc3cVndlbCxlGNfVs52C2AdmHNePAbqxpwBRLOQMloCcKe5xLAsErrpg87AhEWfsQiExDTx7DFYgsD32BWOWhEEiYmaOWh75Aos04w+4wBdKdRFPMKTSjYwFNPbqQxnQsMkUdWWVKaiwgS3dVEfID+D02BGKEEeqG/Wwhso86EMjW2hoS3VpLPC21xNsCWURXHcscIo8CkFEw2hsYYe3bSGDnNjKnd9udTse2fQayQBKATKAAtrUhII2vUR4S1K1PZk4vrHtqqStIwqmP49pTz8DHmI0499RB41lL55iq6GxLFZ3RV8Uyk0n9lZCZVNJJvSCPHmUtpFSFEIL2uX204hDYykIPPWlw8hlMHN25VmwEYhWHbfbhYtmom3EoGVwgXBxWgYAc1NkHF4ddgaiyDpSH1GUlIcRhKxDeZcXFASKQkAXCxWEVCMs+sICeRFNNKXTx0QV0fttiGtW5xBTXus60ekcZya2qB3ng7/HIQymDgRYjjDgroWyexb0n9O4/YRvKI2VOZbGe53IAx0tcLa1x/ARy5eUkq4FnHVvqasjSPTVMHJAh/J/Tifrfzz5e/3v3vvowD04hPD7s3teAHAdx/M+tjwEy2MYafZdemdmwjQHSEOJAYbiDEBBPCXeQAyJEwuVRTx37IfPokwWC2YgTgAKZfKyKTjgG8gCJDCYQwcQejnb76RSIvjgEA8vDViBqeTh3b+QCUcjj/BSILI+hCSSFpnel0aVHFtC0IwvxSrCVkW2bV+IFF1XF9dLv+chD/rQMvBhhxOkJTJcVlFeVk8pKTlVFOakB6srLybbKSrKrqpocqKojB+u2kb07dpKdO3eS3QCud+7eDewle3Zydu3ZR3bu5eDjPbsPkL27DpD9O23Zt2M/Y+/2vYzdDXsYu7btVrETOLT/MMlp2U88Tu740biva++GRvkPc8113l6ddd6+HTVr/TprDwQAkGkcD+2s/5+/ueF/AZbt0BjsgAZiB/Xv3k59ezjevcg2K14giHkgC4TJgLGNAcJhaJ979DYwxPa53fUM7LpCXLpBGHAeR5ANgtJAZvVwZvZKWYhUC5nWU8awFYEsCSEPRm8xY3IPRwhimkWDRgBDkwR2UQkkYWjQk4YStUAkeQxTIJ5mRBosCNJQMmSBgBwQUfsYjkCiTIjevc5lceB0JIi+ODh8AOECmt65gC46ksqmdHc9tvZlr668l9fXVpKawupTbtxlRagXI4w4K8HlUQny4NSUc7ZVVpOdVbUgkG3kYO12sm+7Qh47dzNp7AP27+DrPbu5OFAg9fv3kdLDB0hJ0wFS3niAVBxSU3ZoP6Pk4F5SfGgvKTqwh1G4fzcj/8BuUnBwD6MQXl/SvpvM/O/OH73/Xf3dn31Z94fJx2q9Z/TWekMDvdbpWN0ByDQOuB9vOO7Xv+N/wd07/hdh2kFjTLtotHkXhec0oEfGDxp/JV6QMSiZ19PAEWLp3sYQz7UCcYNjEKVAhEQQpTiUYB0Emd5dxrBXy9ATiJDHhSYQd/MGSR7fj0Cw9sHlYSsQpTyGJZCuRTS1C7IPHAMCAvGxbHg5vLXo5U018HkrMgRixDkX+Mtji3qRX+Hi4APj2OA4ierqWlJbW08a6rdDNiALpAEyjx0gjMaG/aS5fj9b798O2QQIBCWCmQfKY2HvARJ38gBJ6z9AMvoOkHRYC1L79jOS+vaSpGP7SUL/3rvij+2dHde3B8mK6d+zE4nu222J6t75r8j+3f8K/WIvDfnXARr29SEa9uVBGvnVIRrxxUEa9tV+GvIlvAYEn9hNQ/v30JC+3VYCe3dR/z4F/ZCVAEIgvn0cZVaiRCuUkQukQsWMnnLGUASiQiMOG4HoSAE5ZYHY7baSpimRsBEIiEPgYlmvI5AsK3L2oSOQ7jUMLg5+cyhk6AJRjvfgV1yJwvmwBGLJYMgCma+CyyNNYj5NhmOwoB5jSf024eiC/y09sIlkNRSRgsoKUlpWJX0KRx7KT7VysQlNz4MVI4xQh1IPMnzBOXL4PDlirqaa8mrV5a54+StSW1UPAmkgddt2klrIOCr272UZQfbhPWRrI2QY+/aR6r37SeW+/aT8IGQTjZzKA/vJ5pa9JOrE3tFe/9k7KeirvZPCv9ibDgIog8Ye6QT+HQpAo/9d8Nf7vwv4ei9F/L/aQ/00zO2upcHHdlEQDV108jBN6d1PE/r207jjB2nsCZkokEnI8b006PgeGgD4Ht/NUMlDIRFDIPqcHoGoax+c9adJILI8RiYQWR6nWyBqefApTJJhX3wtpDvFEt+2eM+W7VtIRVkJKSsrAyrgs3lqIT7Z2sUm9OSBGGGEOvCX53I7XAGvylwG4HiIulJOfQlkHMUNZHtRA9lVsovsrNhLGmr3k6K9B8mSjgMkBjKJ0P59JASyhuje/SSx5wBJsUBG0QNZBGQU83sOksyj+8gKILpv7+jgE3snRfTvnQSP02P695Uh0PB3Av9OOHEI+Q4efyckEHN8P40FUShJOHaQxvXsZeKA96Hp3ftpUs8+GnVsH4Vz05jevTS6Gx737oPsYx/IYx/1AZHMO7mXep3YS/0gIwnslRES8etFiewYskCEOPQEwgrwkjiU8rg4BcJvCiWmLMFuK44sEGW3lVIeQxWI3mSJ1oGDGoFgtxVjxALhCHkIcQhEd5UApSFIMaXRdHM6jTelU//uVEtU69I9W7flkTo29U0ZAy9QOZVQSkO52ISePBAjjJDDnjzwnpkcLo9RDHLZKLJu13ayfN92smrvDrJu9y6yeccusrVhDyncvp8U7DhE8vYeJmtaD5PY/mbi89Whqz3+fegDxOvrQ+n+Xx0uD/nicHnoV41twV81WqJONp5c0N343QLz/u8wS0AhxPfzjCGp/6CK5OOHGDbbFSTBcal9sAZh4GP2HCSCzyNBIGHHQB4gFiGQEJCJP2z7PgWilMfFJhBHgMnDjkBcAbU8hicQ7L5SyuOsCkSTeQxVIPNNqTQR8O9OL49oXR64ZVsRCKSK1BWXMAyBGHFqcdp+kPhLIwQiC0MGh7wKcApQ4Korievx3Vd88s3uOz//z+47p3+592W3E/vf8+49+F5w96HpEd3N02O6W+bE9DbPiznZOi/iZEtwxJetayO/bF4b+0XLduBIzMlm5Hj8yZYvk060/GfBsWaKpH3RRFO/VJP8xWGadLKRJoI4BJCFMOJOyo+t245D9oFdVZCJoIyEkCCTsQokAp6H9fHsIxgIhKwEQZEw+lAaSr5fgQhxGAK5CARiTqHzzckgkGQUyMqwtpVvbm4okabagTVwqqGUhnKxCaU0lBhxnof0QxTNvwjtc7afdaN4oPyF4dkGZhjkUuDHwE9AFlcBP1bwIxCH4FdXknHf7P3xX+neP7xND/zhI3rAZ/w3h7Km/ftQlsu/Dh/y/LLlkN8XrSdCTrZ+E3PiyDeJJ9pAAEdoMpB2so2mnmhljxF8nH68lWacaKELT7bSBV/BY4n0r1tp2lfNKomoRAHy0CP65EFG1In9akAeKBDswgoDuaA4BEF9e60wkQwqEC6RkQhkDuyP8rhQBCLLQ18gA8njXBSIddp2SSADFdBHIhC8x/lAAmFTmFiSaTxIJKh7QWR06+qbNoJAcM624uoSUlJVdMqNuNwCqBebEMLQYsT5HSVlxaQUqCrm4OPy0mJSXVLCqCwvY2M1SuoqSFFdFVBDSmrqSHk1n1W2rqKBUV2zndRUbyc7yneSrTt3Eu+enfdO/XLXvU69O7zmmLenuJt3bPQ27zzgb9l9ILhn37HI3sb/BZ04/D+nrw7Qmf85SJ2/Pkjdvj5E533ZSP2ggQ883giNczONACnEHmujiSeO0qTjbVZZoECQ9C+5TDK+OMKRBJLxBWf+yRbIRmSSTjSpSDx+GCQiEwfvi8Se4MQcO8iIgkwEiTx2QAUKRIBZiEArFJGZYJcW4tu7m8MEsgPkwceJaIUhBg4KUBqIyDy0AnHqrmUIcTh04+W6amkoxSFEMVKs4tBiIwg+klyLVhSqyRFBEg7deQqUEySKSRLVzLZs5bBJE/kU7Wz+K6lo7t69keEBUmFYBwpy5oFkEDFliU93loQ835VKGPBYiSiaq6Uho5VGpGW5imgzn7KEF8/lgYKx3QsYcrFcCEMjDQVYSI/vTgHxpB+P6FriltK0jmzZXkxKqitJYV0xKaotNhpxI04tUBilpaWkoqQUBFJKymGNj2uLyxjVZSCOmkqyaUcNydxbR5bu38ZqFmt2bSfrd+wkG3btIlnInt1k4+7dJGf7brL00G7i+OXeez/6bve94/+9y2vyFztTZnyxa6PDF7sPOH2x98CcL/cf8/yq8X8+Xx3+nw80yv7HD9FgFAY05uHHDtPI/sM0tr+ZkdDfQhOPtYI8jkryUAvEKg6FQBAUB5J+opmRepKjJxAl54NAxMj1oQhETx7IOS8QKctQyoMLRHtL2rMjEOWEiUMSiLXL6vQJRDvOgwtEXx4ICiSmZz6cd+nx6I61bumHtzCBlFWXwh+BsAYMgRhxSoHywBsRIeUl5aSqCKkk1cVVQC1kIdtITl0DST+0kwR27CZzuvcSt569xKdrL/Hr3E88eg/eOrfv4K2+PY3JgZaDraHm/a3B5v1MDB7HD9B50Mh69x+gvtAII/79B1l2oRRGxPFmJo0YyDhijzfRuGOcRNjOAIHIXVUcWSBytsH4HgWilMi5KhAhDkMgF75AcH+cBiXcvD4/or1wTFpjOfwhWEzKq4tJXQVQXqrX2WSEEUONS7k8SiqtVBRVA7WQjTSQovIdZHPtbrJw7z4S2H6QzOo7+NMJXzT+9PMvG1NmHGtMcehv7JvyZROd/HUjdfiiibpAg+wGjaxn/34a1HuQhvYAfYdoWH8jF0UfSKP3EFtH9jbSqD4hjRYQRgtNON5KE6HRR5JAAkqU8rhYBcImTwR5GAIZRCAaeQxVIEIeIxWIcs6rc0Ugod2L4etY90lYV8HDyU2lLAOprCom9WWlDEMgRgwxeNFbzeWSOKpJOWQbSElJPdAAYtlFsmr3kPDm/cTVcog49DeRqcebfjr5eMtPp51oTXHqb05x62vp8+hpofN6OT69zdS/5zAN7DlEA0ESASCNYMgkQvqboHFtpmF9sAaZMIH0N9MoyCyiJIEwiZywLxAhDiyUI/NBHsjFIhCUBxcIh02cCLj0cZx7cOLEGpCHeu6ri04g7GZROjeMUgjEKg9AKQ0mDrOERiDKGggOGBQCUU6WKOShf7+PoQskxiSmbQeBWGsftvUPpUDwkl2GOYWB22J70mhQfyJ1agv7xLk54eGEIxtIdkMxm/2hsqqUYYQRQwy1OMTltkIeFUX1pLC0gayu20EW7dhBlu7YQ+L37yMu5oMPTDx++AGQR92M/qZvZ/W2fOvc10pngyxQHv6mFhpoboEPVgv1g21BvSCMniYmkKB+EAhkGaG9h7k8AJQHEtXXTGP6W60ZCDJQBmIIxBDIYALBq6+4PPQFglddKeUxdIGsBZTy0BeIVR4jFEi0eblKHmqBKEebD1UgKd8G9MV9m0JXX77kP5suXdS4muTXc4GUgzwQI4wYYtjKAy+5RXFUFTSQisIdZH31LuLXsovM6N5zz8zevcguh94D1Km3kc6BzMLDchg+ZIepV3cTyKOJZR1CHPNAAJ4nW6k3NNYBkF2E9bXQCHg9EoQSDfsKYrDbChBFcuy6Et1XAwuklXGuC0SIw1Yguxl+/bsYQhwCL5AHcu4KxPbSXURXHsj5KhBJHJw1kjyUAuHikAUiwwSiIw2O/qW78nTtvOtqRAJht6xNo6ldaoHEmdOPhPakH4k+sohk7lpLCmtzWPdVTUUpo6rSEIgRQww5/8A5qC5n04jgoL7NtTtZ1rG6bhdJ3befzOreTz76Yt89H3+5/57xJ/aDQA7BB68R/io7TH1Mh6lvF4DPuxtBIE3UG6TgDdmEBzTaHtCAe0Ej7c+6q0AekKEo5SEEEgcZSTwcYwjk1AUiJGJPIA7dF65AlPI4/QKRxn2cQYHguA8bgTB5DFUgkjxAGCiPVBM+TmLb8PVYy5IjYebMIwmNa8jW6mxSU1ZilQcW0PG2CdgmGGGEflxCSEFJDikqziFlRbmQZeST6sISUldUxeabyq3bTSJa9uCVVMS7t/FH7paDP3LsObR5eu/B75y6D3/nCtKYY4Fsw9IMH6YWhjeAWYc3yMGnt5X69bRCA9hGffphOzTsgcfaaDAIIQSe8y4rDhbMBUwisA/vumpixEEjjwiBKCWSAvvZEwiO+VBypgUSfvyACpRGiAKrOI7vYQhxIP7HZIF49+9QIQQixMHk0ddgFYcWvIGU9SZSKBGQByIEIkCBKCUydIHoC0OLrjyQMygQrTSUDCoQRdFcLpxLgwUlefiYERw0qL5l7fAEIg8YVBJmUd8wKtpaMOeoBGJRTtc+iEBAHkIg7PJdeK9w87r00K6t6cnNxSRnG2QcFeVsTBeC8qgrqzQEYsTAUVScR4qLckgFCKSgtJisrtlGltfvg/UBkrz7AJlh3nP/hyf3vPfpsT1fT+w78PWs7oPUtQuyiy6QRGcLnWduBYG0Uk+QBsIk0tOmEoh/bxv1h4wjqK8VxNEmgRLhdQ8EL9NFhERE3SMaGnEkBhp3JF4jEJTHuSwQpTwGEgjKYzgCQXkYAlELBAcPKuVxegSiJ48zIxCedWgEopCHLBB55PlAAmG1DyaPJJrehXceTKKp5gQmkCj4WsLMmx8J7Sh+JLmpkmRvw7pHJSkDcF0P8mgorTzlubCMuIADu6vK88tIRR5QWExW1NYTxyNd5OOeL8kE03EyyWQmn/U13f/psX3vfd637+upPQe+drQ0UjfTYeplauVY2kAcbXQeSAPh8oCMA+SBMHkALPOwyqMN/jJvBZrZ5bticGDksUPQGOOluygQnnnoCURI5HwUSNAxkAeiFcjxnQw/kAXi3d8gwQXi2bedce4KpFAXXXkg+JqK80UgXBwc9XTtviAJJo7uFVaGLJDuxYrsY6EVW4HwrquhCwTvea4nkNU0vCv7kciOkkfSGivJlgYuDwSL6NtLKsnOYkMgRtgN1MflpDyvggmksqCYLNjWQN7tPUGe/x+99C///vbS9776Mvvzkx2Hp0ND6wiNsVN/M53d3cS6rTDzOK0CAXkMJhDswhpIIEIehkAMgZx5gajnutKTRwCIYvgCkeWhFYjIPuJMenccVMtDTyAZaoH8K7ojhyQ1l5KleyvI1roKUlJZwQSCdwA1MhAjBgleMi8uLCGlhQWkuiCXLK2vJh/1dJPf/vu/l7755deXfnKsP3t6f8dhx+5maHxaqGtPK3W3AKYW1m3FJCLVPphAenntQ3RfMYH0tTBGKhCBvRqIEIhVHBIZJ9oY56tArLPwnncCUW8fXByCIQpEEsewBWLhkyeiPOaYAZAGh4sDwckSuTSUDCaQTJU8UBpKUBpKUB5hZtvLdVEe9gQi1z0WM3nEM/QmS+SX7Fph9Q8ukIxOLpB0Uxx7Lcqy9l9xbblk5d5SJo/iKpBHBZcIPmYygeeinbCH/laZ4cepn8GIMx74g+GX66JAtpYWkcz6QhJ6sJZ82t1x499PnrR8fOy4ZXJPN3Uyt1M3yDTmmNtAHEiLVSCIVSDSYEFDIIZAlJxLAnE1b+by0BGImG1XLY9hCESRdShRycOMdYehCwRn21XLY7EkDz2ByHcZHJJAzFn1yS25BGffLa4oI6XlHCGQwmq+tm3Q1ehvlRl+nPoZjDjjgT8YfuOmyrxqkllTS6abtz3zzhd7nxnXc/TfU7vMdLrZTB27uujcznbq2QHZRidkGIAnyAMRAhHF8+9LINrahxDHuSYQUTwXAwat4uiTpm/XiEMgiudDFYgQh0CIwxCIIRAUSFpXDLuBVKRpnWtycz7Zsq2EiQMlgqBARPZhZCBGsLD5kVwK//5wFHAV2VC+g8Tv2kXePbH/mT/8p/GZSZa2f88+cpS6dHYw3DtQIEe4PLq4QJQZiFIgQh6DC6SFycMQyMgFIiRiCOTcEwje50MwEoGgOASnTyBpjGRTIqudRHetd007XEi21uO9z7k8iiq5QFAcFRK2rYca/a0yw49TP4MRpzFEjaOiaCupLNzKxnpsrCwlsfvriG/TbuLXeJDMbWn62yRLyzfjetq+mQ6ScOo8Ah+6doar6Qh16zoCH7o2hrvliCQOLJ7z7itEiAMv22X0NjOEQHD0eRAQ3MfBS3iRoQpEWTxHkkEGiBCIKJrL4jjCEMKwiuN4M8MqDjg3kiKhFUbCsUYVsSALxCqO/gMM7cBB7ZQlgwnEH+SB+IEYEO0NpOb11qvw6Ku3DiKc2y0LQ9tlhagGEFoqGXgfEGSmRS0MmwZ/uOjKQQ87wpDuLGgPlIWjBZCEoQZE0a2cbVcNq39YxcHlwQYMaormKAqBPFUJR33ZrmKyxB6pUA4SEYVyMWGicuJErUDCLcs53dJgQZCIUhqxliVW4s1LaKJ5kQSfODGpO0MinZFsUdCdym4YlW5OpfO7FtKUDiy+pzMxRbdvunr+oQL4I5KQSy65hJDLBZeTSy4DLrlMhWjQ8cIbjnZRN/v20N86EEZ8r1EEAikqKiClJVtJWTFIpCCfrK0uJ55t28jE7r1vTutqenN6R9u3Dh1HKQMyjVkgDCEQFzM+BolY2hgoEMQQyPkhEJsR6BqBKOVxrgsEMw4mD12B8IxDPV37QALhmYdaHtqpSlAgsjyGKxCtRM66QIBUSyoIJJ0u6FwMAsGruRb2RHeu6Elr3kJW7QaBXGEIxAh7Ab8PuSW8SL61Ip/klRWSssJSsqqmmjh3bCcf9+9/c4ql5c0ZnUe/ndXVDuJAjgwokDnd55ZAxLTtQiBCHOeaQMSUJfZuXSvE4duzjSEEohWHwJ5AlJkHIsRhCOTiE0gqiAOzjwVd6XRxRwZNb4fMw7SwJ6ltRU/Wrk2kuKaAXAJtNBPIZYZAjNCGEEhJGcktKyUbKyrJsrpaErGvgUw37X71077934JAvgWBSPI4twUi5IG1D0MghkAMgagFopSHLBDIPkAgy9rhcXsGjTAvWx9/ZPX6zQ2bSUV5ntxEW9tskAWgFQdHyENPIuo97aG/dSCM+B7jUlJQVEaKCqpIZV4tWVXdQKZ17rnrn8f33TXRsv+/MzsPsi4r7LoSAsH6h7YGwuog5qMMVgMBoQiBePY0MXgRvYlJQ4l/XxNjUIFIU5ng9O3KKdytdx9UyEMMHEQuNIEIcQi8eupVnKpAhDjOmEC0DFEcAj1pKLEVB0cUzbUCQWlw+IBBlIe7GdnA4PJQF8oHE4i/GZCmbEdxCHkEKURhD5RHhAkAefDJEsV07foCQWkoQXkkmZAFFO93rpIGq3koQIGYMujCznS6/GgSTe9Ipb49y/4a2Lnur6t3bSZFVXlSOwFhbbO1AhGzc3Nwhm4Ol8hl8C8HkhgdlCpAbLdoUb+fEd9j4N8FpflVpKCgjmRV7CARe/eRd48duuvPXx2+a5L54H9djh6kszqGLpA5pqNMHsqrr2SB8Jl3z6RAlOM+DIEYAlEyFIHI8pAEYuEDB4cqEK081AIZhjzsCCRaNduurUASTUtU8lAJBORhTyCYgSzqjAOBJNOIzhV/jWvZ+NfVO7aQ3Op8qaVQxsANuiGQiyhwWvba7BqSVbadzG7bN2pMz+FRE01tx6d1th2f1dlEnTqaQCAtLAtxBDkgzl2AqY11W7GuK8w8RPeVue00CITfROr7EogQx3AFYr1895QFwsWhFYi4bFcrECEMJSiPkQuEX7YrOO0CsRGGFn1xCE5ZIJI4ZIHI05VwgfDMQy0Q+XLdQQWiuWHUsAUiiYOz2Jp56GUfTCCWRVa02cdgAsHuK7z6CteJPTE0rTPxmzX7Mkl2fTbJqckl+VVDEYgSLg0Z5aJ/hBb9rQNhxBkN+cfHQ/6vx3+vILlFdSSlYScZ03Noyt++aJ4yvePov+c2H/23S3sLRYkoBSLkoRKIJA+rQDTjP86kQPi9QAyB6MnDEMjgAlF2XdkIRBr38f0JBMd8KAWinO9qIIGAPIYpkFRzBo3qS6BpHek9eQ1rSVV5DimqyCeFlYXYZGhCbkH00JcHLnp726K/dSCMOGOBP7aS3EpGYUExKSwsJKX5+aQ0r5BNkrihrIbE7NlBXFv3kc8tTfWfdbfVz2wHQRwBQYBAMANx6mplXVZWcXQhLUwYKnmoiufS5InS6HNW/+hrpuye55IwlOLAe58HQuMs7n+OhEHjjEQcb2Xgvc/F/c/FTaSQxOPNDJSHnkCEOAQZX4A0FIgBg/YGDgpxIMqBgwknOEIcAiEOJo/jejeQ2ssI7d/DCD7GCerfzbCKAy/ZBYQ4BOKyXeXlu0ppWOUB6A0edOmpUuHUU6FicIHgbWiHwnDFwdEODLRhyALRv2mULA4OL5jLaAWiHTDIbhJlHSwoTdfOCuYclUBAGLz2oRSIZpJEBVg0H1wg0my7ElwefMJELJyrBZI2oEB4F9ZCmgzvE9uzlKa1Zh7K3raZlFUUkOJKpEhqSSBEe32JhDWUjbkt+ltlhh+nfgYjhhyXk8L8alKUB+QXk6ICLhCUyYbyKpKyfRtxbdtDJpgPzJkCUpgGmQYKxPFoCxMI4typFQhsH1QgsjgGFQjIY6gCwcxDKY+zKRDtyPPBBCJGnp9pgejJAzEEMtgta4cvEJZxKOTBBKKQhywQeeT5mReImG1XIRBJHkMWiGk5jTWtpqnNWVGbt+WQ0ooiJo/iihKpHYEQ7bUhkIspLiU5RZUkt7CclIBAUB4okbUVpSR8Xw2Z3bqTTOvcRyaaDjGBTJcK5k4gkdkdrQwUCMK7rFqpK6MZPnwokRYQR6sVnIn3lAVyrJHxfQlEiGO4Aom1M3XJsAUC0mADBjUCEdO3ozQ8+2X0xCEYkUB6SlWceYFouqj0pKFkxAKRZ9vVdludXoHwrquRC4SLg7OQiUMQbZHEId3rQ32/D0kgUtfV4AJJZgJJhfOhQKI7V9OUw+ujNtVv5QIBeagEgtLA9tpGIEZcuHHJpWRLSSnJLi61Zh+4XllVTjyatpHxpt03TjAdunFi1+FvlAKZBTh3HNEIhIPyGFggvPZhCOTMCEQpD0MgIxGILI9zWyB8wkSrQLpx6na1PIYrEFX2IQRiWkyTulbQqPbVNLlxwx2b6/NAIFwehkAu9oAfdHZJIckpLiSFhbmQhWD9o5isrqgk8w7vJBM6D+4CeQDNdEpXm41AGJJAeOZhKxB2/w8FtgKRCugokL7DdgWC8tAXCK992BXIsVZG0vE2BpMHbBeTJ547AtnHGFQgffpdWOePQDTiEOjKAxmeQLTCmGnZqgLloZSGAOXhYtmoIw0+YFCA8vA0Z0msZeIQ8tDWP+wJJMAMWKSJE5lEuDyCu/WloQTlEQWNupgsEbutOPYFwgYNSqA8UkxIGoNnGYAkjnQzzn0l4AJJ7Fj5ReTRNV+kNG4mm+sLJIHwCRStoRSIERdJwA87pzif5JTkkvziraQIJFKeiwKpJu5Ne8k4U+OuCabmXZNBEFj/OKMC6T88bIHg1VdCHkMRSAqA8jAEcnEKZJZ5q648uEA2wu/tRkka+gLRykMtkDWDCgTrH0weugJZNqhAsPbB5TE0geCsuSp5mBZI8hi6QFK6FtH4o8uGJhBDHhdZwA88u3QrsIXkokAK8kEgpWRlRT2Z1bb/rfd7muh4Uyu9kAQixGEIxBCIIZABBGJJhHUqTe5cTOPalpdGHllXmtKYDQIpUt3/wxqGQC7CYALZQrLLNrEMBLuzMisrSfTOBjK542CPEMiUjlYmD7wCC+VhCMQQyMUhEFkeZ1MgSmkoGapAUByCkQoE732eYk6hcZ0LaURH5qSgjvWT4ptyyCYdgVivdTIEcpEF/MBzS7aAPDaRwqKtZHlNMXFrqSZjLTux+6pnQpdt9uHUidOVtFOXrqMSfOzHbAtHiEMUzuf2tFnxwLEfEt59razuIfDtb2IIYQSBUBAmDmiAQ6AxRpS1DyT6RAtDjDxPONHMUM59hYip27Xi0ApDHkAIrwFCHNbLd0EWyoGDyfC1IkIcQhgCIQyBVhgR/XtVCHGE9O1mCHEE9u5iyAMHOd692xnisl3twEExWFCLUhyu3fLAQedutTBmdZermNldokIriKnmIhW6skB0ZWHLDIs9NPJQFc1lachFc45WIPLAQVE010ije6MVvPeHsmiO8Pt9yPf8EKIQBMA264SJQJAVXjgP6VkpsZyGdcuTIiL4WAluw+lKGJI4YrqXSCyisRY+5kMpDSVqgXDUAlHIoyuexpmSaWj3YvyeJs2zbJwU1pJL1km3sEWwKwtDTyC4zbrdiAs3Cou2MLD7amFdKfnUUj/h9S/2ThhraqLT2kEeAMrjexMINMKGQM6eQJTyOD8FIstj5ALJsjIcgahHmguBqBmOQLQSOSsCsSSqBBJmWfxdkGntqJCjm0clHswnm+vw3ucVhkCM4IGZB16BhYMHM+oryXjzTsvfTxy0YPYx88gRlTwuBIEIcRgCMQRiCGQAgZhiaFJnIo3rWNaZ2ryWZO7OJtk1+aSirIxUl1Sw29jaCEQRhkAugsAfcFkRv4wXx35E7Kklk037LB92N1mmtLeDQID2o+eMQIQ8sPZhCMQQyHAF4mxRCwQv3VUJpFstj4tNIKJ4rhRIbOeyzvmHs8jWumxSVVJI6ooqSG1RlSGQizfEj5ZPYVZZWEayQB4+zbVkumXPH2Z2NLLMw7HNTB2OmJlAsHiuFQibOBGRpjCRpy1RCwSlocRGICAJhAukUSUPRFk0F/LASRNF4Tz6RBND3DiKyQPEIsRx3gjk2G6GjUCkSRQDe/cw/Hp3M85bgehIYiD05YHYFwgWywXaAYM4XQkf88EL55h1WNERiJgsUZ40UXnTqDVMHEIe2vqHPYEEw/ZgC795FIpDyCOsRxaFPVAeMSZ52nb5hlH6AkFpKGHS6JLBS3U5XCDzzYk03RRH07piaJwpkfp3L1ka1baO4Aj0yqIiUlNUTiqKK0lJWTkpKi9lLYoy5NZFyfe3GHHaQ/xYca78K8jm8koyf992Mr13L96i9g8zjzZTt5YO6tzaDRLpprPau6zyOG0C6eUjz9UCaaT+gFIeWoEIedgTCJt1F+RhCOTiFAgW0JXy0BWIQh4qgYA8BhOIVh4qgYAYBhOIVh4qgQxHHnYEwmfctS+QFEApD32BxKsEEmBZBgJZTzbV5ZLyohImj/KSSlJYXk4KK4YikO93MeI0hfxfKX60IJAfjiJhO8qJb89BMv2rFvJ+554GlIQLZB5Obf3U6UivjUDEjaOGLpAWFeeuQFoZC2E/REzffrYEEgbyQFAeyst2L7guLB1JDMSA4pCyDpvsw7LFyrknEJDHqQhEEgdnoTXz0Ms+mECsU5dIXVZMHGlWhEBEFxYKZL4llqZ2RtKk9gQcRPh8xsGNZEttPikpKWHyKCmtJDlV5YAhkIsilD9Q/i/PPsiPriQu+yqJw1fNo6Z93T7qvZZd307rBFEc6WLZB3ZhOXScZoFI4z8MgegLRDvuwxCIHYFo5DGjm9c8lPIYTCA47kMpEJsC+jktkIVqgXTL813ZEwiXiCwPZL4pnaHMQJD4juj/pBxN+c+iQyvJuh3ZJL+ykJQVl1kFkltZDtgTyLmzGHEqcQkhxUV5jNLCAlJcWASUkOKCMlKaX0Eyq+qI04E6MvVk66ipJ46M+qT90LeTO47QGUfamUQQXkQ/SmeAWJBZXUcY7AZSkjzk6dtBHGbA0kTdu5sZXBxNVlQCARHg4EFkpAIRtY/hC4SLQYjj9AnkoIqY4/tVCHGEH+eIgYOCoQtEGkAo3TjqwhHIwAMHZ5olVIMFbbMPRzNHiEMrEJSHeuAgF4iYJNF2skR9gbDah1T/4AKRBgpKyAVzjlogy3jtQ1X/kGfX1cKK5oMJxDJfRbIlQ54wEbAWzaXMYyFkJch8C8ikO4V1X83vTqJRppT/pB5Z9h9yNbQjPyTkB5ddAqvL4c/OH7A7lSpVgbekFQu/Pe3lEuL54KiPHz72FiNOJRQCKWYCKSClBUUgD/hLIq+KrK7cRpwbd5KJx1vdpvS1u409ephOam+hU4+00RlHQSQAykNXIGZZHlwgUuYB8lALRJaHLBA+8twQiCEQW0YmEGvd43sUCMs4FPLgAlGjlMfZEYgsj6EIJKMrjqbBOtCUtjOhLXMnuYqQK6EduRKa6R+BFEaBQK6A9Q+gcUa0Dbgsj+FJRD5+ZNhbjDiFwP++0sIcII8UFRUwyvOLSEVeGanKqSJrKrYT18a9ZGJf257JvUf3jD/axAVytAXk0crAS3jZSPQuLpCZpiOMgQXSCPI4zLAViDx1yTklkC+bGQu/4GScbGKcLYGEHOdoBRJ4bCfDOo17bwPjohWIShzy5bo2tQ+rQOTpSsSlu9+rQKSuq5ELhIuDAdkFikMQbxVHmhUbgbDxHjJMHBIZlhS6oDOBCcTHkuYT1b7aBwUy6pLLgCusGcgPYG0I5GII+MuhqBjkgSgEUlRYRjaV1bB7nTs07yUTeo/smdjTbgjEEMh5JBBZHkwgCnnYE4gsjwtAINKEibJA5ksCkeUxVIFkmLk85puTIQNJYPt5Wxb5RLRn+ZAfYw/W5VaGLxAl8v5a5ONHhr3FiFMJEEhuaR4D5SHqIOsqy0jYvjri1LabfN5xgHze0/bfCZaj//28vZnPfdXeysZ+IGIk+vC6sAYWiDeshTgEKA8hkGB4LhiqQFAeegKxfwOp80QgEtZJFM+YQPQnTzzfBCLEIRDSUMrDzYRsZOgJRJ4wUV8gPmZEmixREoi1aD4EgYRaEGniREkgKA89gaA0lKA84kyANFkidltxhi8QLJwvNKfQxSbAnEQXmBJpsimeCcnftOrXsa05vyY/kgVyBTTVKBBE1gLXyWUS4rkacQZ+rPp4jli027Xwr8F2u7zIXwtixKkECDi7PI9sLVMLZEVNGXFr3UY+tey9fayp8XefQ8M/EWQwoaPljArEE0B52BNIYF+jSh6GQAyBnE6ByPLQF4h6tl1bgXiZ10vyGJlAsP7B5TEygWDtg8njdAsE5LHYnMAK6PGWxH6QVH9s2wayaH8JIT+4xNpoj0wgQh4cQyDnU0AGgvJA8kuwC6uISSQTBDKnZRsZCwIZbz78u/GmZopzX00EeRgCMQRiCOTiEAiChXO86mp+dwJN7omn0T2J/QkdC/tX7csleXWV8EeotrEWYlBvF4t6u61Ahnf80JEXQyCnL6xdWAUkt6SIFBTLAnFr2U7Gmve/AwLJnAACEfLAe38MRyDOJqVAuDzOFYEIeQiBqO//8f0KREhECERIxBDI6ROIs+n8FIhSGkqGKhBxv3PVPc9RHnj1lUYgWDBn9CTRhN5kGtaXnJ3Qvix7y458UllRzZpkdWM9XAEoJSKOHc7xQ0NeDIGcvkCB4C1rGYUkv7CQXcqLXVgzmmrJmN4D4z+3NNVOAglMAhngfc+ndbbQ6YBDZxtjBmxDrMVz01G1PMyt8OEUN5CSsg9zI5OFEjH+w6e3mSEmT1TeOIoVzWGbEhQHkwc03jh5ohCHmEQxDrYjYhJFIQ6RcWinbxdTlYjLda1I4pjPpNEEsjisIvV4IyP5+CEriUDCsYNWUBixx/ariAJRKIns28uwDiDs28MQU5gIcVgF0rdDxWACsbmBlEYcQhpuPdXUtbfaKg5ZHmUgilIryptHCWnMMBdb0QpkaMJQS2IgbARivYSXi0MMFOSoi+WIG0jFOljQKguFNJSTJUqDBcVEiYhXd5YVnDTR14JwaWDhnN/vQ6AZLCiwFs7V8sB7bQhxKOUhLtVlj62TJfIpS+LNgIWPOkcSejKsJHXrZxlKxIBBAWYgad1pAAgIzuHXkxwU27kiKHdPKWmo22ktRovFftFajAxRIvYXzfxwj7fF/vH6ixGnGPlF+SSXzbhbDOtikl+QS5bVlJLZXfvIP7v2OINAzFMgg+DygGxjMIGAPLhAWrhAQB5cICiPJiaP70sgmHkoM44zKRCUh1IgIuM4XwSC8lAKxLn3bAlEXxT20BWIQiIDyYMLRJaHWiBS0VwIpEeMNpfloS8QWR5qgQwuDy4QWR5qgchdVkIgDD2BKCQiCySdC6RbXxwCpTyEQNj4D0sKCGQxdWhb/q5Pc9672Ttryc76XYqmmC/DFYDYX4vton+8FvvH6y9GnGJoBZKXn0MW1xQTny+PjPpbS70fCOQ7FAjKwxCIIRBDIBeXQNJ7k2lGdwJdbIqkid2Z34bQf10a/hW9NGf/UVJfuR2aYPWoc9tF3cBruUyD8kj1YnusPsNbjDjF0AokJy+XLKoqIaHf9I36w4EqEEjLkAUiah+GQAyBGAK5cASCBfQMcxhNtqz+NuzEV5fGd9JL83d1koaq3dAEywLRb76Vr9piCOQ8D6x7MHEUlZLcQiC/gCyuriAOR/bO+LC7aSsW0FnhXCMQIQ4hElE857WPUxOIHyDEMVSBoDzsCUTUPwyBnIpAuDy0hfPTLxDB0IShBeUxi8GnLxECQXkMVSDuZoQXzfEmUQyQh55A+M2iZFAe/mZF0VwSCJ/zamgCCTMDIApECATloScQPlW7DMoj0QSY+dTtSd1Y+7Bf/+A1DyVagaSCdBJpXHcMjW7NaF56sJ5s3H6YVFTtIdvKG6AJ1heICPmVoaI+frghzmM/5HcabE8jhhD5hVLmIQkkL7+MLK6qAYHsrwKBtOPlu2dLIN49LUwep0sgyjsQGgK58AWilcdwBSLLY2QCwQI6k8cIBYIFdCYPOwKxyT40AtHKQykQ65VWwxRIRk8qTepJpqG98TSqLT1p4958UlFTS2qr6kldhSGQiz7UAikn+QWVZEl1PQjkIAikpR0v38XLdsXluvYF0spQCcTcxOThYjksCYTLQy0QfNwIAuGX73KBHObikEafI1wgh6yX7Sov3z29AtGIQ3CWBCLEweRxTL6FLaK8fFcgpjCxN5WJEAfi2W8rELxcV8npF4gOusLQMlKBoDxORSBcHMMXCO+6shUIhwvEVhpKTotAmDxOj0Bw6pIl0qW9AX1xNKRzftK6A7mkaFs1SKSeVFc1QAsyNIGIkPdUb5fD/itGnGuBl/GCPBiQfawvKyfz66tJwP4dZGp745efmlr+KwYODk8gXB5cIIcZbt3S+I9BBXKYC0QhDy6QQxeVQMTYD6U8TkUgKI9zQiC6stBjePJAhisQVxz3cQoCYdOWDFkg0lgPHXEIzjWBpHclsZHoiaZkGtCbRMM6Fjy8et8WUlhXSkpqykl5VSU0IkodGAK5uEIhkMKCYrKwrpx8aqkf/ZeTe0Z/Co3/5KNtTB5MIJI4ZIFwhDhE8ZyN+5DGfoiuK5Z99EgDB7sPMcSkiYy+RuvEicouKyXB0DgjQhg4aBAR4hCI2gfKQykQlAcXCB/gl3qymSEGAIoBgVphaDlVgWgHDqI0lIMHT6dAvPv1BFKrYk5fjQoc/yHGgKgFIg8iPCWBDILtDaIEkiRYcdw+KoFYlNO1C4HwSRLVkyXygjkrmgt5SJMlCnFwZHHYTJYoIcTBQWnI8hAC4WM99NEKRL5hlBCIYrZdwDpdOyuaC3lIArGI+32MTCAp5iSa2J0A75v4dah5/teJrcvJxp0bQB45pKIKqCyQmnv7y9kPQ0BnLySBYDdWSX4xSdtWSf7yRcPop77ZN/ojaPRntEGWcfQMCwTkcTELRCkPQyCnSyDyyHOlQHjWoRWILI+BBaKUx1AEkikJRCEPeK4nDSWnRyDyfT9ORSCJ5kQa0xNPwy0JX0d0Lfo67fAqkr1tIymr3Azy2EgqKrKl5tr+cvbDEMjZC0kghQWlpDS3lCypqSQfW3bF//GLA/FjTSgQkMSQBdLCUAuE1z5Y9xUKpIfLw6P7gFUcNgKxdlmhOA5Z4QI5CPI4xAiHbchpF4iONJScaYEIcSDKqUuYPI7vsU5dYp3CZBCBCHEweRzbRt37a1WccYHodk8pOO0C4V1XIxaIJI5hCwQyDURfICsY+tmHdNmuxKkLhHddnQ6BJFmS4D1RIEnVEV1LqtOb1oJANoNAskEeIJGKHKm5lhftQD65QZeANkfFaQ/xXkachbiU1T7yARTIsupqMql9T9ObfYebcObdEQtEkoeofXCBHJIEcmCIApHlwQVycFCBiNrHhSAQm8kTQR6nIhCUx4UuEGXtwxCIrUD05roaXCCJNNycNiuic8Ws9MMbyJa6LaS0PJeUl20FcqXmWl4MgVxUcSnJLi4nOUXlpDC/nCypriVTjh5o+md3axPWP2a1CoE0S+JossIF0kRnmZoZVoFIXVdagaA89ATi3ctBeZyKQETxXIhDKRAhjzMpkJQTjYyLTiAKZlrKTl0g4tghCkSueXAcQR4cacLEEQhEf7JEWSB6kyUqBRJgRpSTJQ5PIBGMxYzBBMIHDMoIgSSZ5zOEQOTb1GqFwW9dKz9XCiSFRsPavzVpVkDTEhDIFrKlNpeUlhWCPPIZCjXYwEN/68hDez57GHEW4lImj00llWRteSVJ2F5Pph459M3HXUe+wfueO6BAQB5cILI8uEA457JA4o61qORhCMQQyEACwdqHUh5agcjy0BeILI+RCUSWxzkkEFM6DWhN/0nA4RU/SW/MIZuqC0hJaREpKylg6DXdiBz2XxlZaM9nDyPOQlxKivIqybqyahK3u4Z4NG0n0442fjOho+2bKe1H2ABCnnnIXVaCmeZmxvkuECEOMW27njSUGALRFwiThyGQ804g2u049gNhAjGngUAWgkAW/iSwaRUIJI9sqSkmpaWlpLwEKC2W2hE5bJtvZaOufmVkoT2fPYw4A6H8D8YBQFcwgWRWVBPvphoytXP7W1PbG+mk9jZ2AylETN+uFkjTWRUIjv9AeYRAQ6yUx3AFkgyvKwWizDwuJIEIeSgFIiRiCESWB7/fxxkUCAhCyONMCATv+6GWx/AEgjUQZXFdFkgiXWBKpqld82ls5zJz+OGVJH7/erJiTxHJri4lJWXlTCKINmybb2Wbo35lZKE9nz2MOM2B/6lcGoSMAq5k5BfWkaU1dcSttY6Ms+zcNL6rkY4DSYy1tNLPzK0UJ1JU1jwcGIdAGocZQhxO3c0MlIcriEV59RWHC8Sz5yBDCMQqEjtFdJQHH0DIBYLSiFQQdfywCnEDKdviOR9AqO2yyjjBsXf5rnzjKLU4hDC04hDCENIY6sBBgb3Ldq3C6OM3jhKgLJRopy4RN44SAwfde2tUCGFYxQGCQFwknLvLGHwQIYdNomgpYaAwBEpxCHSlocBWFEq4NKx0C3HIN4py7M5R4WzJoS7mbA4IY3b3FgViwKAsDeUgQQRlwYvkkjCsAwX1BwuKqUo4YroSgRg4uMyKEIUg3CLfLIoPGFxKo80SKAzVZImiWC5uErWAJnQvZCRZOMkgFiENa+FcoCiei204RxYH57yCzMMSTxeY4+nSjmS66Cic/8iK1akH1pGNtXmkpLKC5FeUM4rKy0EktgIZdpzxoro6DM2MKPTkcRX8wH5CMqvqSMzubWRaxzbyUc/uTeNMjXQ8ZBxcIM10ikld80B52BOIkMeZEkhY/0GVPM5lgYiMwxCIvjgE+uJAbOXBBSLLQysQrTzUArGVBxPIAPJQC8RWHmqB6MhDIxCtPJhABpCHUiBaeYhMw0YgCnmoBKKUhyQQfB3lkYDzXVkFkkgXdiWCQFJBIIto8pHVqxfu20BKyvPJtpIKln0UMnlgFlIO7cgphiGQ8yHsCOSKn5CwfduIQ/s2MqZvB/mgf0/vxK7DrGjObyIF2YeJd1vJXVZCHE0S57dAhDgWfXGEYQhkZALRkweiJw0l+vJADIGcSYHgtO4oDUZPMpeHOZUu6EqlCzvT6YL2BTStbRlNblv72qIDG0lRdQ6pKy0hZWVlQAWpLeawRvhUBKA8diTHDzOU8mBfuxFDCfyv0hHIj35CnNu2k/f7t1/99sldV78PDdrkzsN05lGQRYe69mFfIBy1QJTjPwyBGAKxj748EEMgQxGIEAeTh6b7alCBgDiEPLD2weWRQRd0LqYp7Uv/l9K67H8Zh9aQ1bs3kuKqbFJdWkAqQCAVpRWkGrIRhMVZFMCphFYeiBFDCvyv0hHIj68mk7p2kte/3H31P77Yc/X7/Qe4QI60UsejLdShHW8cpSyac3nYCMTSCALhRXOUx0gEgvKwJ5DgYQok7tjZF4i9orkhEH1xCPTlgdgXiHWwIBbLhygQlIcQiHW6EuBcEQgvlNsKRJ4sURaIkIcQCBOHRKo5Q0IhD6tAklXgfT6SehJpKqyx22pZZxpd1rGIZrSDtDqW/C+xacX/1u5cS4pqNpPqshxSi5fugkCKKyqsqOShI5DBG2p50OHAi3yuU0EMdBQYMaTA/yh9gUww7Savf7HX/e0T+9w/6j1E8QZSOHgQBeJ4lBfNuUBALHoCAXmcKYEIeQxVIDHHDjN5GAK5MAXCr7oauUB0Z9s9kwJh8jh9AlFepitQysOuQLTy6ObSSO2Op8k98axwvrQznq5qT6HLOxbQ9I4lNKxz6b64ppX7NtWtI1WlW0hNSS6pKilkGUhp+ekTiFIRAy/yuU4FQyAjCvyP0hHIlVcT5yN7yIc9+xvG9B5o+AQaeCycT+ziXVgO7YZAtAJJPXmYIcSRdJIzmEDEZbsoDeVlu0MWyLGdDO1lu+eaQLSX5epJQ8mg4hAMKhB+ue4ZF4gkDlkgMlwgUuahEgiXyJAEIomDo52qRC0PJhBrlxVHXx68QI6oJQIC6Y2m6d3RdEVHLF17NIGu7Eij6Z0LaJBpsUdUy0qPTbUbQRz5pKKkGCiFx3L3FT5moRGIslkWDbe9UCpi4EU+16lgCGTYwf/r5H9RIlfCIxDID68mc1r2kbHmgw2fWQ41jIeGfzxkICgQvPJqZod89ZUhEH2BCIkMVSBKeRgCuYAFopLHSATCx3pYBdKtrn3YF4hCHoAY76HMQNhIc0siyzz4ZbuxdNXRWLrmSDxd1sFHoHsci/cI7Jrvsb4eBFJczAcOlpQzcYgCOj7WNsG8neFgKB+LEEoY3iKf61QwBDKsuBRSzjpSWVZDaspKGGXldaSspIFUF9WTdbUNxLV1H4HM498TzU3/xvoHXoGFoECmSfIYSCAoDiaPnib4oPKp2xEhjrm9TQyP3kaGVhgC3/4mhnb6dnHjKDFwUCkMJPpEkxVV8RzkgCSd4IgbSAlxWAcO2hFIxpccIQ6B6MISkycKidgrogtxDF8guxhB/TsZ54pAZvWWqSZORKYDNuIQ2Ehj4JtE4U2hGGy8hxaFPKTJEsUNo6wCkcTB2cjEIRieQNYwUByCUxEIyoMJBOSAqAcK4pojBCIGC8oDBSWBSJMkqidL5AVzbdGcDQw0cZTywIGCC03xdHFXIl3ckU6XtaeDQBIB2NaZTMP7o/497TvPy12/Drmc/Az7Li6BxpYvV8CzH0rgY/6aDD5Xb7NdLic/YCi3iUW8djl7fOYxYsC4lMmjuqyC1JUVgECKSEV5DSkrrSe1RVUgkHrswrphTM/hb0Ag30zrAEngFVgAysMQiCGQwQSC8jg7AuFXXQ1dIBvPE4GoGb5AZHnoCQSvrEJQIkIebKBgJ2YbiXTZ0Qy6Alh5NJkubU+gqV1pNLwvcePcfwVeGnQs+lLyE/yrXRYBSkOJEIYeegKRBaEvEfk1dUN/pjBigMAEjWUe5SAPoLq8hAmlorSKVJWWkdX11cTl6N4nQSB0ormFZR44eSKbQNEQiEogaV9w9LqwlAJJ6tcXSNQJjlYgYuoSgX2BbGf49zeoONcEMqVbzbAFYiMOwWAC0d6y9nQLRDldO5+qHTn9AlnIYAKB7EKIgyPEkWbFRiBSzQMnSJxvSgd5pPNxHSgSUzLAs4+lXdF0WWcsZB+pbNAgZiN4C9tY+BoT29dMXX54Hdm8O5uVTpUNvFIenEt0kSWiXpTyQJSv4SK/pm7ozxRGDBAoEJQGZh5MHuVlQAW7jrsCxJK5rZo4t+/PGNPTfE4IRHknwvNZIEqJGAI5fQKxykMjEDHX1dkRiCyPMyoQkIdaILbyGEggvP4hJCINEOxKZpfrLu6C7MMUwwXSgV1ZvBYSb05eHGlZvji9dTMpqK8g9eV1rJFVLmp5DC4Q7fFKeSADvSYa+TOJEQPGpaSsAjKO8hqWeaA8UCIV2JVVVgYCqSXORw9mjOlupRNN/P7neAnvKQlEVTw/ROeCLBAuELl4LsvjEEMUz4P6DwOHVAIJg+2DCQTlYU8gWDw3BMJvYWtPIPLkiQp59OLkibI8vg+ByBMlcnE4WpEnS1QWzRFXszxpolv3BoYYOMjEobhhFEpDyfclENF1hfJAlAJhBXNJIDhDrhK7AlGRTDMsKXShOYUuMSVJ3VfxdHlXHIgkimaYIyDziKQR3YmLY0xLF2c0bSD5dZXwh2cDtCCXA/KibYCvGASxn31JqLmC/FACHyvRP/+pYsSAAQIprWU1D+y24plHEcmpKicLd+4ggYcPkUmmlqM2AsGbSHVCRnJKAjmkEcjBIQpEuvpKIY+RCkTIwxDI8AWC8jgfBKK96orLYwCBKORxrgskzpwhX3FlRyBaUkASCN5NkJMAzxNouimBdV9hNxaKBNe4Ldkc822yKbEsrX1hYFrbMpLRkklW7d9ESqorSV1pAzSxwxWIusEX+xkCOQ8Df+C1RbWsYI41D+y2wswD5fFh7/HLf/uvf13+5nHzd1qB4NoQiCEQQyBnXiAR5oWMKBNHK5B4kyCdkWhKVaEvkCQmjRRLHE01x9B0IMMUwwro+FqiJe2rcHPKFj9T8pZ5pvk3RR5d9dMNuwtIUX0JydmeSwrrc0ldeSlpKK2EJlaWBy5CCALbRlnd4Iv9DIGch8GK6EWlQDmpAvA67tKSShK3Zy95CeQxmn57+etfdH+HM+9OAoHgDaSYPE5LF9ZQBMLlMZBATqUL6/sSiF4RXUjkXBKI/v0/zgeBcHmcLYHg1VcoDyEQcbMoRIw8R3kIgYSy7fxGUkIebNwHk8dCCS4QqzgksHiO4z6iuuaz+30wQCQCWSgc5fbELg6KJsaSSuOARMg0koF4Mzw3p9OE7sVwzqVfxbQt2hLauGiLT+Oym2L3bfrp1rJy9sdmVQW0FZXFpL4MBVIOTTf/Q9QQyEUaxWV5pKS0gJQX1pCywm0kv7SGJOzZTd44af7s2f/0ffZuXzubvgRn3hU3j2KYONZJFC1NDBw06GxuhA8rSANAaczuaYTG5zADax/uIBRRNPfsa5LAxzhpoiwNpTi0AsGBg0q0AhHCEMSBNBBR+0gGKSCyONoYQhxagQi0Awetl+1qxCGEoR1AGN+/nxErBhD272PYm7okrG+PipC+3QyrOPp2MIQw/PrqVQhhWMXRU8+Y11vL8OypYViF0VtpxbWv0ioMqzi0RfPuUj5wEKQhENLQY1qPmuk9RSpmdmspUOEAOFqQPI51oKBisKAkCz2EOBggBCGOOSALRCsQj+51VsRNoxDlDaPE1CXiZlFBJk5I12oaIREK21EkYbAdQZkE9IBEeiDzgEY7ygRAQx/ak0qDe1PZNrxxVHTXYhrbBdKQSO3PhAYe9u3IoMHNSWybkIsVOCaqcxG87yIa1rOUEdu57LuE9mVfxXWs+Cqqa0U7vHe7X29mSZg5MxK+nki/nrUf+XVn/SrSvOVXqU2byNodm0h2fTYhP4JG4ocA/LUpZxt48RVvYHHNkYviarQC4Gi32x4n0Nv3zKGWEurRCPtxCSGFZVtIYWkuKSuoJqX5DSSvuJ6k7NhF3u9rLfrdv9qLPupppZM7hyYQzDhQHiqBgDyEQIQ87AmEZx4gjv4DVgyBfD8CQXmMRCAzes+cQGR56AlkcHkgSnmcDoEo576yCgQyDCTElMkFAmtoqFnmgWuEd2Mto8E9GZBtZEADz0UR1p1Kg/qAXhAESERkJ+zGUkAkrruWMEI6FuH6m1DTkn+HmVe0I/Be1cCS8M7MJfD+UwK6V98UbF57U0LbajL/8FqyoDGLpDRvIBFHN5Hw9i0koQXJIeFH84ACktxaQlbsKSEFVUWkqrSEyYI1FZdcxrgMGlXk8kuu4FgbekMgF13gL0dZ8VZSVpRLSgsrSXFhPSkuaCAL6vcQEEfR7746WoT1D0MghkAMgagFwrqvbG5ZK9U9LCus4D3PsZsKGneGEAJ2T4Wb50N2kEijLMk0qX0ZTTgC20EmKBDfY6nU63gG9Ty2gnr2r6YefZnwM1oJn50V1Ks3Ez4ba+DnC/Ss/gbk9W+QWHsAENSVVR3SlbUkpHPDkqCuTVN8zZtuCu3YctOigzlk/Y48klNfQLbWF5E1u0oYW7GuUVdGNjaUkawdZWR9QwXJrq0gRZUV7L4efI48VMMPGJdBOoIYAjGCCaS0MAfIA3GUka3FNSSzcjsJ27OffGRpOfG3420nsP5x9gRyUCWP0y0QZe3DEMj3IxDk+xKIsvZx6gLBLGQdZB9ZmgyEZx+8xiET0rOSiSSgdxn1715C/XsWUb/udOrTm0j9LCk0rGMVZBSr4A+o+UweIJL/xnau6Ivo3NAX2rV1Z0jHliUggiW+jWtmh7Vteim6I+el5J7iS2PatlwS27aFxLfyTCKpOYekNOUxEpoLSEwzPD5UQNbsKCB51UWkrLyEXTBTXMHBx9UleAENn0VXSVlZFbQQfJLVSyRx2BeIPfQbaO12/WMRvX3PHEp5IEYMFJcQkl+SRwqK80h5PvxVUllF5jTvJp+aG28AgdAx5hY2ceKUjmZ+1ZVCIDY3khqqQHr4pIlcIAeZOAT6AjmoAuUhJk+0JxCcNNEqDs3kidpxH1qBaIWh5cIVSBUIpGrYAhHisCcQUUy3KaqfJoHgFO0cWSByodwWN9NGjnk9Q4iD0b0WpKHGRiBwjI+J4wcEmDbQoK4NNBTWoaYsGtaVRSOASNM6iTU0DLKVwN411Lsv81uP/hV9rsdX9M38Yun+6V8syp58PC17Su9ivxmWjS9NO7bupfH/i7/C9cu4K1YezCKFdYUku6GUbNpeCRlCBWPzNgAyhuxtlWRLfQVjaz388SeB2UReLQcfb64rgYyiBORRAlkFv2MgCqOuuITUluDcdyWktAKvvkSxlLDXBDibriiNC/QaXY5+g69tkO0VwbXHjRwxExdH+z72EMfLXx/HiIGCCaQABFJAygvyyFL4hRtv2kteP9l0wxgQwqSOJiaPMyMQftWVVSAgh8EEEgivK2ff1QoEZ99FedgTiHLWXUMgF55A8GorPWkosSsQkMfgAlkPAtloxQfO42/axDFvYDLx71pPAzs5/l3rYBufrXdu31rkWz/Tmj7/rjV97pbV++d0r86e27U62719vd/c9vyX5pi3vuRyctEVYZbFV+Rvyye7i6pJfWktqSmrJ9WldTLFsK2kTkGNLaVVpBoyCBzbhV1RIuNAgWDWsa2oBCSCGUkRKa7k6yqckQKkgmKpLeYSkQvnhkCM0ATrwiooIqWFBawrayn8tTKpcz95q78lZFxXE53a3kindB5miMt2cRZehAsEL99FgRzmApGuwHI2H6Qu3YcY549A+OW7NtKQLtu1Xr57mgUixIHgZbtagYjLdgUhfTsZIxWIuGz3YheI3IU1mEDkqUw8LBvpPDiHB2Q5iHv3Zjq3d8t3wFeuPZu/mt29qdnZvCnbqWtjtmPnhsgZpg0u07o3fjSpd+M1449vugZeI2n7NpO127eQzN3ZJHNXDslqKCAbtpWQrO1VZO2OKrJ+ZznJbSgjtZUVZDsIoK6smlSV1/KZIiSqSzXAfloqgYryKnZTJ6xnCErLuUQw4+BweZRWyGBWgiIxBGIIZMDAX4vSAkhhgWKQyNK6CjLj6H7yXm9LyHiQBAoEZ+DVF4hm/Ec3v+8HysMQyPAFIsZ9fB8CwfqHViBCImdKIFZOQSDOZi4QF7N8p0E9abiaYDui2s5rIfI4EC4SrHt4mrPoPMgc5kFGgZnGPBCHEMacbjhPTzad3ZsN+2bTgM6870Lb874KOprzVUBbdrN385bseYc3Zns0boh0b9zk4tqy+SPn1s3XuBzdek1wYx7JqsknZSVFpAKyAZw6CDOMhpJ6Ulu+jdSXbSc7SveQXSW7yHbINLaBLFAgNWW1ttKwIw6BEIjy7oC8roGzTfCaB4LdVojoykJENxfez2MkAtFroGVE46zebnu+kaIWgPZ97CGOVx9rCGSAwPzjUpIPqWp+Efx1UlBFlldvI05te8kYS+P+8V2NdLIkkGkdh0AajSqYQEyH5IGD0o2jhECEOARufepJE4U45vUf5kDjj2NAfPsbVYjJExGcB8s6ePD4YUY4bEcioBFXFs/FVVei9iGK50IYaV+0MIQ4RNFcDBjUDhw8EwJhgwe1Ajm2W0Vo/y4VskC2MwL7GhhCIL799SpQGmLQ4MADB6sYc3sqrTCJgDQGnDxRU0RHtNLQRy2K6T0FA6IViIsln4nDzZxL3SxboTHPYQ06rt1AFi7tm6hr5xb4PvKAAjq7ayt16thCnTtRJrAPHIMymNObQ+f2b4U/YHLgD5gc6t2dSz1asqjjziV0SmUa9Wze0OfWtqHa+eiG6pkdG1Kmdq5PmWha/xFwg2vLxhvIL+FjdJXEjwG8mSeOnWBcAtvgc4ZcBYyCRvjSy+El3jz9iIyC3ZEr4THnSjgR/su3j4Llh7rwMygbQN6AiwFw4jkKQMkPgCtU8EkPRRMqFIALruUzcYbyF/4oCf5cfK0c9devRH0O++gdq8be/xFi//31McJuoEAuJ7kgkM2lVWRNxTaSuGMncTiyl3xqOfhfFMikDuzCOqQvEJCHIZBzXyBKeQxXIMiZF4icYcyExl4Ph249cijOtuvUtZnJwqVjA2N2B2QXIA4UybzeIup1rAR+z4qYNJzat9Ix2xfTf1al0D/nRdJXNvnT+9Km0Ttjx9Mbgz6gv/Z8k/7K7e/0lw5/pldPeOW7H4954bvbXd6+ZWbFQjKhJI2MyU8g0+qXkinbOB7lS5kw0BvCHXgvzx+RS4DLGFfCZ+xKaIpkZGkMZfmRnUVuCHnDKJp4IRAZtTBGwV5qrlChfSafeWgCEfKQJaJukO034Orz2EfvWBlxfvl91MfL24eGEXaDC6SosIKsqawh4Xsx+9hJxpkxA9EIpPMAnd51kDGzk8MFcoDOMoNEAJSHo4XLQy0QfHwQBKKcdfccFIg0NcmiL0EiCs60QIQ4kPDjOHXJbhU2AgFpICMViJi2/fQJpJzhoGCmpcw+kkAcLEWwL2YVshAYPdkqRI0DL9XF16dDxjCtL5tO6c+m0/o3g0Q2we/bJjrbBBmHGbuYeHaBGQdKYw5kK25myFaObqUOzZvppH3r6KcNy+k7ZWn0jdwE+syiefTxpNn0wdCp9F7vcfT6aW/S6yb9nf56wt++u/azv3z3uOu4W4LLskj41kwSsW4JSdywnCSvX04SNi4laVlLyWWXgzQuuYTxI/hMIaOgqRWopTF8lNJQLtoG8vQJRL2IzERw4QtEvb8RusHlgb9SpflVZHVVDXFv3kbGWna+9qllL3CQjjM10gmQadgXyAGNQA6ecwIR8hiqQFAQ35dAUB7nk0CERIYtEMSagSizjhxOb7YVFAbWOVxMBbDmXVcoHTwOu7Xw8cc7loIQFtOxyLal9E+bw+hLmT70wRRHemfkJPoz93foVbPfoqMc/kp/MO1PwF+Av9Irpr9BfzT9Tfp/096iP5v2Nr1uyjv0xknv0JsnvktvmvwevXH6++13Tv2gPSQniyRuXEsWZK0jy9asIWtXrSXrM1eTDatWMa6ERlrwI/hMIcoGVE8Kw0EpDeWibSANgXDE+eX3UR8vb7eHen8jbALlIQukIreKrKuoA4FsB4HsXgUZyKpxJi4QzELsCcSh6wBj+AJRF8+FQFAe+gI5ZIUPIBQCOcRQjv8QAhFFcyaO4xyUh1IgQhwCIYjFX7SqUMoDsS+QQ4yUEwcZyccPMIYvkL0qzhWBCGZbOM7dHCfY5mAuo9O6OA7dlSCJCvZ4amcpnYHbzLBfdxV17qmhs3qqmESmgRCmAiiCGb2FdEpPPp0EmcPMk8V0QvdW+lHrGvrOvpX004Ob6Z8LMugzK8Pp08tC6OMZgfRX8ybQO0Ic6Q+nvkP/b+q79Opp/6Q/m/4u4+czPmD8woHzcxs+UvGLmWPotdPG0FsnjaF3TEQ+onfM+JTe7j5p5ePu01amZG0gmSuzyIpV68my1evJitXryKpVa8j6lWvJphVroSnn0lCKQ9kA8wYLG3yBuoEbDFEbkVGeSW72RC1D3bzjNlkmPCtSN/C2KM+qh7qBtWXg/cX7aLfLDHy8/e32UJ5L/n/V3xdR72+ETcgCwRGmm8pqSFp9LXFpaSDjzLtXjTftXTUeRIHyGCgDORcFgldfKa+6MgRyZgXiZOHZB4rB5VgddT2xjU7pKObiMGM2UsleQ3mgRBiSYKZ2FTJmdJUwpnWAQNpz2bbP27bSMYfW0w/3rKXj9+TSdwpW0JdXxNJn00Poo7E+9Ca3yfROz5n0eodx9JopnzB+CRL41fRP6bUzxkmMZfwSZKDPGCYP5FfTZYHcMPYdeu3UD+g1c8atHO36+cr0dRtI1tINZNXKjVwia9YxibBMBCSCBXGB3ADLi1oevNkfDvYEom7m8J0GFwiXiNyI66E+qx7aBlfLwPvL72OPgY+3v90eynPJ/6/6+yLq/Y2wCYVAfjiKhO+rIS5NdWTakW1kUtduMwjEjALB+ge/CkstEIeuQwwhDq1AtJfvGgI5wwIBSSDfWwYCcphlqaQzTByH7mrGtC6QRGc5dT3WAPvU0mntZXRCcwH9vCmfvr9rLf1zWTr97ZZo+tvV0fSZBcH03mhXelPAVPpT14/pVS4f0iud/kmvcniXXjXuH/SXE9+lv57yPv35xH/S62Z8TH8Fj6+Hhv+X0z6i10z9mF6D8gBp6DLtM1tANCgNlMhPZo1hmchNII1bJ39Ab5zyHr3WeQy9OmD8P2/3m/zP+I1ZLANZlbkeWEdWruICWb52LVm5Zi18imwbIbnLR2QgWtSNtn30juVo39N+F5Ya/feR0Z5X26Davq5l4P3tv49g4OPtb7eH8lz2///sYYRNyNkH+fEo4tZWQz7pqrlyXEfdlSCQ70Ag3zGBQJYxtf3g9yIQ5dxXAwlEyAPHfwxFIMrxH9+nQIQ8zoRAlGNAUCDKMSAoEH4Flp5AOHN7qq2w+4CAIJQIgXCJVNE58B7Tj5bRMXs20jerV9A/Fy+gL26Mpw8uCaB3JM2hN0bNpNcETqRXenxEL3F+m5Lpf6Vk5huUOP6dXjbrLXrVzA/pz2dCRuA0TsFY+uvZ4+gNzuPorye8T++cNY7xaxDJjdDo3zTrUyaS6xxAHDM/AcbSXzmMZ/xag5yRcK6bjoyF4/G4T+jPHD+mv3D8kN4w432se9C73SfQO/yn/Pu6RIdRD8TPHhWzeS0IZC1Zs3KdFZTI8rVZTCI4M6220ZEFgt1a6oZf2VgPDe3xHO17njmBIKIB1ntND/v7D/w+iDjW3jnsbbeH8lz2///sYYRNqAXi3F5L3jVVXflBZ82Vn3Xv+W685cB3E0yH6BQTZB9dtpftCmaCNBAcQMgGEfYcgr80UR4HGEIcrr2HqGvfAerWfxAEwuXBBALPESEOhN//gw8YFKA0lOCgwTDYRykPPoDwICPueCMjEYSiJOV4EyMdpIIIcWSAWBAxcNDmMl7YJi7xRWTpSAIBaSgRRXSBUh5IrIT4eiOPHWCEg2xkgQxeRBcIgQgCemutMIn01lnxBrx6akEkddTneAP8n3OZuPfUUY9j26gnbJt3Ygd1h22zLVXU0cQl4YJdVAB7bK6kzpBdIC6dkLF011OHNsgu9ubQMdvW09e3ptNX1ybQpxcG0wcTvehtoQ70Wp/x9OrZkFk4vsf4P6cPgI/o1Y6f0KsdPgWBfEZ/4TBOwVh6jSNkCrM+Awl8BqL4lF4/ayzjWkfO9U6fMa51AlE4QqYB+yLXgmj0uN5xPL1hlgSc+0YQ1Y0gKpTRTY5j6A3w9SDXzniP/szp/X/fmuI66pFYt1HkR6IpkbMKbIrlgXW8Yca17ZgLWSRDh4/V4GAXlLpB0yLEIaM+m/qZEvk91M/1kI/TvpsW5b7DQe9cw0Me56L3dQ+G/HNTn9cIVQh5yAJx7Kgnb5oq577dVT33k949FARCJ55OgYA8TpdAcAQ6yuNsCkQpjzMvkAPDF4hUAxEEQIahykKYOHgGYr0rIWQqmIl4gjgQd0s9nWOqpW5dkHmAEGbD2vFoOZ3RUkzfq8mkfy9ZRH+3OYE+vyaCPpDmSX8T50JvDJ5Cr/H6jP6f24f0R47v0B9M/Qe9dNIbvLA96wP4y/4Teo3zJ/SmeRPoNS4f0586vMe4mr32MRPENdCYD4YQA0pCCYpDidiOolCCWQxyo8vnjFtcJjBudf2c3jb7c3oXvPYbl3H05jkgE+BOjwn0Nvdx9aMDp5PH3acQ8gNRzeA1BvGMNzpyjQGfyY2QzHAbMnUDiJe54Pn15YGomztEfTb1MyXar039vvbQvpsW22PE+QdG71zDQ/n/PZL3Fz8z9XmNUIVWIFcKgWSBQLKGIhDl1CVKhECEOAyBnFmBWLuwmDhwKhOOXy+XhPIWtl69262gKJzaK+i0pkI6ad9WOnHnZjq+bgP9uHwVfbdwKX0zJ4P+bXMa/VNWIn1tTRx9YUkIfTzVh9Uobg+eSUeHOdJbfKfQX7iOoT+e+U/6M2fIJEAKCAriyklv0Z/OeJ9eBw30zZ6T6C+dP6Y/mwl/1c/8gP5i1sfw/BPWRcW6qhw/H5QzKZA74Pnd8HWgRG51G8skMhq+t8e8pme+NHUceevzCexzwhd9gcgNj5jyQ15wm22DdqrYa/gEcuOHaPeX0Z5P+R5KwKFWbM+vxfZ4cf6B0TvX8ODf/8jfX/l/KGOEKhTdV2QUE4hzOwqkuuOdztqOsT176DjT/gtOIMnHzqBAsAYyRIHEw9d9ygLBkehWgeykfiANn2O7GN7Hd9F58FzgDfh271Qx40AhnbBjM/2gchV9q2Ax/fPqRPq7xZH0mWQ/+ki0O71hzufQ+I+DDGEMa/RRBgg+ZhKY+RG9xgEyCAAf4yWzeHnsNU6wHY4Rr/3acSwDC9QqeUgC+ZUzZBfOE+wiBKInCT2BCG5w+lyFEMdNsycwbnWdyLjNbQK9w3UCyz5QIHfMHsskglnI014zAl8f9xmZMnEmNC5CGQMLxN6Cd9XWNsLDQ+/4gRo+8XVxlPuqEefXPteifn+991Bie7w4/8DonWt48O9/5O+v/D+UMUIVGoFcCRlISx15t6vm2/e7Gr79pGs3HQ8CmdB5UBaI+ZCKkQoE5cEE0refoRQIuwuhxPAFwhtgewJBeSCpIA9ECESIY+QC4Ygiun2BHAZ5NDJ5INEgTyQKvhc22PHrNhr/ZSuNOtkoCWQ/jTixn0Z9AfsA+BhrI3wiRT6Ve3DvDhrQvY36dNdTD5CIg6mGTmgqoWP25tB3GzbQ5zcm0j8VL6GPLgqiD0S60994z6TXQUP50ynvQ+P+CeNXsz7layxAK8CaA6JXQ0Csz6UaBP51f53LWHr9bL7G97nWGY6XwGI4ghkJrn8F21Aev3aZyHGdrOK62ZPp9a5TGDe4TYX1JJDaZMZN7lPpre7TBuQOjxmM2+dOY9w2d7KKO+ZOYdzpwbnLczId7TGZ3us+kY72BLF4T6QPzZvyyJ+mTCDvjRkHjYhQhnrhjY7c8OAni6NeUCBq1A3U4Az3ePF1DYbesXrnH+77nyp6X6seescO5esb3vFGqMJWINMPVZJ3O2q//di089uxZpAHZBmTuw4xeZxpgbDZdxXy8Os9pJLHhSQQXCedaKJJcA4cFY8DHiPh+wvt2U/Denn2EXEChQHb+veBJDDbwCwEXgfwOSJm5Q3shsyju4F69OyiTqYGOq2tik48XEE/2VNAX8tdzHhkfjC9P3QuNIyO9EbHiYzrZoIEpMtb2ZrxuZVfz5zAuNZhIogCMgCJ6x0nMKzbnOAx/MV/nTMXAxcEv3qKS0ICnwO/htevm43SgP0AFAUK41q3KSqU8kBuhMYeQXkgN3voi0NwmyQQGZTKNHqn53TG6HkzGHd7Tad3eU+nv/GZCuup9L55IBGvyfR2n0n0/rkTmUDe/fgz+MQotcEXzEq0DdH5LxB751e+t97rpxu9r1UP7XFD/fqGd7wRqtAK5CoyaVfJU/88Wkc/teylU/qb6URLozX7GJpADjKYQHpE8Xy/le9bIEIi2i6s0y4QCZRGEmQTAnx/cWkxkvavDpZ5hFn2UZ+jDTT2ixYaDWJBSYT07qUxXzYxgfh21VP31go6t7mSztidSz8pW0Xf2ppBX10WQZ9O8aH3hDrQG70n0Z84fUKvnDWG/sjhY/rD6R/T/5v1Gf0Rjm9wHEd/PH0M/dmMT+nPp39m5Rcz8HLXCVaumQU4TLLyS8fJCqDBd4aGXsEvnbGuMQmkMJFeA/zSDdZzYD0XzjPnc3ntxrkGxIH8es4kEMQkOdOYM5VeO3cqvQ4afcENkDFoudEDxOEpr2+Gxv9WTwXzQBwKbp83XYVWIL/xmsZAeaA4UCBMIj6TEfM9flPNDzmPI3+bOIF88BEKRK+7g6MUhWhqZJGcKc7Uovdeegx3OdXjh7qc6vmVX6OMEarA/xIuEJwVh4y6ioyvK8h7p7WOjofGfsYXR+kk8wgFAn9Fc4HI8jhXBILo1UD0BKJlqAIRc2GxLEMi8SQfj6IUCI5VCeraRV0PlNHp23Ppp6Vr6NubF9CXloTTRxK86O0BM+l1nuPZILrLJvyNXj7pDXrFlH/QH017m145/R36fzP+SX8y813paqYP6TXOY+kvXcZbG2bW8MJf7nhp7E+nf0J/4fC5ChQGigG5xskWIQjkFy4gFcgUfuk61Qo+//lseM11IuPnc2HtDvt74BrODWshES4UeA24di5kG8Av4WtEhDSu95g+IDeAFG70mmFd3+I1Uw2IQMnt3jPonbCfEAg+ZuIA8dw5D7MNnnmM9gGJ+IJY/PgaBXK39+S1DwXMXPuY03iCNZCPPuQCkf9qtScPualRNj5nhjO16L2XHsNdTvX4oS6nen7l1yhz0cearBWMrDXrSdbqzWTVuo1kDbBx1UaSsTmHTKwtyPuwbRtkHgdBHgdZAV2vC2uG5TAD7zyIOPYcZlmHwKX3IEMIYw4IBRHicO9vZChrH4gYcS4GDuKEiUqCQQYCHEConDxRTKCIRMNf/rFAAmxDsPFGRGOefLIZGvhm6ySKYiJFrRyYNBRiWQoZQzo0/Cv+0yVtw9veHqELvjxCF351lJ0HM5wYkGWkeQ+ThHUQI5xPEA8kfNlKg7v20nlNdXTatjz6WVkWfS9/Bf39ynj6eJIffSLZn97m70Cvdf+cXQr7E8eP6FUz31eB28VryNWOY+nPnMbTnzuPs3INgFL5JRajJTBjEIhtv3CBhl7KJESmgI37r+dMYfzKHYQBMvrlnGlW8PnP3EAiczgoh1+5wzGekF0gHlNADFPo9Z5TGddpuNF7FuN6aNCRG7wcbBD73OTrSG/0mcm4ydeB3uLjQG/1ncXxm6kBhOELGYf/DPob/5mM0QGz2PqeAEd6t/8sek+gA70bBD0a9mVr4K7gGfTuoBn0EXjticBZax8Pdlj7aqAz+WSOC5nh6AKfID7eQ0a9DDe0DdTpZ6iL3rGnA+2it89ADHXRO3YoDO/4izsuIWTVehRIJghko1UgCzZlk8jcKuJaUUc+21NzcmzHTiaPSZ37mTzY/FcXoEAQpUAQrUBQEguONTPm4wh2+JqiLHvpgv900NQvQRYgGBzVLgrjQhzBHdupf1sDdWwooBPLN9B3Ni2if8lMoq8uCqePxXrS27ygMXYcQ388+V165dT3GD+e9j798QwQAl6p5PwpWyM4vQYbZIc4fazLz5zHsGN+5vSZjUCQX8wezwFJKEWBglAJww22MaRuJyljQCkgvwSJ/NJ9Ov2Vxwy2/gVkOD+fMxXWUxhMHiiNeZBVAEIcmDEg13upEXLQyuJ6HzU3ojyAm/1QJCAOf/74NlhzHDTMYNwZANlGIAgEuCsIhAHcEwzyAO4NcaT3B3MeCHGi94U60dERsD1sFn081Jk+GeI87vFwp3GvBDmTMXMNgYwM7aK3z0AMddE7digM7/iLO0AgmevXklVZmH1kM9ZmbSCBhRXkxcb+S+9p//LSv7U3cXkAEzr2MXkg4vLdQQUCkkC4QOQuK1kg+xnux0AiwJkQCLuFrR2BWEXyhVogogtKdFUtOgHr4y10MbCwv5mBAgky76SOB4upw/5COqZiNX1tTQL97fIo+syCQPpEijcTwy3uE9lVSL92+oQVjq9x/JT+3AHnWBpDfzELR1uPof83/QOrNFAQv5j9GfyVDw276zgmCtym5OcuYwdHKQo7iC4jgcgutKL4FXwPCMrgV54y13rNUPFrz5lMJr+eN51xLUjhOm/IJuCv/xu8QRBSxqDkel8ZIQbBTf5OVm7QgNtuCZRBidwGaw7IhDHTyu2Bankgo0Mg0wCwZnRviMx9oVwcd0VBdhLpSB+OdPrm0QinXzwY7fyLF0J4BjJzFgrEaFaMuIhjzbr1rMsKsw9kbdYmMq+4mqA8fn3sm0v/YjpKp5h49jFkgUhXXakFsv/sCgQadyGP4QgEswi9DETZdSUyEOzywiL2xN1b6ZR9eXRM1Tr6OxDI80vD6aOpvvS+mLn0erfx9FrIBHBMxM+mf8gEguMchEB+CttRHizbAHDuJxSENcOQYNmEAl1hKNCKQmQUWrTiwMI1IsSBwmCILqh5U1WgNK7zdrByLWQNKBEhFC4PEIMfl4g9edzoB9kGoBQGcnOAM70x0D63BrlYuTlgAIEETR9UIAgTh0Igo6Od6T1RzvThaOdvIPv4xbNhzr/4o58zGedqTyBGGHGRBP66b1izlpG1djWrg6xdt5WE5pSSV7btmDV657ZZY8wtTBiT2g8whEDUXVgHQB4oEfXUJUIeQxGIEIeeQIQ8hECCjzXREBBEKGQFSNgXbTTiyyM06sujNPbLdhp98giXSF8jl8dxfhMpJKbvEA3t2EVxAsVI8z7W3aQkAc4dDtt9W+ro3P1ldGZDLh1Xtpa+vTGD/nFFLPwlOpfe5QuNIbs0FbIKt3H0GrexjF/O/pT+0gUEAYjLVMWAOT66ms/hpAKyBCW8y8mWq10gEwF+jkJw+5ytEeV2JbiPErwSil8NpemCwmwDwHoG8muPaRJcHNoahcgohBhQGsqupet8nRjX+zkyZDHM4vjCYwC7mxDt6ygMpTRuAjHcGIw4MW6Bx7eGzGbcFuZqXSN3Rcyl98DPR8aNEzWbjZS/P9qFPhDFeTB6NuPhGFcV4rWHY1wYD8ZyHo+ZvfPlEBfy7jwnMm62I5ns5Eimz3KUPkVGGHGRxvp1axlZWcC6DfA4h8RlF5ExO7ft+0vzzn0fteymn7fu+V4EgldeKeUhBKLKQKDBF4T0N0Hm0UqjTrTR2K+O0ISvjrIBecGm3dSrpZa6HyinHvvL6fTqzdShNpt+lr+S/mlJNP3bygT6XIIvvREaYiym3uk9jd6EVwg5f0JvcJ9Ar50znv7KdawVlAaDjWuAbS6fMjDTwMFxYhAdcqoCsdYt7MhBCES5DdEKQysOIQghjus8pzNE8VrUJG4AUSgR2YJ1rahHINf7OTPkbiYhBkdrNxOKA9eI8nW+jwsDxcEIcZXAx1weQhi3h7tZ14haILI8uEBcVAIRwngk1o3xaNwcFY8luHGS5jKeTJgb+VqYGxnn7kIcHZ3JDEcnBnYDG2HExRnwy7960xqSuWkdydyYTdauzyGbs7aQ5JxcMmn/rn3vdDTu+6z9IJ3Qto9O7jholce5IBCrNCCTENlIxMk2GvPFUUYUZBORsF/iV7ANzhPcsZP6NNdS36Za6tSQR2fvKKCTStfRPy+NoW9kJtLnE/3oTa7j6c3Q+OIaR02jEFAiKAnsikJY1iGJQ+wjuN4JUQtEjLgWGYl6WnK1PBCrMLQo5CHkMBBCFFphaDMKqzAkRPFamWUoYdLwh30CZjFExmBt+AOhsQduCRbAdpE1gBAQJhLpMUrjxkAQSRDIBpCP49wc6iYxm6GUB3JHxBzGnSCN0y2QRxLd6EMpcxmPJLtF/jZqNvnUazZxmA24gEicsQvLCCMu1gCBrNu0lqzZnAUiyQWR5JMlW7eSsLJCMunw3v9+ZGn7L955EDMPXYGYDjJ52AqEj/sYTCDuPQeoJ2zz6tlPvXv5uA8EBYL3QEd8jvEaiEB5D3Rk1uFqK06N1fTjsvX0rZxl9JWVcewOdVjEvn0eB6/zv919EmvocbAYiuIG57E2YCaCr90yZwK9be5EevPcCazLSikLPi0HThsuxGErECGPUxGItY6hk10oGSzTGEwgNlc9KYShRIhDgN1MQiAsYxhIIALY7zbpsSwOvp847tYQN8YtYXMkYLsdcTB5RHnQ0ZEe9N4od070HAlXxn2xsxkPxPCuKyGOwQTyoCSQZ+Ldfvun0Nlk/Dw34ujqRpxcZjOMMOKiDey93bJhPbCRbIbsY3FOEfGrqSaTdteS8d1N/323Yz8XSOdBOrkLJKIAC+tTzPtBIpwZ3SARYKaFM6t7v0ocWoEgHrA/djdF9Bymfp17qUf7Lup//DAbSOhk3kUdurZTZ1i79eyVpYKCkaSDODRVWpl1uJJ+WJlF38xbRl9dnUCfywild/o60NE+yAw+QAway7s8ptM73acxUCgIioLhBo8lxMR6YqI9REy+J2Zx1QPnexKISfz45IDjbYSB4zGUxW6BsstKZB5KeWiFocWeOLCGoaxjCHEIlPUMZfcUZh0s8/B3otcHYD2C1yZu0NQqRJeTyByECDBr4AKRtym5LXSOitsj1dwWPZfeEQWigDUyOsZdxd2xII8YD3p/rCfjgTgPTvxcxsOJnEcSOI8leUjwLirB47CP4JHkufS+lNn0lQW+dHxa6G/He4A05roRt9muxNWVw7qwhsMgIV9Eqgm9c+nBjjXqMmcqxM9HLBd14Lefs2ETyVu/heSszyUL80qJw+4d5K3Du677pLeFfnB0LxV3H7QRCMhjJAKZrRQIZB2+pn00sGsf9Yd1AGQu2D2FI87dTXuoW8cOEEM1HdeQS/+Rt4L+bl0qvTvaU8VN/jMZNwO3BjjwK2+gobvFdwa9FaSBEwWeqkDEFN/IYAIR4hCTBA4mED15IPbEYU8gyu4qZeahzDYGEghmHQxFPQMRV0NZsw6QBZOGQiDK5wMJBBEZxW3hcxm3h3HuhOxByW9iPNXEzaN3xc6j98R5Mu6Nn6fivkQv+kCCF304wYfxSJK3xDzGY6mcJ1I4T6Z6SXiqSfaw8lgqCCh9zvFX07yPP/XhPy7zDw4h7m5ziPtsNzIXshA3Nzf9RnwgBgm7DZPeufRgxxoCOVMhfj5iuegje/NmkrMxm+RuyCcZheVk2sFd5I2W3fM/626hY47uYzPv4uDBoQrEKhLIDlAgTphNKHDuP8AkIsAMY+LBUvp2yWr6l6z59OnEQPp0jB99IsSTPhYwhz7k50of9J1N7/d2ovd6zqL3eDlauXveLHq3FwhCIQWcSRUf4/Z7vB0U8AnyTpdA7HH9bA5OHsiYPVHFr+A1JTaX1UoD94QotALRCkKglAciiuBCHMoiuJKb/ZwYWoGIq6hEMRzlcT3IWQhDiOKmMDcVWkFYRQFZBHZB4eNbIjhse4Q7444oDxVnSyBPpc9T8UyazJO4bZnv5r+tCNs8McyLzPPzIZ7u7sRrrjtxh/VcD3f9RnwgBgm7DZPeufRgxxoN25kK8fMRy0Ufm7OzSfaWHJK3sYAsLqwgDgd2k7dBIONMjXRs2z4p+xhYINO79lszD3sZiJj7ShTPBVNbqunY3QX03ZI19B+bFtMXE4PpS9EB9PkQL/p8oCd9JtCDPu0/lz7h60Yf855NH/HhPOzlwnjIaxbjQU8HKw94zKT3zgWJzJ1G7/ZEccxk8tATCArndvcpIA9pSu9zTCCDZRgCZZaBDHQVlRI21kKSiBh3ob2MlndP8ctoreIYgUBYVxTIQcm5KJBn070YT2XAOdPnbP59hu/msQFzyGz3OWSehyfxdvcknp6exB3QbcQHQidEk69smHCxCb3zKWHHKDHidIbyZyOWizvgl27j1hwQSB4p2FBEMnOriOeu3WTsoT3mSUcP0fFHDjCBYBYy0YR3IlRIxLSPTunaB/LYS2cCDvDcwbSHzjLvo44gD5x1F28S5WKG1440UHfLfuoJ+7+Zm0nfL1xLf7cymT4c60dHh7jRu6HBuT/cgz4U6kEfAR4N8aCPB3MeC5pr5dHAOSwredTfjT4CmcljvogLx9uZPurlxHgEMhMEZXKvxwx67zwUCM9UmFCA0SARhItkBogEZQIZidtUK7e5gliAW2dPtnLT7EkqbnSZqOJ6Ca04fg0iQoQ4xHOtOHBWWsRGHIrR34jtgD7eNaXtotIKQ9s1JRDSEMIQiKK2EIbomhKiEOK4OXwOQ2QXt0a6M7SCuD1mnoo7ozm/ifFScVe8mtGJII8ELgomiyQfCXzsRR9M9qYPgTAeTfZhPJbiC3hzQBxPpnvzjELi6fleDO1z5NkMH/rcQm/6DPD4Eu8Zry8LmjElzJfM8/Fl8kBQJCgRufEeWWAjpJ4ifODJGG1DKQxEf0oV7V4DYyz2FuWEmcjFHZJANmzNI+tySkhaSRVx3bODjGvc/d3EIwfp50e5PAYSiEPnXurYgey2Mqt9F5PGzOY6+l7pevpAvB99eUk8vQ/lEA4f8lD44Eb40hfjQ5gsBuKR4LlWUCDII5JAuES4QB7x0RfIfZ4gDxQGyENfIDNOm0CEPE6nQKxZhiQKewIRwtAirp6yJxDreA2NMASihqEVx0gEwmQR62UDE0ast4rRiWruBkncqxDHg8m+Et5cHimQdQBcHL7sNruMNC8GZhOIUhKI9vlzC3zp8wv96AuLfelzS3zpE0u9bntjefBt08L8iLcvoBXIKQQ21mp5nLpA7M3Jpd5rIIxloEUpD+Sij83ZOWRVcQGJqi0lLrsrydiWHeSD9t3ffdaxn37ecYALpAtvY4sC2cfEIZjWuYfJw7kdAHG4tO+mHt2HqFs7bD9UQ2fsLqNjitbRRyPm0ZcSg+lzET70lagA+qS3K33Kx42+Fh1Enw3wYN1UrKsq2JM+GeTBkDMQN5kAEAbwqP9skAdIQ8HDvs70YW8nhujWun8eCMQLshDIQASDCeS2OSAODbe4TbFys+tkFTe5yYg74wmu04DTlQtBaBHTmSu7pZSiwKziV94y1/rMUHEdyEGJ9aopUfyWEF1TAq0whCj0hKEUhFIUt0TJ3BrtwbhNm2kIWcR5q7DdDtkIwMWBaw4TSJKnKuNQIguEZx1KeTye5ikJxBNkwXkWniOYaSDPL/JhoDheXOJHX1rqT19cphBIuA/x8QE85jG8PDkiLoO/xkaGIZDzaVHKA7noAwWytLyYzN1TTj44XPH7tzsbfv9W1276CUgDBYJzYLFZeEEYKBDBBMse2LaHycP1KLKbuh3ZTX+7PJk+mxZFH4yEBsDflb6cGk6fifCmz4R50ddig+mfYoLpa2H+9NUwP/pKqA99KciLvhA0j9U7ng2CDzqIRCWRQDcregJh4pB4yAfkATwA8kDOtEDsicOePIYjEG2moZTH2RaIyC60ArkpEtYKeWgFIrAnkDviZe5M8GGILisUhpJ7Urzofcn64kAeTvNl84+JzIN3WfFuK+TpBZBpAFpxyALxYlgFssy379Ulvo2/m+9FPpkfTJxCZIH4uXvD2psJRDS8+nKwh3IZmkBwESE/V8MXewLBRb2n+mjldmOxtyjlgVz0sWVrLllUVUKmN5aT11tKS/9haih9q2snCGQvE8e0zgN0Bk6i2MXF8fHRbXTmv9ro5ycP0XFdu+hkyDQeSwqFD2EsfSjGnz4RCxlGTAB9OjqAPhPtR5+Phr/kovzpS1HwwYwEYYTDhzRsHgMfPx/mTZ8NmcfADOQpQYg748nguYzHg2bTxwJdQB7OIA4nKw/6Oat4AAUicb/3LFuBsII6r4fwgvpMeqfnTOn2pvK9stn9spUSmcu5eQ5IRAJvpaonC4GQghKb2oaGoQpEiEIIRAhDe/WUVhjay23t1TaUwkBRCLSisCeO20EWSmRRgEiAuyDDQMTz0ck+jLuTOPel+Kq4P82HPgBieDjNm/FIOmQcCh6dD/JI96VPzfdjPJ0hscCH8SxkF88u5pLgovBmaJ+/uAR+RyHzeHm5/7a/LvBPJldDIzEKuBwbjMvID6ARwUf8zoP88fDR3sNwcGThyMfjV6FFeYwavfdXbtO+ZjAULvK4lGzNzicLayrIxNYq8mpbSemb5m2l73XtoJ9CdjEBJDKtE7uquEAw45jWe5CON0G28a2JTu3eQ6fvr6avLEqkL2XE0ocjfOkzUQH0OYYffSES/pKLBHkgkkBeiEBpzKPPhXqyNWYmyNMgEKs8hiCQh30dGacqEJTHSAQi7sWtJw5ETx7I+SAQFMeNERwhjhujODdFuzNujvFgDCaQW+M4t4M8kDsSQSbAnUkgD0CI455Uf8Z9KZwH0tU8CFJ4GEBRMFmAHJQ8sRD+cFkAf7QsCKTPLPQHYQQAfhLwe7eUg4LgkvBmvLjUiyGev7zcl76yIoC+ujJw2z8zApNRHj+EpuIKABtY3mzITTXeAV1uUPQaZC3K/YeOVh7D59Te30CfizowJcvbnE+W1leTcR015OX20i/fM9V/+YlpJx1r2UvHW3hX1UQz766aBhnHtI6d9PODlfT5Nan0lVXp9BHIMO4P9KCPgySejg5i8nghEvGjL0aAQEAcghcj4S89hUCQZ8I4T4d6MGwF4sbgAnGyyUIegkZS8CA0nFqBCIkIBhPIre7T7HKzxzR6k/tUK3gfbgHeJEmL9tJaRAjCiiQIgfJKKhSFEATK4td+MteCLBAcm8HGZwSBNBCQhN7APq0orMJQdEkhovitFYNVGLHzVAhB2IrCR8WdSb6M34AslNyd4seQBcIzDi4OXHO4QHimoRIIZBfIEwv9QCB+TB7PLPS1ikNgFYiOMF5e4U1fWenDeDXTl/5uVQD9/erAFe8tCn5jKAK5Avb4IRkF4KPhwc+uRG6choZ8tpEdj5zKsRc3F3WgQPKzC8iybTVknKnhspe6yv77oXnbf8eZdoBAdtPPuveBRCATseyiU0y76MyOXXTqgUr61w2L6csLYuiLiaH0iVBf+lx0MH0apPFsBGQeII0Xwrk81AKBv/aGIRCRecgCcT5tAuFdV9P5eJAhCgTloRSIUh56AtGTBzJUgYhMQwhEKY+LQyBqHszwGUQgPvRJAOXBBSLLY0CBgDxsBeL3DQgk/t1FwQ+QH14GjbMMbzZkgaA2EP7v8CUiN94ja8S1Z9TbZ2BO7f0vdi7qQIGUFZaT6K1byOTefVc8e6SYfmTZTsebd4I89nCBmHbTSR076KTmOvpJfT6dXJNHnwjzpo95udGnfd3p86H+9NkwGZTHC+HwYUVAFthtxcHHXCBKng2fxxASYfLAIrpGIHIWwgUi0ArkPl8neq/PLF2UmYcyA7l9nsxtKBFP+1hF4skZqkCEILRdU8gvveQuKiEM5Fe+sjiEMARCGEIgYqCfEMcNoa4McZmt9XLbMHfGLREgA4Z+bUNIw54whChuifdi3JrgzbgNZIHcnuzL0IrjrlQ/xug0f8Y9qb6M++aDPACReTy0wB/ANedhyDAeBUFgpsGyjUX+Mot96VNLIPtY7EefW+zPeGEp/B4yuDheWuEPYG2D88oKP4YdgfwbBOILAvmxUiBY/xBNB8885AZcFsjwRKJtkAZDewa9fQbCOP70Hn9RB8tAthSRjMpK8u6Bco8/WrbRD3sw++ACwe6rT5uq6RMrE+lLq1Lp3ZAxPAKN+3NB3vTPUaH0FX/4Ky7En0mEEearkgcyUoGIK6/OhEBE9iEyEKVA9KShx81wHuRUBYLy0BMIyuNsCMRecXywjEMrEK047oCsAvlNMsdGHOkBDCGOBxcEMrg4/OmjiwJUPLbEnz4OYnhqcYCKp5f6M55ZBtnv0gD64rJAxkvLJZg4/OnLmZxXV3KwmwoR4gBpWPn9av/S19YEjX1vSQjRz0AMgRjHcy7ywCJ6IVlcU0/e2Vbo8Wb/Pvpe/246pm8X/axnF+u2cu7YSV/JTKZ/WJ5Mn4kJpHfPcaC/jwqkf4kMor8P9gOB+DJxCAYSyAsRnmwbdmEJBspA9AQiJCJ4JMCZMdIM5DfzHOidXjK3YRYyAFqBWEXipUY7hYgY2Ce6qKzPJWGIorgohgtRCEEIYQiEMMSNlsT9MqzdUzqX3fIuKk/GbVHzGEIYgxW/BdquKSEMG3GkBjDuSuFoxXHv/EDGSAXy9JJAjlUgkH0ALy7D8RsgDYU8BhKIAKTBeG1NAFL6x7UhYz9YFj5kgdgiXh8YbQM1GNr30dtnIIzjT+/xF3lcTjZvKSFJxeXks/11jW9176Pv9+2ln/Ri9rGDzuxsoC8ujqNPRPvRR0Lm0SdDvdn0ITgA8Jl5rvTlEG/6Quj5K5DfAEp5DEUgyC1wHsH5LJBbo0+fQGzEkRbIGJ3KsRFHRhC9PyPAykMLg+nDC4CFgYzHFqt5HLKLJ5YoxCHJAzMPln2AJJ5fLokD+O3KABWv2AgjkCGev7bWD/Chv1/ng2vP11cHvPTJklAQyCXQUJwZgWgbp6Ei3kPvtaFgHD/y48Wxgos8LicxiYvJ3OXryNT2xv+N/aqTDSB0/qKV3r0kFD64ofTJOH8QB8gDGnVs3HG8xnPBHowXQChsHEe4NxtlLgOyiAKJAM9BY6Xk2QgPxjNh7hKaIrrm8l0hEmv3VaArCGM2CMPFyoMBnAf8nJlABEIcyll57/KeycTB5WErkNthHz1ulWDSgHMIBhKHkIQSrTC04hDC0Irj+hAnFTeFzWaIriohDK047BXFURbYJaXtqrInDntdVFpxyALxZ4yeD9kHYC/jeBBeQ5g8gEdhG/I4SkMByuOJpX5MGs9CNvL8skAmDMw6EHwsBPIyvIaX4nJ4rcMqikwQBfBHyDT+uBqyaCYSf/rHtV70taw59HebPOgf18999J1M3+umLAwi0GaANhDtgD/1oDK9xkaNcm+Zgc5pcO5zcccPriCOCxaT91evJh817v7fex2H6ETTITqjYw99fm08fX3LfPpEODTq0jQjz4V6gUBAABJ4FRXPIIRAvKycLYEIeQxHIFwcIxSIjxp7AtGTB/J9C0QrjNMlEJFxWDMPSRx3ZwQyMOOQsw4/yDgCOfAa8ujCEMZjC4MYTyxR89RSnnFgnQMRwhC8sIJnHq8sD2K8ujJQgndZiYzjD6v8GUwgkkT+vNqP/nmNJ/19ljt9PteHPrTO49EnMwOve3dFHCGjsFG3JxCENyT60lDC97Rd9M9nD6xbKhe9fQZCeSwuevsMhPJYXPT2GQjlsbjo7TMQymNx0dtnIJTH4qK3z3C4uOP/riBvN+Tf8cKB8jvG9R2hE80tFKduf2HjAnp3tDt9KAwabmjAnw5257JQyEMtEMhKFPKwJxBbebhbxaEViFIiQxWIkIhAKxIEby51lwpHFXf66nOHH0crEJGJiOc3+XKUt4FVYhWFBN4PXIXUNaXtohLCENwcjtJwtRGFwDpdOnZLSd1TiBCEPVGIrilx9ZRAiEKbaYxOD2KcbYGgMNTwWofIPJTysCeQP68OoG+sCaT/gO1/X+VLX10f0v1gcVL33785fMnvqOWS+wo2EvKTq6ChGFwgg8P31y7qcyF6x8ooj8VFb5+BUB6Li94+A6E8Fhe9fQZCeSwuevsMhPJYXPT2GQjlsbjo7TMcLu64ehR5YU/uijsbi1e83b6PfnSggb6zrZDeHu1Nn0rwg8bahTXkQh641j4WIrCK4hwWyD2+syRpjFwgt8I5EKVElFysAkHunh9s5Z4FQYx7FwYzHlgUCgRbxfHw4iCGEMfjS8IYTywOYTy9TEkQfQYk8RxkGC+sCJbg4nhpZRD9bWYwfSkzgL6cGUh/lxnEEMIQ/HFtCONPa4MYf14XTF9fG8zk8TYc9+4q2JYVseKxvNQVd5Zmkusr8snj2dmEXHVmBYLLcM6nPA4XvX0GQnksLnr7DITyWFz09hkI5bG46O0zEMpjcdHbZyCUx+Kit89wuLjjJ6PIX3eVrXipfeeKMaZD9I2qrfT9sk303qC59J65M+lzwZBdSPNUycjZB5OJlIEIYbwQhfLwoi+ChBDxHBGCEccgogtL25WllIlSJDgrL0pE8FAgyAQQArnPH8Qhca8fyANAcQi0AhlIFnrcHuCk4jZ/R4YQy81+nJv81SgnNFR2TQmUwrghVEYrDNFFJUQhBCKEYUUShiiKi8I4SkI5XsPe+A0hDK04WHahEMZv5sPjDJDGghDG/YvCJUIZDywOYzy8JJTxyJJgxmPLQhlPLOU8uSyM8TQjhD67Ipw+uzLUynOZIfQFEAPK4uVVIXy9OkjF71YH09fWhDCEMP4IskD+vD6E8Zcszl/Xh9K/Z4XSt1aH0PfgvB9CVvLe6sAV/wCJfLA+nUxamUlcUpeBOa6AZgavVxQMtmAjZdtQ8UV5Hj2M5VxfDIGwkH5l4a+rf+6r6325uaH3w+YGlnncGzqHPg5ieCU6mP4xPkIjD+T8FchoaNgHE4ieNAQoipEIRCkObW1DKxClPEYqkIGuqtIK43QK5B4mjAgJLo4Hl4YDII6lYfQREMOjSzlCIEIcT4EwnloRSp9ZDkCG8VxmmIIQ+jzI4cVVXB5KabyyJpjxKsji90wcYUwcf1oXyskKZvxlQygDxYH8bUMY/cf6MPrOmlAQRzB9f60f/XCN36cfrwn+dOaKWBKaMp8kRKbDpwRlMJxG3p5AlOeQ0YbyCGM595aLUCB6v6r4jV9ByP/9hHzWfvC71037vntkVSq9N9KLPhjqRl9KDGSTIt7v5cImOVQ26gLR4ItuKaUokJEK5MkwDytPhLozsA6DiPuCPBzkakUIRHA/SAS5L9CF3hPgrOLuQGc6Ghp9Ff4u9Dewv5I74Fg9bg+SuS0Q5GGHWyRuCuIIOWgL4YhSEkIUN0bI3BTpxrglao6E7dVU9jINZZcUohTEUEShBEUhZKHMOJDRII67l4TTexfLmYcQx0Mgh4eWgzRADI8uh8xD4okVIQyUBhPHynD6TKbIOIJBGKEKQB4gh5fWCGEEWnl1HWQekFHg+rV1kjhAGCLj4ATR1zeFMP62kfPGplD6j42h9B2QyTvrg+lbmwO+Ba795+aQayetiSOB89NJfCwKBBf5UyQakuEvynPIaEN5xFAWbShfG8qiDeVrQ1m0oXxtKIs2lK8NZdGG8rWhLNpQvjaU5QIP/BbFX0T4jG/BtJxcdSUh1/2cfNS577u/t+/47ncbF9GnsGYBDTyOz8AxH48Gz6NPhPCJDc8VgTwSPDKBoDy0AvkNY/jysCcQIY6hygNRCuSG8NkqeYxEICLT0ApEm2EMRyB3ptsXyF0L1QKRMw+UCAgE5MEFEqwjkCCQRzAD5cEFEiwJRM2LIA8uEFkeSoEgTCBSxiHEIXh9E+dvGzlvbAoGgQTTNwUgkHc2BVw7Jivs2pmZIJCMVBITnyo+MQpGuijPIaMN5RFDWbShfG0oizaUrw1l0YbytaEs2lC+NpRFG8rXhrJoQ/naUJYLOvAbXJCymJOaQRalppNFKQuJ98IM8sHOvHuf25/31quHiunnnbvoPeFz2f05XgmYC3iw+sfTId58DIiiURc8FQ5iAYQI5C4szovRvgzlNiYPyHKeiQBxSIjzCJTvcaoCYRKBxl7I464gZ0kanDugodeTBaIVBnLrACjlIQSilcd1oZzrw1wYKAwlXBh8apHBphgRohCX3wphIHpdUlphCFHckaZGm3Egd2bAekEw4+6FQfSeRcGMexeHWrlvSRi9H7KOh5ZFSGgyj5UhQBCTBhMHyOKpVSgOzrOrQhjYXfXcqiCWcaA0BC+tC6a/XSuEwXkNMgclf1CI4y8bgulfNgZa+evmYCCQviHxj+wQxt83h4A8Quh7m0J2jFsbQlyXRpLABfEkfH4KiU5KkT5FvKkYWnMx8J7i1YH3sh/iqxHLcEN5LC7DDeWxuAw3lMfiMtxQHovLcEN5LC7DDeWxuFzQgd/gouTFDBQIshgez1m8mPzhYNG99zUXvPW3xjI6YW8pfShsLn0+aI5GIPryQESDf74IBOWBcGkoGZpA9KSB3BLMERnHYPLQCuS6CJkbIk9dIPZqGoMJBLMMvUxDiAMzDUQrDxQHrh9cHsFQykOVeYA8uEACGCgPpUCeWx3KEBkHCkPJb0EYr+jI4w8bIPOA9R83hdI/wmMmDkBkHII3sjl/38L5BzxG3toSQt8Ggby/OXTH5NXhJCAjhsSlJpHYtDQSk5wsfYp4UzG05mLgPcWrA+9lP8RXI5bhhvJYXIYbymNxGW4oj8VluKE8FpfhhvJYXIYbymNxuaADv8HFyQuZQNLTFpLUdBBJ8nLiuXA5eWdn2fgX9xTUvFG4ir65Lh0a5tn08RA3mwYdBxIq0QpEiOA5FIRCFiMViPK9Hkd5AI+GzGWgPLQCeTBYzQNBsxn3A/fC94TcE8IZHTqb3hXiouLOEFe73BGq5rYwmVvhfIj2uQCnFVF2TenJArkxyo1xU/QchhCEQAhCCINJY4DZb5HbcJ3qxxCCEAhRCJSSUIoCu6UEd4EgRi8J591US0EYCjDrQB5cHsZ4eHk445GVYUAIfRwyjcdBEE+sCqVPgBi4OALp06uDGM+tAWGsDbEiMo+X14cBIVZ+tyEU4MJQ8sdNwfRPIABc/2VTCGQZoYw3QAwMSRz/yAkFgumbEm/nhtB3t4bQj2CfjzaH0fdywsMmrI8kQQvjSEpKCkmGbD0xeSQZyMAhznO6zmeEEWcshECQ9LTFJH7BUhK6eBWZmrkSBTLrT9vzjt4Pf9U/i1c3QUP7cPgc+kCkO30wyoM+FgnZQMT5KRB78hiOQAaSh1IY2udDkcepCGSw6dNRHsMRiFIeWoGgOAQoEGRIAlkRyuTBBRLMBQLy4AIJtCuQF9aFWjMOpTy4QIIHFAgysEBkeXCBBIFAgujHcNwncNyH2eGvTsqKJCEL4khqchJJS0klKYkp7DNkCMSIizLwF3RxSjpZmpwBWchSErloJfl03Ury9+ps8kZbzaw39hYdfSrMi74a6Mm6iFAc90KjdV+sJ30kCraBQJ4M91KB+yPPRHgzUAjI8zG+DCGOl2L8GOK5kAlKRhyjlQmC0hIMJhKESUMBykMIRMjjTAhEcIsdtFdTCWHcgLeKVdwe9vpoN3pDzBzGjbFz6c1x81RohXFrgi+9OREl4c+4NcmHIYQhuC09gHHH/ECGVRoZ6poGcsdCWC8KYWiFIbh7WRjjvmXhKu5fFspAeTy0gmcej60Is808ILN4CjILlMYza4Pps+tAGlmhII1gxosgCeSVDeH0lY2YbfCMQ/D7jSH095uCrJkG8vqWUIlgKygNrGv8IzvMWudAMONA3skJYryXH0LfzwuhY+D4zzaF0vGbIl51WhNFwjPiSHpSEpACIkkhONnIJZcgl0iI59rtQwOOUKG3j8H5wwUdOIJ2aXIqWRCXQubHLCRBS9aQj6rzyPh/tVz1QPEyrz9XrT+B9yPHmgdmFY/EzGPyuN8QyGkXiMg0tPcVtycQIQ6ByDRuTfJj3J4SwLAnECEOgSiGoyyYMBTyQIQ47lzCuWtZBONuiXsgs0DuXx7BxQFrxJp5rIwAeURweawMp0+tjgDC6NNrQxnPZIUwUBzIC+vDGL/dEMbFsSmC8eqmMMZr0Kgr+QOIAbMMWRqcv20No38FQbyRE07/DtJ4c2s44+2cMBX/zOegOJg8CoLpB/mh9MPcsK/GbQn7alZW5A+9lkWRmDS1QGxFIZ5rtw8NOMIQyAXEBR0okOXJyWR+VDwbFOW7bB15pzKHvLIzf9b9q5JyRkdzGeDMuk9FzqNPxHjRxySegteejoI1SEKJLA4UARcCgvJ4IZZLQ8npFIhWJMjDISCRUFvuB+4Lk7knnHM3NO5KRofN0eU34WrugMxBj9sj9bnVetktR3RRKeXBiOPckuDJkDMNe11UPPMQAhHCUHZL2cs0GJpMQ/CbpeEMqzhWRKq4d0UE44GVkfTBzCjrmoljVRQQTh9fFUmfXhMtAY/XhtNn1oUxnl0fysCsA3lxQwQDBYJoBfKHLWr+DLJA/gqSQP62NUICH4cxgfwDeDsngvFObriKdws47xeEMj4oDKXvFcFrxZFbPsuJ3OKdGU1iF8SS5LREkpaSzLqwUlP5ZbzKziZDIAZKLuhgXVipySQxPIpEhCSSwCXryccleeSvdfmzXsxMyXksxoc11NhwM1mgUCTw+bkukEdC5w5JHmdKIHriQLTyQG6OgeyCIdc2eLahLxAhDoG4ekqI445UyCYAewLRigPrGnrisCKJQ3DPyigV94EwEJTGg5kR9CEmjSj66Opo+tiaGCCKPrlWlscz6yIYz2aFM54DSYisA3lpYyR9eWO4lVc3R9LfbwI2hzP+lK3mLyANRBYHlweKg2UfeRH0zVwURyTjn/kRKt4rjGR8UBjO+LAItpXAMaVcICHLY0haaixIIxHgAkEMgRgMxIUd8P15B84jIeEhJNQvjox3DiCvhceS19euSHs6IbThiUhvqyieBplw/OA5rO2Ajb5SGkp5cHwYL8bhNv74+RhvxnMgJtyfiQkyHiVKcWDXmeAxEIjg0TCQh4KHw3HG4LkqUB5KgQhxMHlE6BA+l94Voc+dkWruiBoc5XQiystukRtjZbRdVNasQ+qSEmiL4naFoRizocw8RFHcJvOQRKHNPO5ZHskQGYc18wBZPLAqgskDs41HV0dapYE8tS6GPp0VS59ZG0WfZYA8gOfXhfNah6LLSplxsJoHwOQBvLYpnCHE8ectHCaQrSFMGqyrCmSBYNaBvJXHkTOOSAmeeQiBfFgUxfioOJp+WBJN/1kSNXPS1qiZEUtjSEZaHElLT2ICyUhKZcjqECLRYoQRF2qAQOb4uBGPYF8yNzCafOIVRl6PTyGvLc6oei4hrJ3JwioOzjPRZ1Ygz0TjeewLRCkPPYGgNJQMVSC68gD0xIHYk8dt0WqU8mCv2xOIVNu4MZ5zc6I3w55AhDgE9q6mEuLQCkSIwwpIA2sboiiuFYjoqhICERmHNfNYHSVlHeGMJ9ZFMoRAUB7PrgMkgTwPryEvrI9g4hBdVjzjCKWvghQYGyMYr22JYvxhcwTjz1sjGX/J5ryewzMOIYw3c1EiskjehiwDkTOOaAkujveLoxgoDiVjiqJHz9wSOzpmSTxZmJpgCMQII5Th4uZEZgbMIx/GhZFXk2PJ85kLyN3p0VWPp4a3P5EQQJ+EBl4rkIFQykMpjhfj/CV8rZxugTCJRHDsieRByCiQ+yXuBRkg94AE9Lg72lOX0Rp+E8O5M1aN2C6/7sXQTi1iTyBCHKLGITIMe+IQCIHoTS2iBMduIFqBWIUhdVGJ5/etjJawLxDMPIRARObxdFY0fRZ4fp3g9ApEdFlpM4638iIZIxHIJ/D6xPyY0W4b40bHL44nC9ITSfr8ZJKWlkLSU9NIRkqa9CnCwO4KxBCIERdROM2aTiZ6uZK/JAaTZ5cl/vyFTct/flNc0BePpIf/58nkEPqkJgvRk4YSQyAjE4jING5K4AiBiBqHViACrTAEIuOwJxAhDkSZcYgMQyuQezOjGUIgD66OUfHw2hj6KIDysCeQ59bH0BeyOC/C4xc3RLFaB/LbzVG8SC6J43fZEQwhjj9ujWX8eWs04/XcaPq3HIncSFbjQIQwhECYNEAQCHZZCXF8WBzLKeFdVR+VxtCPS2LoJ6WxViYUxrY5bokh/mviSNLiBJIhCSQlPYVJJC3NEIgRF13Iv9z4r7vrbDLNy528HhNMnkkOf+jx5KiHHk2K/M9jKWHfPJYczO55/kyszHMxA6MVx0gFItCK5IkoNTZCieRYRRLJeSgCJCKBgyGR+xXcGyXwVKEnD2SoArHFVh6IEIW4DNd6NZUkCpFx4ONbURzS5bdiPIeyIK6sbQiUI8cRcfmtFTvCENy/Oo7xQCYIYyXIYk0cRxLH41lxQAx9EuDSgIwDJCF4fkMc47eblMTQVzdHswL570ASyB8gm0D+lBOj4s95IA/g9dxYJo2/58cC0fTNPM5bBVEMFAUKQikLZYaBktCKAvm0LI7xWTlnLDyeVhBX6JsVS2JXxJPUhQlkfkYSSc0AgWSkWmHOYCF/rpTYLnp7KdEuevsMhHbR22cgtIvePgOhXfT2GQjtorfPQGgXvX0GQrvo7TMQ6uUCDPW36j7bjQnkjWjIQJLCX38yKer1x5Ii6SNJIfTRpCD6VEIAfTYu4IIRiJ48zqZA9OQxHIGgPE6HQKyZhiQQe+IQPLAmnj6ErIpjPLY2nrMulvHEhlj61HrMNGC9Lsoqjuc2xrH1S5sSGEIeL2+OpS9vibaK4/eQVSB/lLARR34c/WteHH0jL4bxjwLOW/mct0EU/ywQwpCxdk1BhsGzDJRIlFUYgrEVCUAcHV8RL0kkgc7KjUuJXhVH5i+KByD7WJDCpJG0IJUkLuRrQyBatIvePgOhXfT2GQjtorfPQGgXvX0GQr1cgKH+due6okA8QSCB5Nnk0JiH0yJiHkgNZwJ5PDGIPhM/PIE8B/JAno/zY5wtgQhxIDjIUYhDC46mRx6IVnOflXkq7o1Rc3eszF0afhNny50JXhrU998QYPeUkITINES2gQhRCHGIYrhAXEVlczWVhCrbAO5dAbJQIonivlUxKu5fw3loXRx9eK2UdQCPZyVIWYeUeYAont4gZRwbokAcKA/IPDbF0hc2x9GXgN9uiQdxILH01S1x9NXsGKs4/gBZBWIrjhjGXwsg8wCsmUdhLH2zKJqJA3kXnr8Lz98virFKQyWOsmjGJxIoCyWfVYI4gM8rE5hExlck0tm5CW+lLIsjy9PjScbCZMhCUpg09AWiH+pP21DQLnr7DIR20dtnILSL3j4DoV309hkI7aK3z0BoF719BkK76O0zEOrlAgz1tzvbxY1MnOdO/hTtR55OCol5JDUi5uGUcJ59xJ9/AkF5nA2BDEUeiFYgevJgnJMCiRpAILI8uEBiuEBAHvYFAlmHlHmgPJSZB8pDP/PQCgS7r0AgIAuVQOAxE4hCHnoC+bQ8hiHLAx/H0PGV0fTzimg6BR5PKY0F4umcrQlvJS9PIEvmJ5L5IIzkhWlWgSDqLiz9UH/ahoJ20dtnILSL3j4DoV309hkI7aK3z0BoF719BkK76O0zENpFb5+BUC8XYIhvFe86eDlxmD2bfOI9l7wS60seTwna82x86J7n4kLps/HB9NmEQCaP4SDEIZDFYYuQi+j2wuK7ViBaxEBGHBWPPI4SUfAoNPpKtEJ5ECSEPAD7KrEnjPtiveg9cbbcHa/mLgmtMLg0bLktSUOKN0cSiCiOC3FoBXL7giAVWoGIq6msV1VpBHKP1GUluDczksHHc0RZi+MPrYllYJFcFMqVNQ/G+igmj6c3CnlE0Rc3RYM0YqygPH4riePVbGWXFS+OC3FgcZwVyCVh/DUP5JEfRf9eGMMQXVfvFMWq+GdJDH0PhCEK4h+VRjFhiDUyRpIF8llVLONTto6mkyqj6PTyCOpUFkldi6O/cS+I/8YvJ/ln5Cr4mIwCrsCPC9hCbims8lBuGpzhLsbx5/PxF2CI/wouEEcnVzLWcy55Odrnl48lB37zQlzwN7+NCaYvxAXS5+INgejJAxmqQPTkgZz7AuHYF4gsDyYQkAYXSIRGIFEMlAfyO5AG8vutkYxBBQLyGFQgxWzA35AEIsQxrjoOgOc1MfTzqhg6FTKQWSCPOaUR1LMoqsI3P64iaGsKIT+Fj8mVwA/BFkqBjEgeyHAX4/jz+fgLMMR/Bb+V7dyZrmSq21zyhwifXz6Z5P8NZB4oEfpibCDj+Vh9UdhDK5AX4kEUCs6UQLTiEDwcDfJQ4cV4UMP9cC4EMw4l98Z7q7gnQWZ0opq7JO5MsuU3yT6MO1Jkbk+VuSMNu6lk7pjvL6HusrIWyjXCEAP+BOKyXO3VVQJ1V5Wi1iEJ46E10QwhDlXGAWDNA7utOCCOzbFANH2eEWkVBvLy1hj6Sk4s4/e5nD/mxjDkrqo41lXFxRFtFYbgzZJYxlvFnHdL4wFcI9H0/bIY+kGZWhacKPpJZQzLNBAhjgm1cXRCHayBifB4ZlU8dSyPo+5lcdS7KLYiID+2IjQnkZCfwEfFKpDL4KMDn51LeMMgPkk4p5x4PDjDXYzjz+fjL8DAb4pnH5dCXj535hwQiCf5Y7jPuKcT/emTSZB1xHOB/NYQiF2BDEceiFYgSnkgSnmcmwJRyANgXVZStxXLPBTy0AqE1Tsgy0BQHn8AkaA8tLUO7K5CeWgFwq62ksSBYNahlAcTSHnUoALhmUcMFwgTB2cyZCEOIBBnkIcnF8i8oPzYeRG5ybJAtF1Y0grlYQhkoOXiPv4CDPymUCD4ibiCODi5k7EeXpiBZAqBPJ0YyLqwUCKiK0smWEK7naMVhpbBBaKeKgWFwqSiGMyI4Ah5RIhEzBKsBaegV/JQrLeVBzTcH4f4qhhMIEIcWnkIYWixTno4iEDuzAiQ0BTLhygQIQ6BKJILhDAED6yNBWRhPJIVC0TTx9ZxmDzWR4E8ouTLdKWCOXZbCXm8uCnS2mWFmQfWO0SxHMXxp5w4a3fV/7f3HvBRXGmi74fIYDDJ2ARjMhgwBpMzSAKEshCSCCILIZSzhHLOOecMEiIYx5lx9njG4/HE3dm5u/ve7u/t7n33zbvzfrtvfnfnvruzu+Pzvu9Une6qUrXUwoDAnK/9d3dXnarqFtXfv79zqqrdvl9p6bKyjHWIQXI6ykpzpJW2u4oPlmM1corEoULy4AL5ooJLQ4iDj3n8uJKPc3Bx/KSGBX9VZREHEYrTY39cw5J/VMsysAop+6p9Z/WPO3dWfdAGMAM/JlORychEhGyh6b562AIZb2C0N7n8k7X8dyzoDVnlAQ5T4EJqOvjkZYJjZe6t3fWKQAgugyHyIL4bAjGXx4MLRCuPp1MgVQaBVOkFopEHF4hGHopAlMpDKxBxpJUQCI11uHFxKPLQCUSMdRgEIo6yEgI5+SkNlldrxEFdV9XszBdVnCECQXnoBILyIIQ8rv20koX/pJLF/biCpWL77C8aWMHn7TvLP7qxs+4HA8AH0akCsQykIw7KlVaVK+ZKgWhvcnk9353g35roDanyICZNgWNFmYDJG3bX5v43qkCo+iDoCCwSAj8SS8OjFAiXSHUel4iV4QViEUmtOW/UZOrYhNOI1w28VifI1bG+PlvHugaFtY0Ka1AKhJksiNUtuTpWteRzaMxDh6XLSkGRxzAnCBoO0xVdVoKRuqyUisPK6/foUF1ReSjVB0EnCBKiy0qcIEiH53LUrqv97yuQOAga7+BdVnzAHOXxA6o8ai0C4RWHBstYhyoO30/rOP6f1nJElxWvPJAzXwgUcQRipRGIoiBp6Mc8lC6roK9qOKLbKuzrWhb2s2oW8XUli/66lCV9VcpSf1TO8n7U9i+x/bXjk3p6x9e99wmKA0sPGv+YSGMgaheWrEBs3uTyer5jQW9xEjKNA5OnwcHy7I2bG3I27qjPRUHkDRGGFkUStgVCFYuZNLRIgTy5AhFdV6LqIEYjECEPfoY5H/NQ5GGvQGisQ3RbibEOo0BOf17LEQLh4qCxji8VcYhuK+VoK6XqEAKh7qshAvlZOQqkmCX+FAWCAsr+omkw/4ObUHX/A2h968f4JWs6ymMiygM1MR7hA+hCBQ8iEGL4m0g+D3qTy4/d8mJZwdMT9K3IhLjESIgnEmIhMS4RrkenI9lIEQSnFIFTec7GrfVZG0keezDBkwj4OSAqe+uLdeyvs0Uh52Bdvk2M4tBCA+7KSYjKCYnixMVdNTk6dtRa2V6XM0QYWwy8gXIR0tBiSyBGYbzWgBJpHMqrTblsbbMVoyBGQhyma7kAoioMqzjoR58QQ1eVEAYdmmvsslqtYe1gFcfSZaVey2rjoAKdFKigF4cySF7Jdtyv0rHr7VqOOEGQTgy0nudRycc7tGMeNN6h5dgHdcz1B3WMrmVFCHGIw3X54bkfV/LuqhN08cPPqnUIcYguq3Nf1DLjQDlB0uAnBaJQrvyk0oIQh+i2InmE/aySRf68nEX9vJTF/6yKJaNUUn5SM1j0WTu0v/UW3Lz9AxQHViATURETUCLjkXHKAShWDejlYAzjfMl3Hf3t6QmtOPgLR/C/6ORoiEmKhsT4eEiOTR4iEOeynDQUSBrJgyoEEghVGE+6QEge9gjETB6EvQIxkwcx1gLRyoPQyuNBBCIqDpIHQRdDJGwLxCoPIRDLmMf75SgNcXmS0QqkgkPndBBGgYjKQ8hDiEM5yorkUcHRykMnEJSHTiC/KGUxWIXEf13Dkn9az1J/Wh1U8lkz9Ny/DbcH31GkwasPvHdAuDwUgRDqJ82CMYzzR8IYZm2GwxhmbYbDGGZthsMYZm2GwxhmbYbDGGZthsMYZm2GR397ikL7NtSd3MEBQlITIex6olJ9xCRDYmwKxMelQ3x8FgSl5YBzZXbatobstD31OTqBCB6nQDg1+bpDh0cSiJGt+D60bK7LNWVTvZ6NKlRxaDGTB2GvQFa3FpgixGH5sSchDJXV3YUcozjEiYHGLqs1A5U6hEAsXVZ36qwXREQ231NRxzzEIbpCGKKrirqtSBx736nj0GVJiEPvq4jKA+Vw+Pt1qjCoy0o5z4O6rgjXD+uZ+wf1KA3loojeH+tRxjyUM8oJyxFWP6zlBP5IQQjkwpd1HC6QLyvZhZ9UcYGIQXIhDEEICoJQxFHNIn5RxyJ+WcOiflnBYn9ewVKwTfpPalnGT2qDSj9thd43b8PdW28pFQed+2E5/0N0Winf1sQnTmAM4/yRMIZZm+Ewhlmb4TCGWZvhMIZZm+Ewhlmb4TCGWZvhMIZZm+HR356i0L4NVSC4w19LiUeBxOsEEp6UCYFZOeBelAN7a7M/RYF8aqxApECkQAR0RV2tQKj7SisQqjxIHso5Hup1rTQCobEPkocQiBdO8/lIi3KeBx/zQHnojrJSKw8hEIK6rxSBoEhUcYixjuEEEvpTvUCiflHD5RH/swqWjNVIBi5f9Hn90vofdHKBDN5WBULisIx9SIEMhzHM2gyHMczaDIcxzNoMhzHM2gyP/vaUhng7APGJ4UgoJMZHQ3IsViKxmXAuPR9ery+DJR1lE19rLvzXbfX5/0riUA7bNYijrpSzv6GMc6BeUKKnoYhzqL7AJkaRaBGD7HwgXnP48G6UCrELk74WGvQ3YxsmfS1b6vN0bG6w8nqjno0mbGgyZ31zHnu1JY+tabWymjNUFnqKOLYFogyWi8uuC3HYKxDjoLnoutIKZPNt/aXYxdgHHarL5aEeoiu6qwhxUUTlirrWq+kq3VbVauWhVh/fq7KcIMhPEuRdVurl2FEe3igW3w+x6vhQvRz7R5WWczy4PD5RLoCoXASxhsPHPFRxiCvn0kC5dXC8lkPyCPlJBQv9ukoHl8bX1SzyZ7Us8ufVijx+VsOScRrJI/ZXpX+d+tPKv67/oBF63+qGG/duI2/ixwg/R5qBcyEOK9p5Zsh4luI79a9Pb+B6fCgnMSGSVyHJMSiQtEJY01wG83vKJq5rKVYFQte/Mqk8xkAgQh6PUiD2yIMYTh5agSjyeLIFIuSx+bYQhyIPLhD1PI+d9yt0Atn7lgoKhFcedDVdEohGHlqBiN/z0MpDCIR+x4PkoQjEKg8uEHGCoHo5dlsC0cqD4CcGWgSClQbKw0wgXByqPIiYn9fwcY9UXCaFDuX9dfFfp/+0/K873muG23ducIH0CoHoUoIUiAzb8Z3616c3kBYXDynx8ZCYiNVHQgqkxGZA6PUcOFpWCFsbCl23NRax7Zj49zSowkDosUCIwyoQgzgEoxSIRRgaLEeBYVvBg4hja6OGhnzOG416Njfpeb3ZnNcMbGhRWNeq8Gqbwpp2lbbCYVnVXqyiPzFQ6a4izLusLBdBVH8ISojCwu1qzhBxqIfpbnpT6bISPwS17T6iHqK77a0q5XLsb+svw06IiyIqV9PV/I6HpctKgQbJj2mrDn5tK6o6xGG6aleVKg6/T+qUqkOtPPg5Hp/rL4SovSSJGPO4/GU9o+tZBX1Vp57XoYpDHeMQwhBdVeEoC4IqDitVLPaX1SwBp6fg8iSQuF8VVuX8pLSq551WuDfYDzd5BXIXHWFMCUaBPOJ4zJsbEnL7Y7v9sQza3a/HJyLJ/Hc/kuJTICM6A2ISs8AvPxcOVeXX76wvYiQRIRCtPB6nQBR5DD0PZbQC0cnjCRbI0DPLv71AhDwsArFcosQgEPUXBIU8FIEo17QaUSBq5UHy0AvEKg+rQNTzPNSr6eoFYpWHIhBlzIPkYVsg1osh8hMDf2od69DKQwiEd1mpFYdWHjE/VwQS94tqtQurHAWS75r1VbFrzzvtKJBbMHD3FpeIXh5SII89nvXtj3UkJSUgSZCScB3SY9MhLyoTEhJywbeoAPbXFNXvbCxl25tK2e7GMrYXBbG3sUTHvqYyCwewzUFsw8F5ZjiiRGyhFcn+eoW9mNwFeziFOpSz44eyvXEo25qsbGlWGE4c9ghDKw0tWnloBbLKwJrOAisdRRYslYfhxMCVvQrGLiqBuDSJUSD040+EuBy7uCiiOFxXDJaLrishEBrz2PFWheWiiOJS7Prf87Be24qfXf5+jUUcAkUcymVJCHFVXYUK5v1JJT9M19JlpZGH36cVqkAqFIH8sBylYb0ciThMlwbMSR50WK5xsJxL46cVFugM80gkCkUS9bNKLg2tOOJ/WaNSxeJ+XcYi/yrHNe1nJa4d7/fAvTt34Pa9mxwlzATyYCHWMiRsrVZMt5cRQm5/bLf/1EVCsiKQtPjrkBaXDgmJ2RCUkQsu5UWws77kN1ubUSAtKI6mCpQEYRWGkUcpEEUeDy4QrTzsEYiZPIgHkYfdAtFI5NELRFxN10wg4gxzRR5CIDTusXeIQKy/58ErD5THUIHQmIeCVSBWeQwVSLlOHlwgP6xQBILy0AnkSwVxtJU4ryP4qwoOyYOf16GRB0HyUASiIARC8hACifsVTvuLsj/F/EXRnxJ/VfRcwY9rnut69ybcQYHcudfHUUKkHeLbZYqxTmBy+2O7/acukpMTITUxGbLiUiA2JQOOF+fAvtqC+VtaiudvbCv98xutZWxHawXb01LJ9nHK9RgFYiINLWbiEBgFYpTHLkzwuxoLdZjJg7AlECEOi0CaC4awqcU2r7fqec3A+jaFde161nYoGIWxtqtQh0UYiLGrSndioJAGyoIQg+TixEBtdxUhuqqslYf2qro1bOtbdYi18tj5Ti3biYLY9Q6B4lAvSaKtOHjVoYpDXI5dSEOMeQjoJ2c9PlakQRdDFCcGkji8Pylnxz+jy5PoKw4LKI/TP6piZ34kLoRYrhMHwbus+JiHcja5tquKsHRVGYQRK8DKg6CKI/EXyK/w8V+Us6jf5n+c/Muij8s+r4O273XBzfuDcOfuINy/08dRko1IO8TwmULbkjCGrek2Q5ucbG/W7pDbH9vtP3WRkqQIJD0hBcLSM8CpKg9ebymav6m1lDARiEEij1ggenk8eoGYSUPL4xKIcaxDKw9bAqFK48EFYpUHVR5aeVC3Fb+eFa86rBUHyUMrEG3loZUHVR5aeXCBoDwUyjm+n1VwuDw+oWpDGfOgqoMgeSgCoepDLxB+hrl6uK64iq5WIGKsw9JdhZWHRRwagVDlweWhEUjMb3M/Tvt50cfNP+iAW/dQHlh93LtDArnJUZKNSDvE8JlE23Ik7Apt8rK9WbtCbn9st/9UBgkkJSkZEpNTIDgrA1zLC2BfTUnQ/rrSoL115WxHUwXb0VLF9jVXs/1NSHOlgXILB5vKmaOFUlOcmoptohXJgYYCtr+xgO1tUthtA6tYFHY2mbO9WWFri54tLYU6NrcOz6Y2PRvbFTYYWN+h8GqnFS6JzmI9oxZIBWftzSrOkK6qAZQHIrqqLF1XXCBKtxWhiEM9vwMhcfDxDhWShzJgTt1W+O/7jnIp9oMoj0PvVXDEda3E5di5ONTf8xBjHqLbisuDuqqQ4x/S5UiUy7CLS5MIcRAn8fkZlImVMn4ZduVS7IpAROVx2dJlpbkM+08rVYEoYx2EVh5xX5ezhJ/j/S8I/ZhHEoqDSP51DUv8dTlL/Mv84Jyvy4M7vtcPb955G94dvAvv3r4Nb969DXfepEF0SjbWmzGTGJOSGeLUQwXzC/WZLzl6RrrJ7T/a7Q/lKQ/qwkq8ngxxKYpAPEsKwLGqpMi5qrzoUE052yUFouNBBWKRxJgJRPk9D6tAFIxnmAu08tALpHwEgYhfEtSPefDKQ5WHViD+KAtCyIPO8SC08rAlEP2YB50giAJRr2VF8tAPllvlIQSiSEStPH5Vy9EKJOlXlf8j6dfFOwt+Ur2z832NQJA79+7DrTffxk+QNs1QQhidQPTykAL5rm9/KE9z4H4em5YIsalYgaSkQlhmJniXFoNTdfltx9qK2/vrK9hOlMfDFIhzc4lNtCI52FjEDjQVPfECeb2jiLOxU88GlXVdCq92C0oMaOdZTxA0Hp4rBsct4uiv5hi7rMTFEEVXlei62oQVByG6rN64X80R3VbiYogCfk2r9/SD5ARJQ4u1y4rGPOrUykMd81AvhEiIy7ALcYjDdJUfgEJpqN1VQhziMF0hDsvRVmrlcQkrDe2lSegyJAR1V2kPz6UTAgkhCiEOa1eVKo5f13FIHETKX/DH/2fKr2qmFnzZOLXt+71w675SdZA8+t98n0OXBNImGuvNPF2IBGXFPoHYuhm38G1vcvuPd/tPd+Drj05L5iSnXIfwjExwLy+GvXXlvztQV/G7vQ2KQAjbArFK5GEJRMhDKxBbEnmcAjHKgyqPp0MgVTp5UOVB8hBdV0ME8k41l4dRIMp4h/0CEfLgvyCokYf/R1UsAIVCZ5aLq+qKsQ7jeR5mAjG7tpWZQKjbaiSBWCuOKi3fJP6m5huUh0f+Vy1Q/WkndL9/Awbv34LBN+/C4L234da99zljLRC6abfwbW9y+493+095OEB8SiZWH+mQlpwE4Zmp4FxdDFubKn+3t6nqd/saFXnsbq1mB1tqUBB4jxxoqLLSWKHDKhAFp+YKlbIREZKhwXYhEMG+5gLO3haUioZdOM2MHS1D2d5qZWubSmsR5402PZvbhyJkYUsaijhKLKzrUtAKwyIIA2tJFhpsCUScKPjarWqOIpAKlIfSVbXxNkoEEQLRdlmJy5JsebNCObP8LWvXlRCHOFHQKBDRbTX0cuwK1gFzujQJjXko53mIQXOtPE6iPPglSbDq0FYf/DfLVXGIw3TFUVfan56ly7GL8zuo24owCkQZ86i2DJIrAlHl8bNKhnJAqljKL8uRUpb6l8UKf1HBkn9T9U3sX5d9k/6rOg94Hj8m6vUSJ2DJPgHTi3KbqEI38fO1dPFE/Y3aK9CyyvIPgrjZmm7vzbi8vdhafrQ34/L2Ymv50d6My9uLreW/7e0pDweURyYkX8+EjCSsQDLTwammeONmrCpQIOy7JBCtPB5EIPbIgxhOHo9GIPR75iMLRIhDIE4MtAiEH3Flh0BQHrYEIuQhBs2NAuGVBz4WAjnz2VCBiDPLtfLQCkT8noc42korkDBVIJEoFl594GOrQKzy0Ark+q+K2fVf57P0vyhGylj6ryuQmniiBKsP+mXnKfhBF0wyQFKwXyDWxDNaxM1snsCem9ly9mDP8vbczJazB3uWt+dmtpw92LP8g9ye8nCAhLQMpQJJSofwjGw4Wl2WTtI42FTJ2dNSbSoQ8Vi0E1iFoeDcgt9YOZh4kMOtFTYRbUgmh1pKOAebizn7Wwo5T5pAXkdJaHmtq4yzoVthXY8eoygE6/rKdQhRrOuvVBBdVWKQXBUIXY5Ed0kScWKg4XLsSleVclkSfpiuKhDRbbX3PQXxex4Hvkcov+WhnGFOP0NrFYb1cuzVijw+Uq5tJbqtfD5REL9hTj87exI59YlC4GfI5/TrgZXsjOY3y0WXFT+zXD27nDB2WVkO17VUHrWcKBW6ki5B17MiRJdVsgoJJBmrjYS/ymNJv8lDaVT9IeOXdX/I+FXNmYKvm6D+sx7o/d4gjBs3blQC0SYHuhmTzCSsWrQY5z8I1tcyNsjtP/j2n+4YB5BEYyAZqXAlKwv8CgvgQF0FFwiNbQiBEFIgT75AqOIwF4hVHEMEolYeWnnwykMjjwcViJAHrz50ArFejl2Md4iqwzLWoRGI2ZgHlwc+j/gK5fGTOhb9VQNSy+K+qmdxP61lCT+tYwlf12C1UcuvZ3UdZSJIRdJ/UcdSsNpI+KsCFEgBy0J5FPy05Q+lX7adIXnceP8e3Lv/Lv+Q2y8Q/c2YLIiHLZChr+fxIrf/7bb/1EdqegJczUuG3bX5/BLuG9oqP9/aVoNVB8kDkwx1YTUrwnBsFNLApNJcw3FsrOQ4NVVxnJsx2RCqOA63VqkokjjSXqnDfoEo7GvVsxslomUnysCMHSgFhRLONgNb2/W80aFnU6ceIYxN3aWcjT0q3eWc13oU1vfqxbCuF2Wg4UEFYhwsF7xxp5YjrmllvTSJgrg0iUUcdFHEd6s0XVZKt5UQhxgs5wL5foUijw8qOcc+1FyihC6MiOIQV9U1HnWlHG2l/JYHdV0pl2Kn8Y4adv5zFMUX1ezij9TLsaM4FBR5EPw3zBEhEF51oDzivmxgCT9uYolfNrOkLxvZ9Z80sRScxkGxpKJQ+C8JolCIrK8Ucr5uYFk/q/uvab+q+q+Zv6gqKvq6bn7tD9vm937vDtx+61249fb7cPf++/ghnziCQIyQFKxYZSGW0U6zH+N6Bfa2Exjb24vZugh72wmM7e3FbF2Eve0Exvb2YrYuwt52tni6AyuQjIxYuFiUCCvbiibO6qmeuLqj9o8WgbSWo0AqpEAeUCAkj7ESyDasSAgxcM7lQeMdRoGolygZMuZhFAjKgwvkBxU2BcIrD7pECQkE5TFUIOIcD+WquiQQkodWIOJy7Fp52BQICiLxR00s9YdNLO2LZk7mFy3fZH7R9E32F03/iHyU86NGojH3x02xRN6Pm9wLftS0o+jLluUIlPy4Hcq/aIf6H7ZBx4d9cPett+H+vQ9QIt9H9ALRikMwOoFon48O43oF9rYTGNvbi9m6CHvbCYzt7cVsXYS97QTG9vZiti7C3na2eLqDBJIVDRdKEmBle/nEud1NEze01/2Rxjz2Y0InqAqhLiyShVOTIg0ujpZaFRSLhsOtNSqKOI60VSuowjjaUa3DKBOntgrmiOJybC1lh9pK2cFWlIjKfkz0JI09bVZGKxCjOLZ1lOrY0mnOG10KQhhGcWxCCRAbeyssbOizsv7G8Gy4WckRwhCiMHZVGQfJjV1WW9+s5ex4sw6FgRJRxz74WAcKw3KCoFEcfMxDGfcgHD/Af2/1kuzEkQ/w3wohaXBxoCQIy/ken2Dl8UmdpdvK77NaDnVdEac+U37Pg+RBiKOtzCsPuiy70mVFWH/XQ/ltDyLs61rebUXyyPq0hWV/1spyP21leZ+1fZP/WQvxj8hHBZ+3Is2NRV+0xBb/kONe+nnLDpTG8rpPu6Hr+/3Q/+5tGHj3HnIfbr77NvIuDLzzPhcIHWllWxZDMSaSoc8n6xDTrfMlzxJPYWiPWyaBxMOl4uvwWkuF28KuereN7VR9jL1ASB5agZA8CK08nmSBaOUxJgJBeSgCMR5lhf+eoxSI9gxzcZQV/XogwQWCFYbnJ1h58HGPOnbiozqURr1FHrzrih9pJQRiPVGQxj50Yx4EjXt8VW2BBHLtq1oW/mX9v8T+sP7nSZ/V/zz9s5ZBFEdW/kdtWQUftvkVftTuV/xh+5aSjzueI8o+6gCi/GOsMJCqTzo41R8jH3VB3ae90PbBDRh86y7cv/sW3H9T6bLiEnnvPtx6+12sRt5FJdgvD0IkBqMQrM+lQCRWnqIQ0pigMomTnpYNIXm5sL+hpGFDR0XD651VbHtHDdvbUckOtGGiacNEg0IgWTg3C2lYccJ5Wg6316qgTJAjHbUKnfgYOdqFCUmDmE4cRolYBaLnQHspZ297iY4hQkHpEDuxrRnbURJabAlECMOIEMfmnjKOEIdFIH0KGwysv6EguqaMCHFYMByeaxUIHapbidLQXwxRQPLYfs8qEHGYrjg8VwhEiGP/+zUcWwJx+V4Nc3sPK4z3q5k3tvfBtiew3cl3UQ4oFjpE1/OTSuaFUqAuK7+Pm1jARy3s5MfN7OQn9ZauKzraSkAXRaQjrgKxukD+JfAnlT8P/GnVz89+XT2I982BX1cUnf1ZZTBx8euavSiQmaE/qZ+Z9GkzlL7fAU1vdkH7nR5ovdsD8BzuxnSuxkjMVJmB0DLEVAQ/w+PGOyATVOixAzg4TIAJ4ybgJ8SK8lx/syUQwQQuieHQC0Ty3ca4fzxFIeShiIOObneAaZCdXAxRWUXgUlvSsLW9rGELimM7SmQfJv8DWDnsa6vlOLXWscMtdVIgT6hAxIA5lwdWJDtxmkIVx/Lb5VR9IOLHoMQvCR56v1YB5cHHPtTqwxWF4aERyHF87oftAt6rZX7fr0OBoERQIHRBRLqm1clPGpn/J83M77N65vc5yuOzcqQUxVGu8EUpCqSMnfmynF3E6uPap/X/Ev5x488jPm36eeRnjYMRnzY0I0URnzcGR35eHxz3ed3exE/rZqZ80jiz8HutXBr9/X1wu+8W9N/sB8zBANM1kBjMnk9TIWlMQWg5+hjQZ3iCkIYDPlTQikPIQwpE8m0x7h9PUQwVyHj8ROXHF0FCRjG41Zf9dkdX5W93YSLf24GJpR2rjjb8ZtpexzncVs+OtNZzkehAWWg50oHtOIo4jnbWKajCcOmu5WglIiCJOKHAHNtRIsjBjgrcNslDEcg+TPBGgezm0tBiLhBb0tjeVaZjq8qWbj1CGEZpbO4r1/H6DYWNN/VsUFnXr8fYVSUuSSKEIc7veP1eNccoDnFJEl5t4Pzd9+o4e7ASIfbhPOLA2/hviRx6S8HpHfy349Bj+i2POhXldz2OfID/Tj+g3yyvZ+4oDOUkwRp2/Pu17PgHdczjozrmjhWG58eNvMvq9AcV7MxHFSzg8zrm+0XN//L6suy3Xj8p+q3/j4oGA74oGjz1o+IiJJg4/eMS5zNfli649lntgrz7nVBz6yan9vYNqBns49Dj+tvd0HynBVruNkPLm23QfrcDem/1wI2BPugd6IeuQRSIsitbEYKw9ZyLAz8LE1W4PJTqw1bVoQenIkaBiHESY4IQohhvE3FGu4JZ0pF8dzDuH09RkEC0EqFP0zSIS8mHS3kFcKyh7Ld7OyoRTDhYOZA8HNsUeYyFQEgeWoGQPB6GQLTyeBCBaOXxJAmEqo1dOH3v3Tq2704d24+VCHEQpxGO97F6RMk4YzviyFt1VlAsR9/Df+P3BfjvhPKgS7N7ftjABUKVxwmsRKj7SgiE5OHzQSs79YNmdvF7FewsdWf9qIW5fdnyv/x/WPXb85+U/Tb4w7LBaz8oGwz9oLwICSbCPqxwDv+4ckHK+40LGm72Qm/nIOdG923d45vd/XC7pwPu9LXD4M0O6B/oQnn0cIl0oWQ6b/cpFYRA7NoTx1khWQhUYcAE0V2lSENglAcxOoEMTRBSIBItxv3jKQv88ODbsAhk0jRwLc97YW9D/gvOTWX/6dRW9Z/7OmvYHkzmBzvr2SEUAcnjIEIyIWGQSJzatdgpEBWXrno9GqGQQJxViRzqrNRJZJ8N9nSU6Gkv4+zqUNjZaYVLorNCx47uch3bevRsVXmjV8EojDduVOnYdFPhdUF/Bee1AYX1Q3gwgbxxv5ZDvyRIR1xZxDGI4kAc71hxulvPjr6Jf+v7DewotnN/u4md+H4nO/lhL3N7q55z7G1s804980AZHP+kjR26XciOvYdCQEl4Y4US+17Hn0Jv1/8/gW/X/73/9xreOfNuwzuB7zUXnXq/M/js+63BV94rcz79Yd3yVz/sWH7l//27cRHv9kNBfxsU32yBkptNUNbfbKF8oAUqbrVC3UAntPV2Q093H6e394bucW9vL/T39sCtvm4UCHVdqfK4bcXyvUgwHqXhMN4KycJhkgUHDUIGeimMViDGxCAGyJXnYr5RFLYQ7SXfTaz7icJTFgaBTJ0C2+uygte35wUfailjLnS+R2ct24OJ/mBHIzvU3mgRCMliqDyeHoFYqozvqEBIHo53UPg38W94p5F5vN3BfL/fzQ7erGRHcLrX221cGsdQLm4oFM83UQxvYbWAjx1vlrKtrZlsQ20SVmuZn/u80xjl/lZ1lP8nrc5YgSy/8L2W5Veqsh3CK3LGRdyqh5B7DRA92ABxg80QfqcTopCEOzUQ+nYLuHz+Fpz68SeQe+setHbchJa2Dmhra4P29nakU6GzCzq6eqCzuxc6e7qhEyVBdN3A55rH3X290NfXhwK5AbfxfvAGikUVSO8tqka6+KHoHDXGjRuvgB9OwiKMcVM4WmFoRWC9SYFIHh3W/UThiQvjFzJ9GAQyZQrsrc4K3tSSF+zUXMaOtdKgt1J5OHc0M6fOZkslIgTijGLRcrirQYdLV6OKIohjPQ06XHsbdRzrqbNAIjnSU8sOd9cwZ8Spq9oikgOY7M3Y21mq42kTiBCHODFww20FqzhqOcbf81B+w1yBBHIQJeF8CyvEAfx3QFwG8e97t5l53G9jx9/pYn7vdzH/9/D+3U52HKd53WtmXrdRInca2JEb+HdozWGba5JR4vmfh30+EHX6+61RPu/WOgd80Lw85J2W5dEl2Q4Z+TnjitrqoaijAcpbG6CytRkqWtuhsq0bqls7obSrC3Jv34S0rnao7uyGZpzX0t6GtEBbRyvSzmntQql0o0RQHkR7Xw/SBx03bvB7zs0b/Hlf300Y7O2H+z39cK+3T+3C6oKB/i6sSrqUfdwoEPxgSoFInkSs+4nCExdaefAPly6U64PSMSYOJJDJU+BQRdbdbU15d3kFogqEZEECIUgeilAa2RGsSJ51gRglYo9AbFcfQwUioHM8tAIhadBRVsoZ5nVs570GPlhOXVcHbqM4BvHvPYB/71sofvy70e/Cb6pIY+uKEtnyrEj2YuJFNjviFBt/3o3BqaMMThxi4L2PgRdyfC8DXwTv551xXXq2vQzO91TAme5iiHy7FWJ7aqChpwOaauuhsa4emuoboLWuATrqmqGjthU667CqqEcRNHZBXXU9rzaoDbVta0N5EFwgCu1dbTqBUMVhFAg97urrh5u9AzqBDFBXFlYet28o6Pd3+i0HumkSskYWxuRvfpMCkTw6rPuJwhMf4aEhEH4tFEJDwyE8JBKigqMhNjQeEiOuQ3BKOhyuyP7d7pai39Ghss6dtYioMhSBUBVCWITR2cQ50t3MEeI40o2CQVx6mnQc621W6ENZIK43mnS49KI4VEgeRoFYJNKlsA+Tvpa9HeU6dnda2dVlxZYgbCHEYeSN3kodW/qqLJBANt/EZE/cwsRPItAIQXRLia4pLgeczk8OvFXJeX2wmrP5Ns4X8+jEQZy2ZQCXbS9kq2uy2JLcOLYwKYTNj7rIZl4JYA5nPVEKhxn4oxyIABcGfkcQZ4UTTigJleMGfFEmfgf+CXwO/NO8o/tg6aE9sHb/Ltiwd5cy+EwDzzw568Hv9/gh0B6BRAPK4ncvzLFeeFCBrnZrG3FRwnG4bkKpn2mYg+6tiPUrA9p6bH+IledmyyjbtedmXLdthm5DInniQyuQ0GuREHE1GqLCEuFa3HU4k5kJzhW5v9vbXPI7OmnQCeXh1NmoCkMvECGOp0UgWnmMViBWWQxlc1+lDlF5bO2vZdsG6ti2wUa27U4T2/ZmE9tyt4FtuluPIqjjMiDEmePimlX0O+gb+7AywjZ77zezHSgbYicKiNg1WMf23MJ5yMH+OvZaZRbbUJjCVqfFsFVxYWxl2GW24PJp9tzZ42zaBV+UB4rjOIrEG8XgRVUG3vs46oXhg/MJbxWaduLQP03wOvBPi532wWt79sDO7btg35ZdmPqGikOLktjtx5rsFYxCMWJsby4OwvwDav22JyRnFQhhtgxh781cFmYM3YZE8sQHCSQ0NBSuhoUjkSiRaDgfGQsu1xPhUHHWa/yy61R1dDUhLRYOd6p0tyoYxCGwKQwV174WBVUYbjdbOFaJNFg41lfP4TLpq2OHe1EmCMnEsUfhQE81Z393pSl7uio4u7sV7BHIjt4Ky2OtPLRdVZbDc29gpaBBdFlt7seqAdmEIiF45YEVAx8YH6ji1cWmAZQOPqdKYtutGrZjAKuSlny2ti6TrSxNZkvzYtnMuItsVuxFNiMikE274s8mnfdmDifdMMEfZeOPH2WTjruyiV4ubLL7UTbZ9Qib4uKEjw+z8d5YbXhhpeGF9x4oBIEX4o3ThTQs4sAqhUPTuED6J3oe6F9+cB9s3bkHdm97UgVixPyDKbDKQgpE8uTxxEeoViCh0RB8LQZOxiTCvowU2FGZn3WotVapOEgcnW0WDtM9iUQIxCCOp1UgZuzssY6FCInYEsjrWHVoIXnwsQ9cx2u43fXtpWxdSzFbXpPNFpdfZy8UxLLns8LZxPhzDMIDGFzyZHAaEzd1GxHHdjJw3Y3Jfj8Dz4NK1UBJ//gRLowpvsfYdF839twJd/aczzE2xcOFTXHD6ch0dxcOTXPwxHV6oAwId1xeQBLxRIGIaoPwwrYqfDma7+t0erLHodOr9u+DbTsUgezdugt3cXNxCMwkMRxGAZhJQ4ux/VDMP5gCqyykQCRPHk98KAKhbizqwoqGoKvxEBiXBXsTU2FfWXmWS2c7yqFdFUeHBZqmoAjkSG+LKTaFoeJ2s02He3+rDq1QlG4u+wRixJZASA5GxDyFKs4B3OaBG/Vs7406tqtfYQeBVcKWvgrl52rbC1EslWzHjVrOtt4qlE0124Gva+9AE9vf38R2d9WxnW1YYTSWsM1VeWwddTdlx7MVqdFsZUo0m3clkE0948McvDHpI+PpHpP4BMTB/QibMAx8vtqWmOihMMHjGK7jGIoAqw+sRsCN5EEiOczGeRzRQdtSUJahdXKpWARygAtkz/bdsG/bbs3Obp4ItRflUHAYlknj9IhLh9jC2H4IuM3hEK/LbJ4ZQwfNh8c6nG68DV33g7x+yXebJz64PJCIkHAIuRYLAWFJcDgmAzbEXIe9lfVfHOnsZoe7OplWHt9lgWjlsQ/b7+usYnThSGJ3Wznb3o5VSAfed1L7Kranr5ovx3+lsCmfra/KYisKk9nCtAg2J/4Km3j1NBt/CSuLsz4M/N2Ub/ZulLzxWz0lcawIKHGLhM8rCBXqhqJKgrqiBFOPWR9PcrMiBMIrBk31QBIggXCJYDUyjrbt6sTvCb6MBi4ftT0xzsWRusX+feqlE9OWBJ2ctvrAQdi+cy/s2rGbS8Qqi6dTIKPFTBLDoVWG/mZYt9lrJ4ztJM8UT3TQsTOxYWFIBBIFl2KS4WB6JiyKTxw/IyJx/Pbm7v/DqRsFYpGFlSM9HUibhaN9raYYxTFUGO0GzAUiJOJys4EdxUqAIIkIkTipHOqt0WEUCZcCiaRHwSgPIRiCBuEde+r4Zeu31eSz18oz2SqUg2B10XW8T2QrcmPZkoxI9nLyNV5JLI69yuZePcumn/djM8/7s+mBx9kkPw9M6lgF8AR+mI13PcomuaqSQFlMxURPTKMuJ4M0bEEyEUKxSIQEIsYvUCJCTHxMREUrnYnux2zgxu8djjqyyT6u/236xRMTUSATVx/czwVCg+g7t+9ARVBXkrbLRo9pUhwBM1HYy5B1DUnoCsbpAu2Hd7h2Dx2T92KK2bKS7yxPdJBAEiNjIAlJjIyDy4mpsLMgH6bERE+Ea+ETd7R3/7tjT6cNgVjlMVYCcUZ5EEIejn16gRzoq2H7e7H60CAEYhGJKgqCzhsRZ7cLjnTXs31NZWxTaSZbk5PAnr92ljMLmXHlFB/EhgAUAw1Eux9kyhiD8u0eXA4xcNrLwHGv8k0ek/ZkTMpT3KwYpTAahECERCwCUSsQIRBRyQj48qpIhopD4MZfq7It519P9nCCOUcPweo9u2HLtu2wfft22IH31vEIWxIxG5ewjXV9D8bQ9elv4nUNd7OnzcO/DX0v5sjbs3R7ooMEkhwXD9djEyEZofM+HIuKYXFGesSS7PSI/TR43quvNIyYSYNwudHGEeIQeOA0QgjE82Y7RwjEq7+N4zGgQBIhcRzta2RHetUB9f4m5jrYwo7cauJnVTvfrGeO/fXs0M06jhCHqDIIGiinEwYP3qhlO1tLsJpIZ6ty49ir+YlseUo4mx9xgc0I8mdTzviwyae92YSTnmx8AFYN/u6IK4MTdPgrJWW890ToaCZPJWHzbh/PwwruzjqM3/55UuaM9HxkdCJSp4lxDyOWLjEb96LdJE9XC1M8XHlFNPXg/opFu/fBa3sPwsZtO2DLlm2wdetW2LrtDWVH0gSdn2Ge+B6Moed+6DFbRs/wN8ulTSyYrWM02HszW1Yi0d+e6CCBpCamWAjNyIKjpeWwJj83Yl1RdoRjd5OpNLSYyYOwVyD66qOdS8NSbfTQ+SP1HBKIcp6IIhFeifTj/QC207CtPp/tbinh4yE0n66HRY9JOD73aPymmh1sLmU7K7PZ1qI0tiEjlq1NCmdLo4LYwmvn2GR/TzblhAeb7OvOJvi6MocTKA9frDCOozSoWwjlMQ6TrhgzoKSrJP7DnEluzjqUeVpEsh/p+YMi1qNgFYMLvydhENRdJh7r2+kF8pyXK5t/5EjFjiOesGPLfnhj83Z44403YMvWzRxjGBO8MZRTDu1npDBbRs/wt6FL6MOsxfDYezNbViLR357ooJeXeT0dyeREZBfAsfJK2FJd+dW2uvKvjpiIQSAEYRHFzQ5TjJWGseLwGOhg7re0oGAGcTriebuDed1SpCK6szz7m5lPfws7PtDK771vNjNPlI13XxM73tvEthaksM3ZiWxdShRbHXeNLbp6ls2/fIo9j1XFdD93Nu34MTbVBxOnFyVMTPhYRYhqYZy7k2Ugmc6loCOgLN1B6pgCDURPcEOoHWJN1rYEokxX0Cd3BWPi18rgQdCuW3mP4n0S9L4J8TeY4nUMp7to0AuEusdQIHuXbdoOu3cdRHlshU1b3kA2waatG5WdSFywkLB+EhTGOLQfRu1t6AsVDB9mS+jR32TIGF0Y96gnOGgHF/IQAqEKZE9z4x/3tdX/8VEKREjEKBDRdSXwvNnKDjaVs9dQDMuTI9j0876cqWe82OQAd34uxDg6T8H1IINjyNEDzMHlIJvo6sTGHzvEJh1z4kzBBD7Nzcp0TP7TPHj/viXZCymMd6WuKM1RSQjvqqIjk1AeNPjN4WMaIlnbIxAziWgTv1YED4p+/d9OIC5/eNHf+w8wZdK4VVt2w4bXtsAmVSCvb92EqAIhpEBU9DcZMkYXxj3qCQ7awa0CyYaIrCI4XFQO+1pbUR7tXCC2OIpSICwS6e/gWMTR38khSWil4X0D7/va2HGc54Xt3ftamN/dPnbyfj/zvd2Nz5u4NI4PtLMTg53Ms7uROTaUse2FGWx9WhxbHH6RzcOKYiZWFDNPevFESNWDg+shLg1j4tYmc8IykKwmWHE0kgWNIHiloSIGlye7uSnYSNijR6xHRaxfRT+wPTLWdSnrp24pUVFpmeSN4kBIIHrcLEz3OPaHed7uKJDJ45Zs2AKvrt9sEMgmffXxXRCI8f0YwmQJA/qbDBmjC+Me9USHA6Sn6AXiWFDy8oG2NpRE+xBpaDEK5NhA54gCEfI4MdjNfLBNwGAv8+5tY34DXexoUzUKIoGtS41lS6KC2ewLAWziCXcmzpgWJ7nRQLWDBw1O4z1KYxxWHXRPEpmC37D13/atAhHdVNrEypOrVh6IpbpQ0SV3QiR3yzStDB4EzboJjTwIIQZtZTAc1O2koIxvPKhApnq70/jH9593Ofz9Wbt2wuqd+2DT1l2wdftOeGPHdti8cyu8gQxJuE/Y/q9N5trb0BeqYnw/hjBZwoD+JkPG6MK4Rz3RoQhEkQgJpAQO5hbVCIFwQaiVxXBQO9dbXVwiWkgg1EVFlQYJg/DFacdvdLANmUlcGC9ePMsTH50XMfukH5vu64HJi5KhMs5Ah8JSV9JUnD775HGLOKiryiIPlMokb6wmCJSI6LYxwzyJazEkdBVLYnZ3VzAk6gdHrEdFrF/FKIiRsK5LWb8QiBCGESEO+psruFtAgcRMP3woZrmbG6zbcwi27tgH23bthm27d8KWPdvxfvvQhPuE7f/aZK69DX2hKsb3YwiTJQzobzJkjC6Me9QTHaICyYaspFyIyiyB/XlFNfs72pkzVgsjCURUHdTODasKUXVYqo+bSjeVkAeJg6DKY116AtuclcLmng5gM7w82XQPNzbb14cf9SNOpptIJ9y5ODGHY05cJpTgqcqY6nWUTfN24d1XhEUeyEQvrCTUQ2qfdoFM8rAKRNu1NBJTPQlFDMaKw4gQyDT6uyP09yee93JnczyPxcw56hQzc9sWWLVjN2zctgt27NsHO/ftgR37d+H9rqEJ9wnb/7XJXHsb+kJVjO/HECZLGNDfZMgYXRj3qCc6HCA7PRdy0wugILUE4rMrwb2m6X8/2NPNDg/0MJeBbuZykyqLbh1iGt3Tz9q69HUwd2zv/+Yg80Rp+NzqYcf7u5knTve7fYP59HWy7cV57IWrl9hzgf5sUoA3G3fcjU329VSSnjGJ6tAnXJILF4x2upoE9YPBCkZB6JZDjPONwtB+ux8e/XaNr0k8NyZ7W4gqwGyeOWL9ClRNTPbB1+XtxqHHZs8n+1iqDTYT3wdKg73o6f7NYk+3b5Z6e7yyzMf9lfXeXrDLzRMcXT1h96FDyAHYe2gfZ0jCNfK0xNP2emXIGPtwgLLiSigsKIeM3EqIrmgCn47u/3Ds72NOKIQjt7rZkf7hBULycENZuN/sRnH0MY+eNubX38OcG2vYurQkBpiQHPxQGCc8GWCCpvMoxvu4sYkoDxIIJTBKgCIR6+WhVCNaYZgKhMCkqU3gAqMgjMsZ54+1QKwJ3t3ytyGEUGyjdEFZxaAw5ThKGhHPhxPI8/h+X8D3vsD92N8v93T9+5WebrDKxxO4QDy84CBKZO/hI7Df2RkOODsiB/WyMONpiaft9cqQMdZBJXZFUSWk5RXB5bIy8G1sBJe+nv84MNDHDt3uZU63URiDPcwVKwq3wV5+T5UGCcPjVi9/zO9RHu69WIV0t3OBeCHHWurZwaoyNvPcaaw6TjIHlMV4H+V6UA6Y6CYdd2cT1GSmTcRaeSjoE74tgWiTtxZju5ExbF+T3IdHCEKPdWxh6BiDGUIcgmk+nhyztnqGF8gU/HsT1nWLNsryM5BZnu5svocbW+ThahHIWh8v2OjtDbs9vblA9h89BgePHgXHI4fB8aiTXhZmPC3xtL1eGTLGOkggeWm5EJOdDy4VBYc2VuYfourDceCmRSBHDQIhYfCKA+VB4qBuK6o8SB4uLY1sV3E+m3PpHAMaw/D1RllgsvI7zu+nn/JTBIJVyXj8xkvnVWjlMfYCMdm+qSzMeLQCGRlqq0hCz+gFstjTrWult3vXai93WIcC2eTtiRWIBxeIo5s7OLm6wmFXFzh67IheFmY8LfG0vV4ZMsYmrAM0dCvKKoKYomI42FR+aHVL2aHDd26xIwO3mPPtm8z5Th8XCK9CUCgkERKIR38P8xroZf53bzGfGz3sOOKH4tmal8NeT7/OFly5xODYEQaOB1AU7gZc2UQUBcmD7kcSiLhKrWA6LkcYp5slb8LYThlgHg4PPZrk/iCYJ3vbTLEkfAU6+mx0eOmYckIP7zbUQNug7QqBUBfW8hM+Xat8PLuWuRzF6sMTtnp5wW53M4G48D1KhgwZz0xoBTIBCrNLILK4FPa0VL61sqXiLZfBW1hZDKI4brIjt/uYyx2sPFAeQiBUfVDF4Xmjm7l2tjLHmirm3tbCFoeHojRc2HN+vmyKjzcKwo2Nc6XflHBDUbhrUAQieJIFMuUxC8QoD8JcEsPxLQSCf68XPI6y5X5efquPe/ktP3IY3vD2gh2eHrCXC8QdBYLyOObK5SEFIkPGMxdCIHSt+QmQl0MCKQfHxsrfb2io+L33zVvM98Yt5narn7ncvmGRhxDIsZ525ndngHn0dLBdpUUMjjohzmxm4CledZAkeOL18uSHoT74iXAqQgTeymGmWoZ2D9mDeaI3w9rdo+0KejCMid0MY7JXQJEhU/1wHcj0EZjq5z0sxvXTdqcf92IzfTzYbG83Nt/z6J9QINNRINNXuByGbT6esNvLHfZ5uEuByJAhQ5UH/ViJwyRIKC6Di5XlcLi15veb6yp+fxzlQQLxGOhnroNDBXKkq5WdujfI3Dvb2GvpqXycY/JxbzbOHZOzrw9zOHaUjcfKg35PQnsew2gQ8uCPNQIhHpU8tLIwY4qJFEaDURZGjIndyqMXCDHjuAdKxI3N9jn6pyW+rtNXe7lOX4+C2OZ+DPZ4usMBd0UgvPtKCkSGjGcjgoKvwJUrV+BqkMKVK1fhUvA1OBsSBscjw+BsYzksjw+e6DbQ/o1Tb8c3JA6PAaUCIYFQFxadD+J55wbzHOxjXjd72AuhV9n8qzTOcZgfWTXB28NyeKhRBg+KGJw2F8FQxKCwmRx0YGVEDJUEbvc4gdKjwWZNF8+DoJWDGcZETkzyszLZH8WMCHFYGSqF0aBdv34ertvfHSXk+tVLJ9zgVfejsNnJEWAiftGYgF86iPGIA4E7lo1BZ5qlRYYMGU9xkDysArmKj69B0JUwuHg1DHwiI8CtoQiWZEXFe93vY253+lAaJA61+kB83h5kPvdv8d/+cOluYw7+vgycDrKpAb686iB5PEyBWMZG1PWZycKMbysQRR7E2AhEKw+R4B+1QLRMDfBi0wI8ELeCF31d4bVjR2CHo5O5PAgpEBkyvvshKg+Sh8I1CLkUBqEXI+D0tShwry6CjVWZ8V73epnX3X7mhtIQ0BFXrje72EmUyMHGWj7uMfmUPxvn48VmnDlpEYc1EVPiP6ZDf6jryAhxaNfJxWA6YDwU6s/XMjR5+6gYkzi+Fz89SveRMt8sGY+Gaf4+Q5gaoGfyyaHTKLHz5H4K14FMDzg+Kqad1GNcP22TmBHgzZ7392Sz/N0LFvm4wKajR2CPo7MiDvphNEJYQchDCkSGjO926AVyDa5eDkOBRED4hSgUSAycaK6B3S1lv6JrV/m+eUs5TPfWDX6Yrnd/LzvS3sgOt9SxCQEn2Dga7wjwYxN9j3N50NiHMdE/bIGI8xfMZGGGvQLRy4O+lQ8VCCHmm0lhNNgjj8ctENrexFPKPa2bBPLScfedq9xdYMthEojjUCMMIw8KY3MZMmQ8xWHtwhICiYArl6Pg0pUYOB4eB75tTeDc2/Inrzu97MS9W8z7Vh+jw3SPtbcw1/YmNtHPlzPphACTLyVgwXHRHWQViHisP3HNnKEVh4I14ZuLwjZiOXMsr1sjD8IoDvppW8JMBvZgSxS2MArEkvRVcVgQ021ywsBxNuWUFbEd8ZzWSb8B73DW+5+nn/T8Z5g3d9yOI66wef9+2HsYKxCtDUzEoZ1tDzJkyHhaAj/sQddCIDgkBMKCQyHsSjhcCYqAs1cVeTjGJ4BjbQW49Hf86fi9AS6Pw22NzHfwBjt5t58dqCxlU4/7suk+Vvi3dy12CGSKZmyA0IpiaMWhH0OwHF1kKgszhkpDy7MmEK08CMt2TvvqBALnPf95xkn3f4ZJ08bt2+PEu6+27N2jZH0hDoM8KIyCGAkZMmQ8LYGf2IsR1yAo7BpEXQ2H6OBorDyi4HhEDOxNjoMNmUlb1hVmbKFLlPi/fYe59nUw//sD7Eh3M9vbVMWmBgawWV4+bL67D5vr4YuPfdkMH0w+GoFYk7OSwId2OSnzp5/AxGppa8UoDAG156gCsRuxnMpzfj46pvn7qigJ3procbsmiPlm3UP2YJ7khyISvHH69NO4bS2nUOTD4qeDREFMP4PPEfHcwhkfNinQh4077/XW7ACPt7YccgHn/Udh954DsGv/Ab08pEBkyHiGAj+xl6PC4EpkBMRejUJiuEA8ouJgc3oCLM9LilqanRRFV9UlgdCRVvQbHitS4tnKjHgGWE3MVgXyAgpktudQgdC3dyXpS4GYYRSCLR63QMRjWidJZOJZr4q5/h4Vr+4+CAd3O8HBA87wxtZtUiAyZDyzgR/44KhICImMhNjQGCQeouPSITA1C5yK8mF7VfHg1tqyQY/bfezE/UE+cE6/5zH51Al+0UNKuNOP+3BpEPSYMBuEtoUxoRNGWeiw0RX0sNF2H5lhTOQPinmS11QAo8S4nudO++kQorDF1EAr1J5+5XEmdWmd9Q6bd9Iz7A03dzjo7AqHnY/CEefD6o4kQ4aMZy9QIKExMRAWTfKIgZiweEjMKoJzmXlwpKQIDjXV/R6rjt8HvP8mPwKLBDI76DyXByWWl4PO8aRuqTYQkocUiP0YE77ATA72YFzPgwpk2ll/3n4OvsbZ/j7fPHfG++X5Ae4vKwJxkQKRIeOZDxRIREwsREbHQkIEVh+RyXA5MR1OFRTDkcpy2FJW+PuddVW/9743yM/38OjrwiTlx2Yi/NLgKBKe8HkyP27AvgRvlMdIiPUKzLqFHoQZmGy1GBPxSBgT9bfFLLnbg3E9MwL9ddAvPpox41wAZ7oKCWTm2QA2D6tN5JtZZ46/vNjf8+WdLu5w2FERyOHDUiAyZDzTERMXD7ExiZAUlQgxMSkQlFsA6y5fmrgwNHja7oaabw60N31z/O4gW5mewuZcvYzfvn3ZrNP+DA4fYLPwm7g1qUuBPEzM5GAPxvU8qEAIev78GRLI8b9Z6O8Na7w9Ye8RRSBHnKRAZMh45iM+Jh4SohWBhMengH9uHuzKzdi6Mj05xP1uP/N58y57NS+XTbl4jgEmcDr0kyfcAG+OrcQuMJOGFmMif1w8qCgExkT9oJhJwB5E4jc+NyLEoEUrCTOmncf7Cyf5/ZQLfmzO6eNN6718YLeLF+w/6gZOh4/x7isXJyc58C1DxrMa9IsfCao8iGsJKXAsLwdWpSduXZWfEXLie28xj8EBtq+hgU08c4qBl7sUiIqZDEaLVgijRQjC+NzIaMRBkDSEQKZcCGATL5FAvJu2uXmBk7MHOB4mgRxFeUiByJDxTAcJJCZMGUAnLsYmwoHCbFhRkHH5jcaqL/d3t7ITb99lUy+dZ+NPn+SXK6ExEJ54T6I4tJgkaWLERG2yzGgwS8yjwd4uHltoE/RoMUvgo+U5TPTDMfPiKQvPXRod05Dxl/3Y3EAfz+2uXuByyAOOOGH14aQI5Iizk7onyZAh45kLEgidfR4epHAmIhoOluTDtvbalAO3uv74QkocezEumk0+F8jguCcb709H+uA3Xkr8D0kg/Egkk+XsgZY1k8JoeFwCMUv+DwMzaWh5UHkQ0y4H/Nv4y77/hgKZRt1Xbgfd4OghFzjseAScnZ2xGnFU9yQZMmQ8g+EAF88FweWzQRAceBFOBIXAyrCrsLOrKWVbT8Mf4epZNjfqGpsceIpNOOXHpgWetghkxikfFVUQJsl9uMNUBWZJ3R4sCd/wfCSMiX+0IhDMPI/JGTE+F5glc+oWMmLW7mFgWb9WCCZo5+sJ4AKZEHTi31444zNtDwrE9YArH0A/gPLYe8QROag5eVB7OqDs2JIh4xkIBzh96hycOXkOLvgHgue5S7A87OqsHZ2NhZtbq76BQEzwwRfZpDMBbMppOrTzpOVcg4clEG2//mgQif9pEYhWGlqM7R4GuvWrQjCThxlagSA/nHrpxA9fOuUFu495YPXhCoew+tjjfAh2HTkAew6rlzLhIQUiQ8YzFg5w3P8U+PqdgjM+AeBy+izsLM5JXVCQ9vG8pCg25Uogm3Q2gE086cvlQWiTNkHnhGjRziOMiduImRzsQSxvK4Hbi0i62rGCB+H5S6eHMOOynueC9BjnPyx028B/Q8H0YOtj43SB9bWdxPdwMmPeBf+MpQHesNPVAxydXPkVeEkge50PwEFHFIglpEBkyHjGwgG8A05xiQScCIDDgWdhWwkJJOXjedEhbDxWEFMwWRNagfAErpGELXkQz6pAhkvqWoztvi1D1m+QhFYc2unTBGI5FMisS/4ZL54/kbHC3xu2o0DoDHTqvjroeAgOHToEToekQGTIeIZDqUBIIt4BAXDg/FnYXpr7zoyEsL+djJXH7POneJcVXdqCBmzp7GTTZG4iDss8jSz45TE0zwnjoLC9iMRvfG4v2uRv7baxH7PkbcSYzB8mQgDG5wIhhueunh2R6SFWnr92ns0Nu8imnDvBZgUFbH3pyqmti3zdYMNBR/B084FjB5zBdb8zHMXnRw45apRhvD0ajVi392jWL0OGDLvDAXx8A8DzxCk4cjIAtl48Q5dwf2dm+JW/fe50AHuertiKEqDEz+VBidooAIMobFUcYh3G6UIAtjBL/lpGaqcVhRZRKZjJwR7MhKFFm+wfBUIUxucCo0CEILTi0E6fqjIr9AKbfB7/XS76swUhZ7cuDzqzddFRJ6Afkdq36xDK4wi473Pm8nB2lAKRIeMZDgfw9fYHtxMnYfdZf1gXdBpWxIb/bPbli/9t5qkANiPguJLoMRFTkjYTgOhCssWQriJN95F2+mixJYTRYpb8R8PMoEBTjAn9UTEz+KwOoyBmhJzjPHdNQTzXTp+GTA1VmBcTzGaFnGfLksJ/D7OnjoOZs8Zt3OcEe51dwfmIOzgfOgKOjs6w/7AjR9mLCOPt0SR4sd5HtX4ZMmSMGMrHj27+bn5wzMcPNp73fX7J1YDnX7wc+P/NvXjuP+YGojRQICQB8S1fYJQEYRSDEV3yN5lmC6MobGEmB2LW5UCb8ERvIoXRYBSHwCzZPwhGQYzEaAUyI/Q8mx52nk1TeSH2KpsVdo7Nj7hwa8Hp4/DGYVfYtQtl4XgU9h1yhkNOznwcZDc/jBcFMk67N2lvjybBi/U+qvXLkCHDNLQfuwmc8TAJ/I/6gounLyy/5PP8nGt+zz9/IeD/e+Fi4H/MOXeKzQg8gYmeKhCF6ef9LIhpQxK+QQ5myX44zLqLzLAk6hES+Ug8f+WsDrOk/G14/uo5zpDErSLm28uQ5a+dN4XEQMwMuzAsRoHMir7EZoefZ/PCzt5aefkMwPipuK9MRibxfUZRAz1EcxAY4zkOKspz7d6mLmFXGJeTSCS2eYwhNqnIgxICCcT3sC84efjCoks+wdOv+QbPpGsfXTjNZl8I4GgFwiVyUUE9T2CIKJ6/oKCVgpYhIhhhvvbbvhYhAONzIyMJYnbwOR1mSfvbQN1BhFmSJ8R8W8y+dkEHjVHYgxDE8+EXh2VmhMJzkQozI3CbKJAXr5299OoFRSAOKBAH3Fcc+JcOVSHjUR4IPZYCkUjGhscYYpNWgRDuLr6wx8cXFlz2uY8CuT8jyJ/NuXyKzbl4kjPrEj8fgDPzoioNDaKryCgCgVm3kZaR5muloUUIwSgAI1p5EN91gWirC3sEMjviEns+8hKbEXWJPYfVx4yoC9/MibjwzStXzy3adC4Qd5lpKIQpuOdIgUgkTxqPMcQm9QJxdPWGN457w4sXPO9PC/bmAiFZkDi08hDQ+QF6Rh5r0GIUxEjzjQIwYhSAkTlXz+swJmhK8qKtMfnbg3F9RkZK/Fo5mEGH1GqZPQJmghgJrUCmxVz4Zl74hW9WBZ1btPM0CWQKCkGRx2gEYpSIvaFdRiKRDM9jDLFJjUDGTYJd3j7w6kkfeOmiz/8184ov4kfH/2MVojALq5GZQUN5/soZFUNCD1IwTh8N2grBLGkTIkEbnxsxS8q2MEvw3xazJD8a5mCCN2ImAStXOCQFYlZU0LDMiVSgxzOjg9jU2At/NS/83F+9fj4QHP1P8/1kPBfHRA49ohs4KNAeNdEEo0TsDdHeFmK9xvVLJM8ijzHEJjUCGT8JNvv7wspA38ULLvmyuSiP2VcC2PPBp/BewSoKG2iSOsG/9V/RfKs3yGEktPIgzKSgRWzXbB5h/AZvxCxpjwazBK9lLibnb8O8qCs65kaPQNRVzmx8TMyJDR4W7bIkkCnxlypfCD9XuePMaXD3Ocn3E6tAlEdSIBLJk8FjDLFJjUAmToINp0/AKxdPLF542Z+9cMWfzbl6ks1G5gSf5sy+GogJ2jbGhD1cd5G96MYITL7VazFL6lrMkroWY3tjF9BImFcBVsQ3/AflUQtkXtxVDh2+OzsOK5CkS5UvRZ6vPHj6LJzwPoN7irXqGA/j8PE4fj+0C2soYo8j7A3tMhKJZHgeY+DmxhEoDwcCBTJ5Eqw7wwVyYvElf/aiRSBCHqdNpaHFmPy/jTy04viuCcRWt5ERMU9AUrBbHsQoBTIn/iqHJPJ8PBeIy4LIsy7OJ8/AKc9TlvqDpDFEILrDePVod3LC3jAuJ5FIbPN4gj7nDri5CchElMdkZAoKZPokeC3QD1Zd8At55VIAW3glgL0YfIrNvXoGOcvm0KUtrp3FRE7YSOxq8jcbU9CiTfqjwZjgBUYBaKWgxdglZEzQ3xbTJI6YJfDZKsbnxulaRHVg5dqwzDPwQnyoSoiBUDYXmRV/DUF5JFz983MJQf8xNfnCq4sizr7qfOoUnPIKUAWiSIM7w0Qg2h3aiAwZMh5ejM3niz7n43FzJJBJJA9kGgpkhiKQtef80paiQBYFnWIvXTnDXlAFYpXHoxOI9pBTwjhfKw0tQhDG50ZGEohZ8h8NdOkPI0YBEOKbvj2IZbg8TBL//DhzrLKwMj8hXOWagXA2LzGcS2ROQiibmRTyH7MSLv+vF6MvTH01+MxUl4BT4O/jx4XBpSGcIQUiQ8aYxdh8vuhzLioQg0A2nvWHV8/7N6+4dJItCTrNFgQHsvkhgeyFkHNsdug5flmLmRyR5C9ZmBVqnrRtYdbFMxLGhG/ELKlrGSnBi0rhQdGuy7JODVox0Dd9e9AuMzchRI9BEFponhGShAJWJDoUsbwYr9zPSr729wtjgz7cEnQejp45C14oED+/AC4L3Fs0AlHucYbyRHHI2AVtX4sMGd/h0MqDeDxBHyxjF5ZOICctAll0JZC9dNU+gRBmojDDTA72YCYNLWbS0DKcPHiyxzZaZsWYo5WCFm21QGiTv1YAcxIfjLlJQxP/aHghKUIlzIAyXVQouJ2/XxYZ9KFT4HnwO3EGIYH46aQhBSJDxtiGVh7E4wn6YFkEgpBApiMokNfPBcC6C6dur750hi0LOsOWBJ9lC0LOs/nX6BDY83ygWFzugjAOHs8Jx2/hyNyIYAVK6oYkLzAbJDYOIhsxJniBEIAtUQj04wf6ZG+GUQC2EGIwdjEZhUECEMxOtoOkcI5YZl5ymIGIUfHC9UgVlImOSDY3JZItLUhlM6OD2UuxIR9sCL+acOzMBTjtc4b/QuWZ4350rJ4UiAwZT0gIcQgeT9AHiwQixkEmI6pANp0/Ca9dOP3+2kuBbGXQOfZK8AW2OOQCeymcKocLXBLipDRCiEMk7pEEItqJxC+eG6fbQlstaLEkfRuiEMyPC9FhTPhGhACM6KuAa5Zv8i8m6hHTRcIXCXtuir0oid2S6FNRAjqiRsX8tGiVSAPRbF56NHsO3wt/HBPctPba5U1ugRfhjG8gXPA5ifhLgciQ8QQFSUPL4wn+4cLNmQhky8UzsOny2ffXXznPVl+9yJZdu8yWhF5mCyIus3lRl4dN8lwC6mGj9BO4HM23fy2WxG9jui201YEZRkEMYcjgsV4EZrLQdiGZVRKiMhCyMGKtFvD5AwpEPBfimJumglIYDSQJhUgD0WwuTc+JZzNw/S/lxTetS4nadPjCZQj0Pw+XfM9AkO9JmIK7jhSIDBlPRpA0tDye4B8u3ByvQvBTTwPpU5UxkM2XzsD6K2e/v/rqeZTHRS6PReEokCg6ic22QESCH0kgohLQJn2zabYwqxK0vBh/zSYkC7PqQJfsNTLhQjGIQqCVglYMYj0vJodzLNNV5qdEcPRVhBWjKKzVg/JcVAzaxP9gaNehrIcEsrAklc3Njf+/FyxEIXwAAB7WSURBVBQmJsB0GHf4UhCcOXkBLp8IhCsnTkuByJDxBIVWHsTjCf7hws2JEwjHY1qYjEyfAhuCzsKKa2ffWRJxAaVxib0YHcSZHx3MIUmYDSLTOIBpwrdTDkIAxufGasCY4EUVIaRgfK5FKwrCKIHRIIQgEj4l9RdTMbmrgqDHWqxdRUaULqUX02M4xueCFzKMoFTsQt9+fiau35RY9kJWLK9AkL5FmbHHNyRFwrGgYAg8cwmCTp6D4IDAJ78LS4YMGY8jUCB0Fvo4VSATp6FAplH1AUvDzr6zIPoCmxd7CasGrDyQF2MwsatdTLYEIgaTtSLgMtAIRIjBKAghBDFdiEArCz7fIAEhh5eSwjnG55bpakWgrQpE8tfCv+WrEhgOoxheTI/ivITJeGHGUGi6KRmxOhZkxpvyUpaBbGxvD/a2xzbzs7k86J4LZGNiJLgHXYWzgZfhwpnzcCHwLHeEFIgMGc98mAhk2jR47ep5WB5xvm8RymN+PFYe8Vh5IC/FKmMIlNyFKMwwJnwhAoEQhMC4nJgu2mvXxecbBCKwyMHwXMtw4hBYu46GR19F6AUyKp4wgczN5ZzHaZvWJ0eCx5UQOHsuCE5fuACnL57jhasUiAwZz3LQh1x0YY1HgUxAgUxSKpDXUSCrwi5WLIm+xBbGBiEoj7hgtoDGEIYRiEjwunECfK6VByEqBEIrAC2igjCTwEvXI+xiAVYHArOuJOr3p0Fooxgsg9MqxvkCrTwIIRBj15CpNLQYBGIL6mLSo9+Obextz7uwvsEK5Jv52bELF2VGz6AKxDs4FM6dDwb/oIvIef69QwpEhoxnOfgHHjMBnUQ4CQVC4x/TkBnTYEvwBXjt2qWKNRFX2IqoK+yVmKtscew1tjABEztKhKSgPQpJiEMkeN04gSoDrSzMkj2hTfhmiV+wAJO0GWbdRgJj0hZJk48JYPLXisE4uGwUhUAIQ2Bct8DWdCtaKZiRoGKcbraubwNfL8oj/ptFmbELV6dEz9gZEw6+QSEQeCEIfIMvImYCMVzKBP+TIUPGdzkwCVguYzIZBUJHYE1XBLI9+DJsDrkcuSHsClsTcZWtjA5jy2LC2OJ4RQTGKsNSNRgEIrqLeNWgqSaMctAKg4PJeDjMBCGgRL0gK3ZYtN02lDhpGa0IrIPPCkIARozrXZgdx1mQo8fWdAvZCSOQpGKYbraub4Oy3t8syIz/zYrUWNgaFwlHQsMh4JIikBNXzsOJ4LO80pACkSHjWQ4hEH4ZE71AdoYEw5aw4MjXI0LYuqhQtjo2gq2Ij2BLErFKwEqBJEBiMA4mC7TT6V5bZZi1N2ImDS1myVzAhaARhC3mq9Bjs2T6Yq6C2TzBwtx4HYvyEiwszFfQTtNO15GX9GCYrWsYjK9FIOa/lJvIFuYk/uaVrPjfvH49Fo6FRsGpy2Fw9uJVOH/xMgRePg+BQWdNxkCkQGTIeLaCPuTaa2FRN5YqkW2hQfBaZLDTmphgtjwuhC3FqoPksfh6JFuUEjlEBCKxayUgpovHQipiuSHdQWo7QqzPjOG6igRGWWgR4iCEJF7Ks0qAP9YkXYFZ4jWyOD+RLSp4EJIfELN12YZenxk076UCFAiCf4OK5dlxFdsSo8H/ahRcPh8Oly6GwIVLQXA+6AJcuHxOlYYqENyRpEBkyHgWgz7oVImIEwr5D0pNgc2RV2BFwtVZC1Ku/vmFtKt/npeO1QZCCXxhGibytBgFNakvTI/lLMrEb+F0tBAlcQ3a7iEhgCFJX4Oxa0gLSUBbBQgJaCEJPAhm4hgOY4J+dDyYMGyhFYdgQSFSnMQWFyW4rMyJd9mZGAOnQiLh6sVwCL4cApevBMHFqxfgcrCZQJTfJuQ/aTsekQKRIeNZCzIJpoWJk2DPtSuwNvbqrPnpIX9+Lif0z89nhbLZmSiRrEhlrEEVBgefC3EILH3+mPDFvS0BmEGVwOIcPaJCIOjbvllCF/BkOAzaxGlJnqOYPxK2ljdOt59HKxDLay9OYC8XJri8mhnrsj8hGs6GREDopTC4GnQVrgRfhqCrF5HzVoGgKaRAZMiQoQZKZNwE8LtwBQ6EXoOFGZH/ZVpB9H+Zk0vywAokB6uN7Bi2MAsTdRZ+W83BRIS8nJvEEc9FwtcKQWDPN31tkjMmOz6vMIktLLLNouLrEhu8XDQUMW9hSdK/LS9MmLYlI26aS3wMXAiJgrDLYRB6JRhCgoPgSsgFCEaGFQghBSJDxrMZDni7cOYiuF65CktSExqm5yU1zM2OZC9kh7L5eVHsxdwYfrTOcAKxJQzxbVeb7EkGI2FMdi+XpAzLktJUyQi8oqKd9nJp8kerCxJhX2o8+MREwyWqQIIUgYQGX+LykAKRIUPGsHHu3DnwCA6GVxPTGuZnZjTMy4lls/PD2aziSDanKJpLgUSxKA+/7SNDqgX1KCHqdlmAGCsDs6RPiPlm0HxL8itP0/GygcVlqWOK8fWMFrN1Pgy0sjDCZVKS/NH6vERwSYyFMxHRcPlqGIRcCYGwoCAIu3IJQq7aEog6iO6A0EzeHUpfRcRNTJFIJI+aMY+LF8+Ce+hVWHk9++jsnMKjc7BqmFMUyWaVRrE5JTG8muBVRwEmdg49TmKvqFXC4kKFhfiYEAJYVKogkpY2sQlB0P3CEupOweXU9gLRXgrkwTD+3cU0SzVSkpy0KTsRvGNj4fK1SLhCAsEvElqBECQPmwIh1F1ZCkQiefyMeQQFB8KxmBCYW1g0AaoqJjxXnvL7uWWR/3NeWQx7sSRO6VZCcSwtSmNLiglM/jqU6S+XKJAMtEnLDBKEMXnaSqhiui2M7R83Zq9pNJit82GzqJzu01Eg6RaBLC1O3rwlKxFORkbDteBICA62CiQi6BKEBg8vkHHjpEAkkrFmzCMo5Cx4xFyDldl5E54vKZkwpyzp9/PKo/7nS2VxbGEpVh9YVbxSiEmnBJMPQd9eKQlh8iMoKfHEVJbBoYRlliiNvFKJyyDax+K55OHC/63Ufx+q+uh+UVH65i3Z6XAqIhbCg8JRICFcIBEWgSgIgZA4tJBAuETUXVkKRCJ5/Ixt4Of/QmgQnAkPgZNhCXA0PglWFSZWza+M/2pJeQLKIkn5xoriWFaWxhHdSEurMjgi8YvnxOIK/Gat8jJJQW3DBYEsqcZEpt6bIZYxa6PdDiHW+7jQvjbC+HqMr3ckjOt7mNDrXYGVxyoU/PLyTLYUWVCW8t8X1+b999lFBQ4bcksAJs3EimIC7oxK8p+ETEEmIuPVe/FYPKd7444skUgeP2MbKJCLYSEQdC0UYi6FQ2B4NKwvjDszrybhzuLKxG+WlScr4ijNwASEybJCgRKTSJjLqrN0vFKTpUtiIlFqEyy1Efejxbi9x81Ir8c4f6xYUqu8ntWVWWxNBd5X5LBlVXnshYqMr5bUlXy1OKdo3J6sUiwtnkMhKPIgMdgjECkRieTJYMwjLCwMiYCI0Cjwj4+DVaXxq2bXJ1a/WHv9z4uqsfogWeA312WVKAtkeVUWRyTMpbXZQxDS0KIViGhjlvhGQmx3rBjp9RjnjxUkELpfhn/n5chKFAkJZG5l4c3VlRU398ZlQGBMBu4BU1AGeoEQUiASyZPPmEd4eDgSCeFh0eCfGA9rSxNgTkOS30v1KYOLapWuKq04VlZnc5bXKBjlYQtb7Y2JbySMCftxM9xrMps3VpBAiMV1KO1aFAj9O6JAZtcUXVhTXn7BPSIRIkMTUQQTUAgOFkFIgUgkTw9jG+MArkWGQ1hEJMRci4ZzsfGwqTgZFtWm+C2pTRtcVpPGv73yb7A1mZzlKivqsjhCBMvrcp55ltY/WSxpyGGLmlAkDVlsLQqOxD+7ofDCqsrCCwFJyRAbGoMycNAJQiuQ4RDtJRLJ2DG2gQIJjg6HkMhIiAqNhsvR8eCUmQwbi1Pmr6lIW7+8Ou0/UR7EqASyoj53WEQbe9o+6SxreHJZ2pjLFjXnsiVNuWx1XTZbjZUJVpGLthalLQpMiIeYsKghO6SZLIwYl5FIJGPD2AbWQCHx0RASFwthMfFIIlyJvQ6+KamwvSQDVtdkNK+qzWheXpuOssjgrKzPtrCiAcXRhNLQ0pg3KswS36Mh2wZmbc0wW5bQt6Ok/WhAUZtg3L6WpQ35bEljIVvclM8WN2ezdTUpf3k0Jw5OJUdBEP57h0bGi93AgtlOakTbXiKRjB1jG/gKQhNjkXiIiE+EmNhkiIu6DpcTU2F/cTqsr8lsfrU2kySC8khjy+vT2LJGrD4wcQqJkDSWaTCTxHCYJb5HgzHxC8zammG2LKFvZ578HwajF8gyFMjSBkUgL7Vmsw011//yVFokRESHQWh0HIeqUONOKZFIng7GIPQvITIpEaITEyExLhkSY1MgOiEdzmVkglNZJmypzpy3uTpj3oa6jN+vaEhnS5qRliz2CrIWk9c6TKAkkFeac9jSlly2nGjOfzIQr2ckzJYlzNqaYbbsw8BsWyasQDmMBP3bLOxAgdSlZZzOwC8KWHFGJCiQQEYX+v1H/0wikTxOxiD0LyE++TokJF2HlPhUSE5IhaiUdLiUlQlehVlcInsq0mFTbbrf8uY0trgtjS1sy+ASWdOUzaGqQwiES8QsGQ7DipbCR0MrrtsezJYlzNqaYbbsw8BsWyaswrbDk8+WteX++6Ku7H/f2JD58tnMFIjHajM+Ph7iSSCjDv3+o38mkUgeJ2MQyqbFLe16moXrKRkQl5oJkenZEJKRBWdzMsGtJAO2k0BaU9lLXens5c5MtgS/zS5tR3m05bJlHXkqBWxFu4a2IrtY1lr4aGijxKkFXyvHON3ACMsbE/iQdtrX8G0wrtfG9o0YBULTlraTQDL/fXNjhkUgqTHxkBobi3vAaEO7+0qBSCRjyRiEsmm60QlkmUlpkJ6cBikpaZCUmgbxqemQmJIJKYkZEJ2cCYHZGViJpAMKpO2FntQ2RSCKRAitQHQSMZGFGabJ82FgIwEPnW5ghOWNCXtIO+1r+DYY12tj+0ZM5IHSz27Bf7eWLY1pcDYrmQvkemw8IgUikTzNjEFYN08CyUaBENdRHglpJJEMrEYyIC8uHXJiMyA+KR3889NgbUv6lBf60qcs6kr/aikKZEVHFpJjEcjyzkLOyg5BMWf5WKG+nlEzzPLW96ZH1077Gr4N2nWqmG17VbueNW3FFmj+yz35/7K4N/elV3qyX9penwYXqQJJTIaY5EQk3o5B9NHdzI7aGg7j9szaDIdcXi7/LC8/BmF9ucMJJBcFkhuD1Ul8BlzJTIf9VRlT1rRlTFnWmfHVK10ZbBVWH4SQyNAkpxfIis6SYVnVXfpA2F6+2C5WdGElhFinDb/86i49tpe3j9G+fuP213QUcdZ2Fiu0l1hY1VnEXukt+JcV3TkvvdGS9dLRsjQISU/lAglPSYTw1IcrENqfzHbykRDbMptnD3J5ufyzuvwYhPJyxS3rejpkIqmp6ZCcns4FQlxPxucolsSUdIjG5yQRr5J0WN+R8eIrfVl/92pX9t+t78xlq7ryMIEWmCS4Us7QxKjHdgK1j9EmYCNPu0As4jARCIllRXdewBstOeBbnIXySIf45KECMdsxrQgx2IfZiYfDYdyeWZvhkMvL5Z/l5ccg9AIheaSjJEggKWmKQBLSMvhYSFwKVSUZXCKpCRkQnJUBu5oyX1zVm/l367pz/m4DyoO+5S7vKsNEhclQRSQ6Smh0TwlxdU+ZKSJhms2zB9vLl9iFJTFbpg2//JpuPbaXt4/Rvn799rFdZzmHHr+K/w5rOkrYK/h87o0G9lJvHdvUXBTgVp4FYekZ/Ei7lITrkJhg7cIa+ZuPmSQUzOeZ7+jDod2e2fyRkMvL5Z/V5cc0ROlEKKGdokBCSUbJZCRiJYLfYN2rs2Bre9ayDd1Zy1b3Fvzjiq5atqyrkS3tqWZL+srZy8jS3lL2ancBW9edx9b0FOkS4MpehVV9mDyRlb2jQyTYNb0VHH3SHQ7xGpTnj395PQ9n+1Uo6Dqkga3urkHwOcpj9o16Bvf6CqCnswAWLASYNA0mjpsGU2ESTIYJeKNLKI7DZw/GFBWzeSMhln3Qdcjl5fLP8vJGxjyEKqyhF0hKaiY/vDc9WalMLhVmg0dNNuxsy4Z1PSWvLO1u/NuXe1r/dklPLVvSW40CqWbLuivZuq4itqGrwCKQNZj8CSEOweoblZxVfRV2IRKvYG1fJcc4fSjK9o3TH9/y5ny77VexVVhlrOxtYMtv1LCVfSSU0uqZt1urn//Tv45b+y9/GAdzF8MMmIZMwf8rApmEApmKOx8xmp3YuPMLzNqaYbYsYdbWDLNlCbO2ZpgtS5i1NcNsWcKsrRlmyxJmbc0wW5Ywa2uG2bKEWVszzJYlzNqaYbYsYdbWDLNlCbO2ZpgtS5i1NcNsWcKsrRlmyxJmbe3lCQy9QFLTM/nYCHVvpaJM0tOyITKXJJKJlUjJK0v6mv924UD33y7pwyTWU8fWdLewdZ1NbFNnLdvUVcnW95aztTesrDaw9mYVx0wWZugTaAV79UYVxzh9KOYCeHzLm/Ntts8ruFtlbNlgGVsyWMqW9pex1/sqq196s6v6xW/+OO61//lHFMhCLg9FIBNQGhPwkV4go0EsJ5eXy8vlzdsMx7dd3sgTGHqBZKRncYlczyB5ZEJhcg5Oy4HLxSiR2kLY2lg7d11389zlfSWfLe8t+2xtVwvb0NGG8qhGytm6PkUcr97EZIms7TegCsReRMIdNer2TefZw7dd/ttisn36+60YLGFL7xT9acmdkj+tuVUecaCnErbebIYJ79yB2f39AM/PVwUyCZ5DeSgSGQ/TcecjRrsTf9sPgFxeLi+Xf/DljTzRQQrJTsuCLF55KJBQiOtZWRCXkwdXMgvAt6YA9r6fM2HHl9UTVtyoL1nb0/znTX1Ff950I4etv1nCE92rA5UW1uiotptX+yVa6G+ycrDyi+W3Kzcuu1298Y0bFXCyIR8uVxVCQHUdnC+vA5j4HIpikkUgYsfVCkQikTydPNEhBJKdkmmRSGpmFqRl4DScnpeSBekJaRCWdx08byZOOPBezoQNfVUl63sb/rzhRtGfN9zMY+sGSoeRh1Uga2/V2MW6AT0imRqn28vTvPzrWJFt6yn9YndX6cbdnZUbXZvLILQsA1Ly0iA9Ow9yMgrwW8oULhBReYgdTwpEInn6eeIjMz0D5ZGOEknn92mZGXA9Ix1S09MhPTUVstPTIDUrDSIL0iCwKhccW0th243aQ+sHag5hwv/79YPVbP1gJUL3mCwHa0fHbVyGUJ+vf+gor8s2Zss8PNbdqlIwyMHG9v9T5X3k2J7e8mNnanIgoiQLwoqLIKqwCJLw3yElPwVSc7FSzMqDKeMm4Y7mwMtdsx3QFsZSWWDWVosQk0QiefQ88ZGRkQEZaYo8CHpOEiGBpGakQmYWghJJS0qH6LRsOFVZAIfbymDLzVpYN1A3FZNgBgokAyXwr1oRDAclS8vzxyQQsZ21dxSsCbyavXar1oLZOrTztdA8y/swA7dH8lg7WMXWDNaxNbca/sQZrPsb3O57r92qfm/jQHU5risO13USn8/bNFA9b3tfNezrrgafplKILcqA3Mw0rDbyICszD9JzUOi5WIHkoECyc2DSOEUejxMzsUgkkofPUxNiWH3cuHEWwGEcZORmYqLKgIK8fMjPK4TrhQW8D/5IJ0qkv3zq5lvVGa+hQFbfqf7XVXerGd7zBG0RgyZpi8SNiVI3X5vMtYl7xARthma9Yt10T9um17fszUq24l4lTqtk+Lo5mMQZJm5+L9oL6LXSdDOorVivGfS3oO1Qm2V3m9nSu+1/Ilbcaf4bXPd7mwYq39tys7p8c3913EYUCP4t5+3trZ7n3loNF6srIaa4DP8NJqj/MnSP0D4lwBjpfA+zk5NsoT3hSSKRjD1PXRgFkpmXBdlIQV4ulOTkI4WQVJQHgY1F4NZeAkdRJPu6KwGrkPkr7lUXY+IsxsT5B0ya/0aJk5KogBL8xgEFLgc1wet5+AIheKJHcZBAiLV3qNtNlYhGEqItvhfO6ju1bO3tYbhT/T9wXcSvkDsqxQTKI/i1wXInbOO05F77Ky/f6xu/9E7f+FcH2mFXbzUc7iiHY62V4NJWCU5d1SjlSvBproSLNWWQWFgG2Tkl+C8ySUUViEX1QiuKKOheKxPx3GyntIVY83DIkCFDhs3QCoTIz8/l8iCKchWB5OYXQlx5MURUlEB0WRmcqy2D7f2V01ferz68+l4tkbH6Xn3Tyjfr315xv/4f8f4f19yt/2bDYCPbelNhIz7ecLteQ60p6zGBj8SQ5VAAgtdRCBtJJPj4Vao8kDXI6jer8Z6m0zL1eK9Ar3HN3cY/Ln6n8Y8L3m38r4vfbv7flrzV/BfIZyr3kDZixZuNpbiN65sHK4kQxF/lsELZls0DxctRVMuX3Ouc9fLdAYe1/QMO+zo64UxdNYSXlfAqI6a4EiLKKzjRpRWQhNMy88ogzyIQozyUVE7/F6Kwhb1iIGTIkCHjW4VWHuMxARXlkjisUBVSlFvIu7Ny8oogH5NcbHEJeLaWwd6+StiP36yR5/b31O7c21sbtONG7RebB+q/QIH8GWGv36pn+NyStM3kYRTEq3dto2+riEKgSKSSI8RBrLyPVcjblWzFfZJILQqjnqHkGEqPC+T1W43/ndg80Pjllv7G95BeJEslcMtA/S5i143a+c5dlXCso8QUqtDc2vLhcGcx7Oyth+09rXCwvRV86+shqrQEMnMLICe7BPKykJwyyMktsUDyyMstwn8RM3lY0z39G5mJQ2C+lAwZMmQ8gjATSIkGpQrJh4qsfCjLLECBFEBKQQHElBTxb9SRpfSNugziC6kPvxKulleDV0s1YLJfsOjd2osr7tdexAqlZ+WbtX+D93+Dif7PlOi1if/Vu1aoSiCoYiCwyrEgqgiCt0c5aBHCWH2/7M8r75f9w7K3y/5h8btlHy96r+zjBe+XtSx+tzJp2VvVxInF71ZvfuXt6s24npkkwXM11fheKiG0TKW8TEMJh1cQ+L5ji82JLy6A5IJciC/KhrDybAipUIgszca/WQ5k5+ZBNv79crIVEefn0L0CySMnrwD/RYZXAP0bDcfwS8uQIUPGQwytQAg+9oHiKM/OhdIc6srK55Rno0Cy8jDRFUBmnpoIkcLMIihJL4KytBIozCjh/fjXKkrAqbtswebBsovb+8su7rpZ1rPnRuXf7LhZ+TevD1aiQCrZ+rtW9BIYKhEFRQ6inXZ57XpWvFXG1rxZ9uetA2X/sKO/7B/wNXz8+m1Oy5ZbZUn4WpJw+gl8vBnbbN7bVzbTt7kEEguV11+QSRUCJnRBdoGOgizbFGfm4d8hE0nH59dRGEmQkY/kXccqIwOrjCz8myl/OxIG/S0JEkdWvoI+/Q9VgJk0tAy/tAwZMmQ8xDAKJBe/QVMVUpWZi1VHLn+eVaTc56A4svLzMCnmQBrek0hKMjBppufxxEjPxX1sSR6EVuTBtUrlPrI8D87VFcDeGyXTNtwp26jiRay/WxaJ5KEE8lAuTUivyqBg4+3KgY13yrpRBM1IGYqBSEURXFQ5iutagwJZs3mwZPKpBqVqCK4sgaAq5f5aBVZN5QVIHgRX50FQdQFcrSyAyLICSCwqwPdUYKkQTFGlSe/RSF52HhRm5UBxRiZCAklHAaVDbrZCQU4Gzs+Cguwc3p5kkV6YB2lFeZCiQo951jcceaUNM2lokQKRIUPGYwszgVAVQvKgKoSeZ6BASCKZBTlcIJl5KBB8TPfFmQr0mMRC37IpURYjdJ+Tq1CQnQWJxXng21JE1YkBqlh41aJSaYHGHJy7yvhhxAI6EkygHYNwxnXsuqk8pnEaGmugiigToXtK/pTA6bVk5yqvl8sQ38t1TOYpBYr8SCI2oW4oDnVJKeTkKNB7z8vKxComk99rob+FIhCqQpS/IwmExJGMfxcpEBkyZHxnQhzqyUOb0AxYEpWYhmGWwPhjB/z/5EkAU6cYoGmCaSYY2k/RoFsWma5OH4cAgdMsTNC/Ls37sMzg70E8MWP4MFvCCA/jdgV8+yOHcTGBDBkyZHxHg1IcJXJjYleSu3WevYjltGjXYTb/u5FmtdLQIkOGDBnf0aAUJ5K8wJjgtfPsgZYR6dNsee26RdunP8Q7NiJDhgwZ39GgFKdN8sbkLrA1X0zXzjemUG077bKi7XcjjO9aIEOGDBnf4aA0p03oZtiaL6bbmi8Ybr4MGTJkyHhKwyypP05kyJAhQ4YMGTJkyJAhQ4YMGTJkyJAhQ4YMGTJkyJAhQ4YMGTJkyJAhQ4YMGTJkyJAhQ4YMGTJkyJAhQ4YMGTJkyJAhQ4YMGTJkyJAhQ4YMGTJkyJAhQ4YMGTJkyJAhQ4YMGTJkyJAhQ4YMGTJkyJAhQ4YMGTJkyJAhQ4YMGTJkyJAhQ4YMGTJkyJAhQ4YMGTJkyJAhQ4YMGTJkyJAhQ4YMGTJkyJAhQ4YMGTJkyJAhQ4YMGTJkyJAhQ8azFAD/P1uEA1WM504pAAAAAElFTkSuQmCC;fontSize=9;" parent="8pNeZ0TAll2XmvHGHXgd-163" vertex="1">
          <mxGeometry x="1.6666666666666667" width="30.833333333333336" height="30.833333333333336" as="geometry" />
        </mxCell>
        <mxCell id="8pNeZ0TAll2XmvHGHXgd-166" style="edgeStyle=orthogonalEdgeStyle;rounded=0;orthogonalLoop=1;jettySize=auto;html=1;exitX=0.5;exitY=1;exitDx=0;exitDy=0;fontSize=9;" parent="_jrqCxRGhFaNpr7jHIZG-1" edge="1">
          <mxGeometry relative="1" as="geometry">
            <mxPoint x="742.9100000000003" y="668" as="sourcePoint" />
            <mxPoint x="742.9166666666667" y="668" as="targetPoint" />
          </mxGeometry>
        </mxCell>
        <mxCell id="8pNeZ0TAll2XmvHGHXgd-167" style="edgeStyle=orthogonalEdgeStyle;rounded=0;orthogonalLoop=1;jettySize=auto;html=1;strokeColor=#B6B6B6;exitX=0;exitY=0.5;exitDx=0;exitDy=0;fontSize=9;" parent="_jrqCxRGhFaNpr7jHIZG-1" source="8pNeZ0TAll2XmvHGHXgd-165" target="8pNeZ0TAll2XmvHGHXgd-153" edge="1">
          <mxGeometry relative="1" as="geometry">
            <mxPoint x="767.82" y="511" as="sourcePoint" />
            <mxPoint x="728.82" y="511" as="targetPoint" />
          </mxGeometry>
        </mxCell>
        <mxCell id="8pNeZ0TAll2XmvHGHXgd-168" style="edgeStyle=orthogonalEdgeStyle;rounded=0;orthogonalLoop=1;jettySize=auto;html=1;strokeColor=#B6B6B6;exitX=0.02;exitY=0.547;exitDx=0;exitDy=0;exitPerimeter=0;entryX=0.457;entryY=0.96;entryDx=0;entryDy=0;entryPerimeter=0;fontSize=9;" parent="_jrqCxRGhFaNpr7jHIZG-1" source="8pNeZ0TAll2XmvHGHXgd-144" target="8pNeZ0TAll2XmvHGHXgd-153" edge="1">
          <mxGeometry relative="1" as="geometry">
            <mxPoint x="798.8200000000002" y="564" as="sourcePoint" />
            <mxPoint x="758.82" y="595" as="targetPoint" />
          </mxGeometry>
        </mxCell>
        <mxCell id="8pNeZ0TAll2XmvHGHXgd-169" value="" style="group;fontSize=9;" parent="_jrqCxRGhFaNpr7jHIZG-1" vertex="1" connectable="0">
          <mxGeometry x="629.82" y="376" width="108" height="30" as="geometry" />
        </mxCell>
        <mxCell id="8pNeZ0TAll2XmvHGHXgd-170" value="" style="image;aspect=fixed;html=1;points=[];align=center;fontSize=9;image=img/lib/azure2/networking/Virtual_Networks.svg;" parent="8pNeZ0TAll2XmvHGHXgd-169" vertex="1">
          <mxGeometry y="7.090000000000003" width="34.96" height="20.87" as="geometry" />
        </mxCell>
        <mxCell id="8pNeZ0TAll2XmvHGHXgd-171" value="&lt;font&gt;Virtual&amp;nbsp;Network&lt;br&gt;&lt;/font&gt;" style="text;strokeColor=none;align=center;fillColor=none;html=1;verticalAlign=middle;whiteSpace=wrap;rounded=0;fontSize=9;" parent="8pNeZ0TAll2XmvHGHXgd-169" vertex="1">
          <mxGeometry x="28" width="80" height="30" as="geometry" />
        </mxCell>
        <mxCell id="8pNeZ0TAll2XmvHGHXgd-172" value="" style="edgeStyle=orthogonalEdgeStyle;rounded=0;orthogonalLoop=1;jettySize=auto;html=1;strokeColor=#B6B6B6;fontSize=9;startArrow=classic;startFill=1;exitX=0.5;exitY=1;exitDx=0;exitDy=0;" parent="_jrqCxRGhFaNpr7jHIZG-1" source="8pNeZ0TAll2XmvHGHXgd-157" target="8pNeZ0TAll2XmvHGHXgd-162" edge="1">
          <mxGeometry relative="1" as="geometry">
            <mxPoint x="679" y="245" as="sourcePoint" />
            <mxPoint x="739.0000000000001" y="460" as="targetPoint" />
          </mxGeometry>
        </mxCell>
        <mxCell id="8pNeZ0TAll2XmvHGHXgd-174" style="edgeStyle=orthogonalEdgeStyle;rounded=0;orthogonalLoop=1;jettySize=auto;html=1;entryX=1.005;entryY=0.607;entryDx=0;entryDy=0;entryPerimeter=0;fillColor=#fa6800;strokeColor=#C73500;dashed=1;dashPattern=1 2;" parent="_jrqCxRGhFaNpr7jHIZG-1" source="8pNeZ0TAll2XmvHGHXgd-147" target="8pNeZ0TAll2XmvHGHXgd-48" edge="1">
          <mxGeometry relative="1" as="geometry" />
        </mxCell>
        <mxCell id="8pNeZ0TAll2XmvHGHXgd-183" style="edgeStyle=orthogonalEdgeStyle;rounded=0;orthogonalLoop=1;jettySize=auto;html=1;dashed=1;fillColor=#647687;strokeColor=#314354;endArrow=classic;endFill=1;startArrow=classicThin;startFill=1;exitX=-0.024;exitY=0.511;exitDx=0;exitDy=0;exitPerimeter=0;entryX=1;entryY=0.5;entryDx=0;entryDy=0;" parent="_jrqCxRGhFaNpr7jHIZG-1" source="8pNeZ0TAll2XmvHGHXgd-162" edge="1">
          <mxGeometry relative="1" as="geometry">
            <mxPoint x="380.2199999999932" y="303.43000000000006" as="targetPoint" />
          </mxGeometry>
        </mxCell>
        <mxCell id="8pNeZ0TAll2XmvHGHXgd-179" style="edgeStyle=orthogonalEdgeStyle;rounded=0;orthogonalLoop=1;jettySize=auto;html=1;exitX=1;exitY=0.75;exitDx=0;exitDy=0;fontSize=9;" parent="_jrqCxRGhFaNpr7jHIZG-1" source="8pNeZ0TAll2XmvHGHXgd-178" target="_jrqCxRGhFaNpr7jHIZG-123" edge="1">
          <mxGeometry relative="1" as="geometry">
            <mxPoint x="174.25" y="476" as="sourcePoint" />
            <mxPoint x="267.25" y="432" as="targetPoint" />
          </mxGeometry>
        </mxCell>
        <mxCell id="8pNeZ0TAll2XmvHGHXgd-181" value="" style="group" parent="_jrqCxRGhFaNpr7jHIZG-1" vertex="1" connectable="0">
          <mxGeometry x="166.72" y="439.00000000000006" width="42" height="67.4557142857143" as="geometry" />
        </mxCell>
        <mxCell id="8pNeZ0TAll2XmvHGHXgd-178" value="" style="image;aspect=fixed;perimeter=ellipsePerimeter;html=1;align=center;shadow=0;dashed=0;spacingTop=3;image=img/lib/active_directory/database_server.svg;" parent="8pNeZ0TAll2XmvHGHXgd-181" vertex="1">
          <mxGeometry x="1" width="41" height="50" as="geometry" />
        </mxCell>
        <mxCell id="8pNeZ0TAll2XmvHGHXgd-180" value="&lt;b&gt;Databases&lt;/b&gt;" style="text;strokeColor=none;align=center;fillColor=none;html=1;verticalAlign=middle;whiteSpace=wrap;rounded=0;strokeWidth=1.9685;fontSize=9;" parent="8pNeZ0TAll2XmvHGHXgd-181" vertex="1">
          <mxGeometry y="48.16999999999996" width="41.99999999999999" height="19.285714285714285" as="geometry" />
        </mxCell>
        <mxCell id="8pNeZ0TAll2XmvHGHXgd-188" value="" style="group" parent="_jrqCxRGhFaNpr7jHIZG-1" vertex="1" connectable="0">
          <mxGeometry x="158.72" y="321.81" width="58" height="67.19" as="geometry" />
        </mxCell>
        <mxCell id="_jrqCxRGhFaNpr7jHIZG-5" value="" style="aspect=fixed;sketch=0;html=1;dashed=0;whitespace=wrap;verticalLabelPosition=bottom;verticalAlign=top;fillColor=#2875E2;strokeColor=#ffffff;points=[[0.005,0.63,0],[0.1,0.2,0],[0.9,0.2,0],[0.5,0,0],[0.995,0.63,0],[0.72,0.99,0],[0.5,1,0],[0.28,0.99,0]];shape=mxgraph.kubernetes.icon2;kubernetesLabel=1;prIcon=api;fontSize=9;" parent="8pNeZ0TAll2XmvHGHXgd-188" vertex="1">
          <mxGeometry x="7.780000000000001" width="42.44" height="40.74" as="geometry" />
        </mxCell>
        <mxCell id="_jrqCxRGhFaNpr7jHIZG-6" value="&lt;b&gt;&lt;font&gt;APIS&lt;br&gt;On Premise&lt;/font&gt;&lt;/b&gt;" style="text;strokeColor=none;align=center;fillColor=none;html=1;verticalAlign=middle;whiteSpace=wrap;rounded=0;fontSize=9;" parent="8pNeZ0TAll2XmvHGHXgd-188" vertex="1">
          <mxGeometry y="37.19" width="58" height="30" as="geometry" />
        </mxCell>
        <mxCell id="_jrqCxRGhFaNpr7jHIZG-46" value="&lt;font&gt;Subscription&lt;/font&gt;" style="text;strokeColor=none;align=center;fillColor=none;html=1;verticalAlign=middle;whiteSpace=wrap;rounded=0;fontSize=9;container=1;" parent="_jrqCxRGhFaNpr7jHIZG-1" vertex="1">
          <mxGeometry x="598.9999999999998" y="107.03999999999999" width="90" height="22" as="geometry" />
        </mxCell>
        <mxCell id="_jrqCxRGhFaNpr7jHIZG-45" value="" style="image;aspect=fixed;html=1;points=[];align=center;fontSize=9;image=img/lib/azure2/general/Subscriptions.svg;" parent="_jrqCxRGhFaNpr7jHIZG-46" vertex="1">
          <mxGeometry x="-1.3766765505351941e-14" y="7.993605777301127e-15" width="14.79" height="23.86" as="geometry" />
        </mxCell>
        <mxCell id="I72n3WppPRln4_K4UJIP-2" value="" style="image;aspect=fixed;html=1;points=[];align=center;fontSize=9;image=img/lib/azure2/general/Resource_Groups.svg;" vertex="1" parent="_jrqCxRGhFaNpr7jHIZG-1">
          <mxGeometry x="616.4599999999999" y="130.66000000000003" width="21" height="19.76" as="geometry" />
        </mxCell>
        <mxCell id="I72n3WppPRln4_K4UJIP-3" value="&lt;span&gt;RG DEV / PRD&lt;/span&gt;" style="text;strokeColor=none;align=left;fillColor=none;html=1;verticalAlign=middle;whiteSpace=wrap;rounded=0;fontSize=9;" vertex="1" parent="_jrqCxRGhFaNpr7jHIZG-1">
          <mxGeometry x="637.4599999999999" y="129.04000000000002" width="69" height="23" as="geometry" />
        </mxCell>
        <mxCell id="I72n3WppPRln4_K4UJIP-5" value="" style="group" vertex="1" connectable="0" parent="_jrqCxRGhFaNpr7jHIZG-1">
          <mxGeometry x="701.6700000000001" y="285.85999999999996" width="52.65999999999997" height="55.62000000000006" as="geometry" />
        </mxCell>
        <mxCell id="8pNeZ0TAll2XmvHGHXgd-173" value="Application&lt;br&gt;Gateway" style="text;strokeColor=none;align=center;fillColor=none;html=1;verticalAlign=middle;whiteSpace=wrap;rounded=0;fontSize=9;" parent="I72n3WppPRln4_K4UJIP-5" vertex="1">
          <mxGeometry y="34.31000000000006" width="52.66" height="21.31" as="geometry" />
        </mxCell>
        <mxCell id="8pNeZ0TAll2XmvHGHXgd-162" value="" style="image;aspect=fixed;html=1;points=[];align=center;fontSize=12;image=img/lib/azure2/networking/Application_Gateway_Containers.svg;" parent="I72n3WppPRln4_K4UJIP-5" vertex="1">
          <mxGeometry x="8.1700000000003" width="36.32" height="34.31" as="geometry" />
        </mxCell>
        <mxCell id="I72n3WppPRln4_K4UJIP-6" style="edgeStyle=orthogonalEdgeStyle;rounded=0;orthogonalLoop=1;jettySize=auto;html=1;dashed=1;fillColor=#647687;strokeColor=#314354;endArrow=classic;endFill=1;startArrow=classicThin;startFill=1;entryX=1.009;entryY=0.476;entryDx=0;entryDy=0;entryPerimeter=0;" edge="1" parent="_jrqCxRGhFaNpr7jHIZG-1" source="I72n3WppPRln4_K4UJIP-1" target="8pNeZ0TAll2XmvHGHXgd-162">
          <mxGeometry relative="1" as="geometry">
            <mxPoint x="709.8199999999999" y="303.01" as="targetPoint" />
            <mxPoint x="1006" y="305" as="sourcePoint" />
          </mxGeometry>
        </mxCell>
        <mxCell id="I72n3WppPRln4_K4UJIP-7" value="" style="edgeStyle=orthogonalEdgeStyle;rounded=0;orthogonalLoop=1;jettySize=auto;html=1;dashed=1;fillColor=#647687;strokeColor=#314354;endArrow=classic;endFill=1;startArrow=classicThin;startFill=1;entryX=1.009;entryY=0.476;entryDx=0;entryDy=0;entryPerimeter=0;" edge="1" parent="_jrqCxRGhFaNpr7jHIZG-1">
          <mxGeometry relative="1" as="geometry">
            <mxPoint x="946.84287" y="294.28" as="targetPoint" />
            <mxPoint x="943" y="300" as="sourcePoint" />
          </mxGeometry>
        </mxCell>
        <mxCell id="I72n3WppPRln4_K4UJIP-1" value="Internet" style="image;aspect=fixed;perimeter=ellipsePerimeter;html=1;align=center;shadow=0;dashed=0;spacingTop=3;image=img/lib/active_directory/internet_cloud.svg;" vertex="1" parent="_jrqCxRGhFaNpr7jHIZG-1">
          <mxGeometry x="936.77" y="278.86" width="71.43" height="45" as="geometry" />
        </mxCell>
      </root>
    </mxGraphModel>
  </diagram>
</mxfile>
